<svg width="180" height="180" viewBox="0 0 180 180" fill="none" xmlns="http://www.w3.org/2000/svg">
<path d="M162.281 43.1719L94.3594 4.07812C93.2344 3.375 91.6875 3.09375 90 3.09375C88.3125 3.09375 86.7656 3.51563 85.6406 4.07812L18.1406 43.3125C15.75 44.7187 14.0625 48.2344 14.0625 50.9062V129.234C14.0625 130.781 14.3437 132.609 15.4688 134.156L165.656 46.9687C164.813 45.2812 163.547 44.0156 162.281 43.1719Z" fill="#9B4F96"/>
<path d="M15.0469 134.016C15.75 135.141 16.7344 136.125 17.7188 136.687L85.5 175.922C86.625 176.625 88.1719 176.906 89.8594 176.906C91.5469 176.906 93.0937 176.484 94.2187 175.922L161.719 136.687C164.109 135.281 165.797 131.766 165.797 129.094V50.7656C165.797 49.5 165.656 48.0937 164.953 46.8281L15.0469 134.016Z" fill="#68217A"/>
<path d="M119.953 107.016C114.047 117.422 102.797 124.453 90 124.453C71.0156 124.453 55.5469 108.984 55.5469 90C55.5469 71.0156 71.0156 55.5469 90 55.5469C102.797 55.5469 114.047 62.5781 119.953 73.125L138.234 62.5781C128.672 45.8438 110.672 34.4531 90 34.4531C59.3438 34.4531 34.4531 59.3438 34.4531 90C34.4531 120.656 59.3438 145.547 90 145.547C110.531 145.547 128.531 134.297 138.094 117.703L119.953 107.016ZM136.406 93.0937L137.672 87.0469H131.766V80.4375H138.938L140.625 71.7188H147.516L145.828 80.2969H151.172L152.859 71.7188H159.609L157.922 80.2969H161.297V86.9062H156.656L155.391 92.9531H161.297V99.5625H154.125L152.438 108H145.547L147.234 99.5625H141.891L140.203 108H133.453L135.141 99.5625H131.766V92.9531H136.406V93.0937ZM143.156 93.0937H148.5L149.766 87.0469H144.422L143.156 93.0937Z" fill="white"/>
</svg>
