<svg width="217" height="181" viewBox="0 0 217 181" fill="none" xmlns="http://www.w3.org/2000/svg">
<path d="M105.129 12.3635C105.318 12.3558 105.508 12.3525 105.698 12.3538C107.318 12.3646 108.939 12.4003 110.559 12.461L110.581 12.4619C138.139 13.5458 161.606 23.0049 182.773 36.9761L182.773 36.9763C183.221 37.2719 183.695 37.5819 184.19 37.906C188.272 40.5753 193.813 44.1987 198.199 48.6066L198.201 48.6085C199.089 49.5012 200.756 51.2294 202.125 53.4732C203.425 55.6022 205.449 59.8131 204.453 65.087L105.129 12.3635ZM105.129 12.3635C77.8506 13.476 53.2625 24.2739 34.637 42.2972M105.129 12.3635L42.9815 50.921L34.637 42.2972M116.167 67.0744C115.998 67.0538 115.829 67.0341 115.66 67.0152L115.659 67.0151C114.926 66.9332 114.191 66.868 113.454 66.8196L113.446 66.819C112.705 66.7698 111.963 66.7372 111.22 66.7211C110.478 66.705 109.735 66.7055 108.992 66.7226C108.249 66.7397 107.507 66.7733 106.767 66.8235L116.167 67.0744ZM116.167 67.0744C109.478 72.0414 102.333 76.5594 94.5852 80.8246L116.167 67.0744ZM172.901 94.5683C180.237 100.277 188.119 105.707 196.193 110.969C199.254 112.964 201.239 116.245 201.587 119.882C201.934 123.519 200.605 127.117 197.977 129.655C177.98 148.965 145.395 166.768 114.466 168.446L114.465 168.446C87.3669 169.915 60.2375 160.463 40.2055 144.611L172.901 94.5683ZM172.901 94.5683C180.163 89.9561 186.834 85.2288 192.662 80.8157L172.901 94.5683ZM80.4088 88.3803C82.9763 86.9744 85.5556 85.6191 88.0088 84.33C90.3566 83.0964 92.5888 81.9235 94.5846 80.825L80.4088 88.3803ZM80.4088 88.3803C80.3988 88.0747 80.3968 87.7688 80.4031 87.4624L80.4034 87.447C80.4096 87.1249 80.4248 86.803 80.4492 86.4811L80.4502 86.4669C80.4741 86.1467 80.507 85.8259 80.5493 85.5041L80.551 85.4908C80.5932 85.1665 80.6445 84.8424 80.705 84.5184C80.7658 84.193 80.8355 83.8686 80.9143 83.5448L80.4088 88.3803ZM100.176 67.7171L100.168 67.7187C99.4497 67.8657 98.7368 68.0287 98.0296 68.2077L97.9695 68.2228C91.1246 69.9172 86.1255 73.459 83.3045 77.9064C83.1236 78.197 82.9516 78.4899 82.7882 78.7852L82.7787 78.8023C82.6103 79.1055 82.4505 79.4119 82.2993 79.7216C82.1468 80.0352 82.0034 80.3507 81.8689 80.6682C81.7354 80.9832 81.6115 81.299 81.4969 81.6158C81.3815 81.935 81.2754 82.255 81.1783 82.5761L100.176 67.7171ZM100.176 67.7171C100.897 67.569 101.622 67.4371 102.351 67.3215C103.08 67.2059 103.813 67.1064 104.549 67.0231M100.176 67.7171L104.549 67.0231M198.432 75.8638C196.338 78.0177 194.025 79.7841 192.663 80.8152L198.432 75.8638ZM198.432 75.8638C200.287 73.9555 203.475 70.2604 204.452 65.0892L198.432 75.8638ZM104.549 67.0231C105.287 66.9403 106.026 66.8738 106.766 66.8235L104.549 67.0231ZM34.637 42.2972C20.5405 55.937 11.3552 73.68 12.5696 94.2636C13.7484 114.247 24.6151 132.274 40.2051 144.61L34.637 42.2972ZM80.915 83.5416C80.9933 83.2206 81.0806 82.9 81.1772 82.5799L80.915 83.5416Z" fill="#FAF6C9" stroke="#CC5A2B" stroke-width="24" stroke-linejoin="round"/>
</svg>
