<svg width="803" height="2164" viewBox="0 0 803 2164" fill="none" xmlns="http://www.w3.org/2000/svg">
<path d="M241.069 1320C260.205 1391.08 273.696 1394.78 300.069 1463.5C313.942 1499.65 331.883 1533.91 335.07 1572.5C337.742 1604.86 332.368 1624.6 318.57 1654C300.782 1691.9 265.039 1695.44 245.57 1732.5C220.796 1779.66 221.76 1814.41 226.07 1867.5C230.645 1923.88 263.471 1949.02 271.57 2005C278.195 2050.8 271.57 2077.22 271.57 2123.5C271.57 2139.32 271.57 2164 271.57 2164C271.57 2164 310.036 2125.14 318.57 2093C330.49 2048.1 311.196 2019.87 294.57 1976.5C271.57 1916.5 271.57 1901 271.57 1843.5C271.57 1786 295.17 1750.9 305.57 1732.5C315.97 1714.1 351.07 1694 365.57 1623.5C380.069 1553 379.922 1536.59 359.069 1476.5C335.206 1407.73 276.021 1383.85 241.069 1320Z" fill="url(#paint0_linear_149_84)"/>
<path d="M236 1081.5C236 1081.5 231.563 1146.09 226.07 1189C220.48 1232.66 220.935 1280.86 241.069 1320C276.021 1383.85 335.206 1407.73 359.069 1476.5C379.922 1536.59 380.069 1553 365.57 1623.5C351.07 1694 315.97 1714.1 305.57 1732.5C295.17 1750.9 271.57 1786 271.57 1843.5C271.57 1901 271.57 1916.5 294.57 1976.5C311.196 2019.87 330.49 2048.1 318.57 2093C310.036 2125.14 271.57 2164 271.57 2164H347.07C347.07 2164 396.569 2084.5 392.57 2039C388.57 1993.5 359.07 1947.5 347.07 1933.5C335.07 1919.5 319.07 1889.5 318.57 1848.5C318.07 1807.5 343.069 1758 365.57 1732.5C420.416 1670.34 461.838 1618.07 447.07 1536.5C437.459 1483.42 399.054 1466.81 376.07 1418C343.598 1349.05 316.41 1307.69 318.57 1231.5C320.22 1173.27 330.272 1133.52 356.5 1081.5C309.442 1081.5 236 1081.5 236 1081.5Z" fill="url(#paint1_linear_149_84)"/>
<path d="M458.07 2164C458.07 2164 462.797 2065.22 447.07 2005C429.219 1936.65 367.784 1914.11 365.57 1843.5C364.171 1798.91 374.654 1773.36 392.57 1732.5C413.544 1684.67 455.455 1673.64 470.07 1623.5C482.527 1580.76 487.53 1529.68 482.069 1485.5C473.094 1412.88 422.203 1397.09 410.07 1332C401.232 1284.59 402.985 1256.21 410.07 1208.5C417.3 1159.81 427.017 1126.46 447.07 1081.5C411.7 1081.5 391.87 1081.5 356.5 1081.5C330.272 1133.52 320.22 1173.27 318.57 1231.5C316.41 1307.69 343.598 1349.05 376.07 1418C399.054 1466.81 437.459 1483.42 447.07 1536.5C461.838 1618.07 420.416 1670.34 365.57 1732.5C343.069 1758 318.07 1807.5 318.57 1848.5C319.07 1889.5 335.07 1919.5 347.07 1933.5C359.07 1947.5 388.57 1993.5 392.57 2039C396.569 2084.5 347.07 2164 347.07 2164H458.07Z" fill="url(#paint2_linear_149_84)"/>
<path d="M241.069 844C260.205 772.925 273.696 769.22 300.069 700.5C313.942 664.351 331.883 630.089 335.07 591.5C337.742 559.137 332.368 539.396 318.57 510C300.782 472.104 265.039 468.56 245.57 431.5C220.796 384.343 221.76 349.593 226.07 296.5C230.645 240.125 263.471 214.978 271.57 159C278.195 113.2 271.57 86.7771 271.57 40.5C271.57 24.6838 271.57 0 271.57 0C271.57 0 310.036 38.8616 318.57 71C330.49 115.896 311.196 144.126 294.57 187.5C271.57 247.5 271.57 263 271.57 320.5C271.57 378 295.17 413.1 305.57 431.5C315.97 449.9 351.07 470 365.57 540.5C380.069 611 379.922 627.406 359.069 687.5C335.206 756.269 276.021 780.149 241.069 844Z" fill="url(#paint3_linear_149_84)"/>
<path d="M236 1081.5C236 1081.5 231.563 1017.91 226.07 975C220.48 931.344 220.935 883.137 241.069 844C276.021 780.149 335.206 756.269 359.069 687.5C379.922 627.406 380.069 611 365.57 540.5C351.07 470 315.97 449.9 305.57 431.5C295.17 413.1 271.57 378 271.57 320.5C271.57 263 271.57 247.5 294.57 187.5C311.196 144.126 330.49 115.896 318.57 71C310.036 38.8616 271.57 0 271.57 0H347.07C347.07 0 396.569 79.5 392.57 125C388.57 170.5 359.07 216.5 347.07 230.5C335.07 244.5 319.07 274.5 318.57 315.5C318.07 356.5 343.069 406 365.57 431.5C420.416 493.659 461.838 545.93 447.07 627.5C437.459 680.585 399.054 697.193 376.07 746C343.598 814.952 316.41 856.315 318.57 932.5C320.22 990.733 381.5 1011.5 356.5 1081.5C309.442 1081.5 236 1081.5 236 1081.5Z" fill="url(#paint4_linear_149_84)"/>
<path d="M458.07 0C458.07 0 462.797 98.778 447.07 159C429.219 227.353 367.784 249.889 365.57 320.5C364.171 365.09 374.654 390.643 392.57 431.5C413.544 479.334 455.455 490.356 470.07 540.5C482.527 583.241 487.53 634.316 482.069 678.5C473.094 751.119 422.203 766.909 410.07 832C401.232 879.413 402.985 907.793 410.07 955.5C417.3 1004.19 467.5 1014 447.07 1081.5C411.7 1081.5 391.87 1081.5 356.5 1081.5C381.5 1011.5 320.22 990.733 318.57 932.5C316.41 856.315 343.598 814.952 376.07 746C399.054 697.193 437.459 680.585 447.07 627.5C461.838 545.93 420.416 493.659 365.57 431.5C343.069 406 318.07 356.5 318.57 315.5C319.07 274.5 335.07 244.5 347.07 230.5C359.07 216.5 388.57 170.5 392.57 125C396.569 79.5 347.07 0 347.07 0H458.07Z" fill="url(#paint5_linear_149_84)"/>
<path d="M722 989C695.213 959.529 658.5 915.5 658.5 915.5L574 920.5C574 920.5 597.759 946.896 619 960.5C663.5 989 679.188 1001.15 707.5 1037C731.336 1067.19 755.5 1123 755.5 1123C755.5 1123 757.611 1174.31 748 1205C738.409 1235.62 726.148 1250.38 707.5 1276.5C680.78 1313.92 659.862 1330.44 625.5 1361C587.678 1394.63 543.667 1390.11 507 1425C461.267 1468.51 432.459 1503.75 422 1566C415.672 1603.67 422.576 1626.71 434.5 1663C442.68 1687.89 450.347 1700.84 463.5 1723.5C476.606 1746.08 486.106 1757.41 501.5 1778.5C524.858 1810.49 553.793 1819.86 564.5 1858C571.994 1884.7 584.72 1922.25 595 1948C618.971 1972.65 640.134 1981.17 674.5 1980C669.388 1951.78 662.359 1918.85 655.5 1891C639.905 1827.68 608.5 1808 585.5 1778.5C563.484 1750.26 556.215 1738.07 542.5 1705C532.231 1680.24 524.988 1658.14 522 1631.5C517.655 1592.77 519.898 1573.55 532 1536.5C544.554 1498.06 564.12 1473.32 585.5 1439C603.465 1410.16 647.687 1385.24 671.5 1361C715.43 1316.29 767.559 1259.73 782 1233C805.5 1189.5 807.126 1143.7 793.5 1095C778.36 1040.89 753 1023.11 722 989Z" fill="url(#paint6_linear_149_84)"/>
<path d="M454.5 989C450.833 974 443 934.2 443 925C443 925 421.544 977.971 422 1009C422.535 1045.45 435.643 1059 454.5 1081C490.5 1094.5 505.062 1096.12 537 1104.5C567.5 1112.5 589.5 1137 594.5 1176C597.508 1199.46 583.897 1238.01 574 1259.5C547.411 1317.22 473.5 1361 473.5 1361C473.5 1361 420.665 1458.09 411 1526.5C409.434 1537.58 409.172 1543.87 408 1555C438.266 1493.3 444.228 1451.95 485.5 1397C524.83 1344.63 572.257 1337.55 608.5 1283C623.437 1260.52 641 1222 641 1222C641 1222 655.399 1177.39 649.5 1149.5C641.951 1113.81 623.78 1095.76 594.5 1074C567.222 1053.73 530.248 1066.12 501.5 1048C475.086 1031.35 458.167 1004 454.5 989Z" fill="#78A898"/>
<path d="M454.5 989C450.833 974 443 934.2 443 925C443 925 421.544 977.971 422 1009C422.535 1045.45 435.643 1059 454.5 1081C490.5 1094.5 505.062 1096.12 537 1104.5C567.5 1112.5 589.5 1137 594.5 1176C597.508 1199.46 583.897 1238.01 574 1259.5C547.411 1317.22 473.5 1361 473.5 1361C473.5 1361 420.665 1458.09 411 1526.5C409.434 1537.58 409.172 1543.87 408 1555C438.266 1493.3 444.228 1451.95 485.5 1397C524.83 1344.63 572.257 1337.55 608.5 1283C623.437 1260.52 641 1222 641 1222C641 1222 655.399 1177.39 649.5 1149.5C641.951 1113.81 623.78 1095.76 594.5 1074C567.222 1053.73 530.248 1066.12 501.5 1048C475.086 1031.35 458.167 1004 454.5 989Z" fill="#3B8381"/>
<path d="M454.5 989C450.833 974 443 934.2 443 925C443 925 421.544 977.971 422 1009C422.535 1045.45 435.643 1059 454.5 1081C490.5 1094.5 505.062 1096.12 537 1104.5C567.5 1112.5 589.5 1137 594.5 1176C597.508 1199.46 583.897 1238.01 574 1259.5C547.411 1317.22 473.5 1361 473.5 1361C473.5 1361 420.665 1458.09 411 1526.5C409.434 1537.58 409.172 1543.87 408 1555C438.266 1493.3 444.228 1451.95 485.5 1397C524.83 1344.63 572.257 1337.55 608.5 1283C623.437 1260.52 641 1222 641 1222C641 1222 655.399 1177.39 649.5 1149.5C641.951 1113.81 623.78 1095.76 594.5 1074C567.222 1053.73 530.248 1066.12 501.5 1048C475.086 1031.35 458.167 1004 454.5 989Z" fill="#235760"/>
<path d="M454.5 989C450.833 974 443 934.2 443 925C443 925 421.544 977.971 422 1009C422.535 1045.45 435.643 1059 454.5 1081C490.5 1094.5 505.062 1096.12 537 1104.5C567.5 1112.5 589.5 1137 594.5 1176C597.508 1199.46 583.897 1238.01 574 1259.5C547.411 1317.22 473.5 1361 473.5 1361C473.5 1361 420.665 1458.09 411 1526.5C409.434 1537.58 409.172 1543.87 408 1555C438.266 1493.3 444.228 1451.95 485.5 1397C524.83 1344.63 572.257 1337.55 608.5 1283C623.437 1260.52 641 1222 641 1222C641 1222 655.399 1177.39 649.5 1149.5C641.951 1113.81 623.78 1095.76 594.5 1074C567.222 1053.73 530.248 1066.12 501.5 1048C475.086 1031.35 458.167 1004 454.5 989Z" fill="#6D988E"/>
<path d="M454.5 989C450.833 974 443 934.2 443 925C443 925 421.544 977.971 422 1009C422.535 1045.45 435.643 1059 454.5 1081C490.5 1094.5 505.062 1096.12 537 1104.5C567.5 1112.5 589.5 1137 594.5 1176C597.508 1199.46 583.897 1238.01 574 1259.5C547.411 1317.22 473.5 1361 473.5 1361C473.5 1361 420.665 1458.09 411 1526.5C409.434 1537.58 409.172 1543.87 408 1555C438.266 1493.3 444.228 1451.95 485.5 1397C524.83 1344.63 572.257 1337.55 608.5 1283C623.437 1260.52 641 1222 641 1222C641 1222 655.399 1177.39 649.5 1149.5C641.951 1113.81 623.78 1095.76 594.5 1074C567.222 1053.73 530.248 1066.12 501.5 1048C475.086 1031.35 458.167 1004 454.5 989Z" fill="#BAB694"/>
<path d="M454.5 989C450.833 974 443 934.2 443 925C443 925 421.544 977.971 422 1009C422.535 1045.45 435.643 1059 454.5 1081C490.5 1094.5 505.062 1096.12 537 1104.5C567.5 1112.5 589.5 1137 594.5 1176C597.508 1199.46 583.897 1238.01 574 1259.5C547.411 1317.22 473.5 1361 473.5 1361C473.5 1361 420.665 1458.09 411 1526.5C409.434 1537.58 409.172 1543.87 408 1555C438.266 1493.3 444.228 1451.95 485.5 1397C524.83 1344.63 572.257 1337.55 608.5 1283C623.437 1260.52 641 1222 641 1222C641 1222 655.399 1177.39 649.5 1149.5C641.951 1113.81 623.78 1095.76 594.5 1074C567.222 1053.73 530.248 1066.12 501.5 1048C475.086 1031.35 458.167 1004 454.5 989Z" fill="#DFC89C"/>
<path d="M454.5 989C450.833 974 443 934.2 443 925C443 925 421.544 977.971 422 1009C422.535 1045.45 435.643 1059 454.5 1081C490.5 1094.5 505.062 1096.12 537 1104.5C567.5 1112.5 589.5 1137 594.5 1176C597.508 1199.46 583.897 1238.01 574 1259.5C547.411 1317.22 473.5 1361 473.5 1361C473.5 1361 420.665 1458.09 411 1526.5C409.434 1537.58 409.172 1543.87 408 1555C438.266 1493.3 444.228 1451.95 485.5 1397C524.83 1344.63 572.257 1337.55 608.5 1283C623.437 1260.52 641 1222 641 1222C641 1222 655.399 1177.39 649.5 1149.5C641.951 1113.81 623.78 1095.76 594.5 1074C567.222 1053.73 530.248 1066.12 501.5 1048C475.086 1031.35 458.167 1004 454.5 989Z" fill="#203139"/>
<path d="M454.5 989C450.833 974 443 934.2 443 925C443 925 421.544 977.971 422 1009C422.535 1045.45 435.643 1059 454.5 1081C490.5 1094.5 505.062 1096.12 537 1104.5C567.5 1112.5 589.5 1137 594.5 1176C597.508 1199.46 583.897 1238.01 574 1259.5C547.411 1317.22 473.5 1361 473.5 1361C473.5 1361 420.665 1458.09 411 1526.5C409.434 1537.58 409.172 1543.87 408 1555C438.266 1493.3 444.228 1451.95 485.5 1397C524.83 1344.63 572.257 1337.55 608.5 1283C623.437 1260.52 641 1222 641 1222C641 1222 655.399 1177.39 649.5 1149.5C641.951 1113.81 623.78 1095.76 594.5 1074C567.222 1053.73 530.248 1066.12 501.5 1048C475.086 1031.35 458.167 1004 454.5 989Z" fill="url(#paint7_linear_149_84)"/>
<path d="M537 1104.5C505.062 1096.12 490.5 1094.5 454.5 1081C490.5 1123 526.852 1152.75 537 1205C549.54 1269.57 473.5 1361 473.5 1361C473.5 1361 547.411 1317.22 574 1259.5C583.897 1238.01 597.508 1199.46 594.5 1176C589.5 1137 567.5 1112.5 537 1104.5Z" fill="#78A898"/>
<path d="M537 1104.5C505.062 1096.12 490.5 1094.5 454.5 1081C490.5 1123 526.852 1152.75 537 1205C549.54 1269.57 473.5 1361 473.5 1361C473.5 1361 547.411 1317.22 574 1259.5C583.897 1238.01 597.508 1199.46 594.5 1176C589.5 1137 567.5 1112.5 537 1104.5Z" fill="#3B8381"/>
<path d="M537 1104.5C505.062 1096.12 490.5 1094.5 454.5 1081C490.5 1123 526.852 1152.75 537 1205C549.54 1269.57 473.5 1361 473.5 1361C473.5 1361 547.411 1317.22 574 1259.5C583.897 1238.01 597.508 1199.46 594.5 1176C589.5 1137 567.5 1112.5 537 1104.5Z" fill="#235760"/>
<path d="M537 1104.5C505.062 1096.12 490.5 1094.5 454.5 1081C490.5 1123 526.852 1152.75 537 1205C549.54 1269.57 473.5 1361 473.5 1361C473.5 1361 547.411 1317.22 574 1259.5C583.897 1238.01 597.508 1199.46 594.5 1176C589.5 1137 567.5 1112.5 537 1104.5Z" fill="#6D988E"/>
<path d="M537 1104.5C505.062 1096.12 490.5 1094.5 454.5 1081C490.5 1123 526.852 1152.75 537 1205C549.54 1269.57 473.5 1361 473.5 1361C473.5 1361 547.411 1317.22 574 1259.5C583.897 1238.01 597.508 1199.46 594.5 1176C589.5 1137 567.5 1112.5 537 1104.5Z" fill="#BAB694"/>
<path d="M537 1104.5C505.062 1096.12 490.5 1094.5 454.5 1081C490.5 1123 526.852 1152.75 537 1205C549.54 1269.57 473.5 1361 473.5 1361C473.5 1361 547.411 1317.22 574 1259.5C583.897 1238.01 597.508 1199.46 594.5 1176C589.5 1137 567.5 1112.5 537 1104.5Z" fill="#DFC89C"/>
<path d="M537 1104.5C505.062 1096.12 490.5 1094.5 454.5 1081C490.5 1123 526.852 1152.75 537 1205C549.54 1269.57 473.5 1361 473.5 1361C473.5 1361 547.411 1317.22 574 1259.5C583.897 1238.01 597.508 1199.46 594.5 1176C589.5 1137 567.5 1112.5 537 1104.5Z" fill="#203139"/>
<path d="M537 1104.5C505.062 1096.12 490.5 1094.5 454.5 1081C490.5 1123 526.852 1152.75 537 1205C549.54 1269.57 473.5 1361 473.5 1361C473.5 1361 547.411 1317.22 574 1259.5C583.897 1238.01 597.508 1199.46 594.5 1176C589.5 1137 567.5 1112.5 537 1104.5Z" fill="url(#paint8_linear_149_84)"/>
<path d="M492 1924.5C492 1924.5 558.486 1940.58 595 1948C584.72 1922.25 571.994 1884.7 564.5 1858C553.793 1819.86 524.858 1810.49 501.5 1778.5C486.106 1757.41 476.606 1746.08 463.5 1723.5C450.347 1700.84 442.68 1687.89 434.5 1663C422.576 1626.71 415.672 1603.67 422 1566C432.459 1503.75 461.267 1468.51 507 1425C543.667 1390.11 587.678 1394.63 625.5 1361C659.862 1330.44 680.78 1313.92 707.5 1276.5C726.148 1250.38 738.409 1235.62 748 1205C757.611 1174.31 755.5 1123 755.5 1123C755.5 1123 731.336 1067.19 707.5 1037C679.188 1001.15 663.5 989 619 960.5C597.759 946.896 574 920.5 574 920.5L443 925C443 925 523.5 950 564.5 971C600.286 989.33 649.5 1059 649.5 1059C649.5 1059 679.742 1100.43 686 1131.5C693.905 1170.75 686.88 1196.03 671.5 1233C657.89 1265.71 642.323 1280.33 619 1307C576.906 1355.14 532.192 1360.01 490.5 1408.5C447.692 1458.29 440.218 1497.79 408 1555C408.132 1597.53 411.284 1621.84 422 1663C432.927 1704.97 444.189 1727.17 463.5 1766C476.895 1792.93 492.988 1804.15 501.5 1833C512.109 1868.96 492 1924.5 492 1924.5Z" fill="#78A898"/>
<path d="M492 1924.5C492 1924.5 558.486 1940.58 595 1948C584.72 1922.25 571.994 1884.7 564.5 1858C553.793 1819.86 524.858 1810.49 501.5 1778.5C486.106 1757.41 476.606 1746.08 463.5 1723.5C450.347 1700.84 442.68 1687.89 434.5 1663C422.576 1626.71 415.672 1603.67 422 1566C432.459 1503.75 461.267 1468.51 507 1425C543.667 1390.11 587.678 1394.63 625.5 1361C659.862 1330.44 680.78 1313.92 707.5 1276.5C726.148 1250.38 738.409 1235.62 748 1205C757.611 1174.31 755.5 1123 755.5 1123C755.5 1123 731.336 1067.19 707.5 1037C679.188 1001.15 663.5 989 619 960.5C597.759 946.896 574 920.5 574 920.5L443 925C443 925 523.5 950 564.5 971C600.286 989.33 649.5 1059 649.5 1059C649.5 1059 679.742 1100.43 686 1131.5C693.905 1170.75 686.88 1196.03 671.5 1233C657.89 1265.71 642.323 1280.33 619 1307C576.906 1355.14 532.192 1360.01 490.5 1408.5C447.692 1458.29 440.218 1497.79 408 1555C408.132 1597.53 411.284 1621.84 422 1663C432.927 1704.97 444.189 1727.17 463.5 1766C476.895 1792.93 492.988 1804.15 501.5 1833C512.109 1868.96 492 1924.5 492 1924.5Z" fill="#3B8381"/>
<path d="M492 1924.5C492 1924.5 558.486 1940.58 595 1948C584.72 1922.25 571.994 1884.7 564.5 1858C553.793 1819.86 524.858 1810.49 501.5 1778.5C486.106 1757.41 476.606 1746.08 463.5 1723.5C450.347 1700.84 442.68 1687.89 434.5 1663C422.576 1626.71 415.672 1603.67 422 1566C432.459 1503.75 461.267 1468.51 507 1425C543.667 1390.11 587.678 1394.63 625.5 1361C659.862 1330.44 680.78 1313.92 707.5 1276.5C726.148 1250.38 738.409 1235.62 748 1205C757.611 1174.31 755.5 1123 755.5 1123C755.5 1123 731.336 1067.19 707.5 1037C679.188 1001.15 663.5 989 619 960.5C597.759 946.896 574 920.5 574 920.5L443 925C443 925 523.5 950 564.5 971C600.286 989.33 649.5 1059 649.5 1059C649.5 1059 679.742 1100.43 686 1131.5C693.905 1170.75 686.88 1196.03 671.5 1233C657.89 1265.71 642.323 1280.33 619 1307C576.906 1355.14 532.192 1360.01 490.5 1408.5C447.692 1458.29 440.218 1497.79 408 1555C408.132 1597.53 411.284 1621.84 422 1663C432.927 1704.97 444.189 1727.17 463.5 1766C476.895 1792.93 492.988 1804.15 501.5 1833C512.109 1868.96 492 1924.5 492 1924.5Z" fill="#235760"/>
<path d="M492 1924.5C492 1924.5 558.486 1940.58 595 1948C584.72 1922.25 571.994 1884.7 564.5 1858C553.793 1819.86 524.858 1810.49 501.5 1778.5C486.106 1757.41 476.606 1746.08 463.5 1723.5C450.347 1700.84 442.68 1687.89 434.5 1663C422.576 1626.71 415.672 1603.67 422 1566C432.459 1503.75 461.267 1468.51 507 1425C543.667 1390.11 587.678 1394.63 625.5 1361C659.862 1330.44 680.78 1313.92 707.5 1276.5C726.148 1250.38 738.409 1235.62 748 1205C757.611 1174.31 755.5 1123 755.5 1123C755.5 1123 731.336 1067.19 707.5 1037C679.188 1001.15 663.5 989 619 960.5C597.759 946.896 574 920.5 574 920.5L443 925C443 925 523.5 950 564.5 971C600.286 989.33 649.5 1059 649.5 1059C649.5 1059 679.742 1100.43 686 1131.5C693.905 1170.75 686.88 1196.03 671.5 1233C657.89 1265.71 642.323 1280.33 619 1307C576.906 1355.14 532.192 1360.01 490.5 1408.5C447.692 1458.29 440.218 1497.79 408 1555C408.132 1597.53 411.284 1621.84 422 1663C432.927 1704.97 444.189 1727.17 463.5 1766C476.895 1792.93 492.988 1804.15 501.5 1833C512.109 1868.96 492 1924.5 492 1924.5Z" fill="#6D988E"/>
<path d="M492 1924.5C492 1924.5 558.486 1940.58 595 1948C584.72 1922.25 571.994 1884.7 564.5 1858C553.793 1819.86 524.858 1810.49 501.5 1778.5C486.106 1757.41 476.606 1746.08 463.5 1723.5C450.347 1700.84 442.68 1687.89 434.5 1663C422.576 1626.71 415.672 1603.67 422 1566C432.459 1503.75 461.267 1468.51 507 1425C543.667 1390.11 587.678 1394.63 625.5 1361C659.862 1330.44 680.78 1313.92 707.5 1276.5C726.148 1250.38 738.409 1235.62 748 1205C757.611 1174.31 755.5 1123 755.5 1123C755.5 1123 731.336 1067.19 707.5 1037C679.188 1001.15 663.5 989 619 960.5C597.759 946.896 574 920.5 574 920.5L443 925C443 925 523.5 950 564.5 971C600.286 989.33 649.5 1059 649.5 1059C649.5 1059 679.742 1100.43 686 1131.5C693.905 1170.75 686.88 1196.03 671.5 1233C657.89 1265.71 642.323 1280.33 619 1307C576.906 1355.14 532.192 1360.01 490.5 1408.5C447.692 1458.29 440.218 1497.79 408 1555C408.132 1597.53 411.284 1621.84 422 1663C432.927 1704.97 444.189 1727.17 463.5 1766C476.895 1792.93 492.988 1804.15 501.5 1833C512.109 1868.96 492 1924.5 492 1924.5Z" fill="#BAB694"/>
<path d="M492 1924.5C492 1924.5 558.486 1940.58 595 1948C584.72 1922.25 571.994 1884.7 564.5 1858C553.793 1819.86 524.858 1810.49 501.5 1778.5C486.106 1757.41 476.606 1746.08 463.5 1723.5C450.347 1700.84 442.68 1687.89 434.5 1663C422.576 1626.71 415.672 1603.67 422 1566C432.459 1503.75 461.267 1468.51 507 1425C543.667 1390.11 587.678 1394.63 625.5 1361C659.862 1330.44 680.78 1313.92 707.5 1276.5C726.148 1250.38 738.409 1235.62 748 1205C757.611 1174.31 755.5 1123 755.5 1123C755.5 1123 731.336 1067.19 707.5 1037C679.188 1001.15 663.5 989 619 960.5C597.759 946.896 574 920.5 574 920.5L443 925C443 925 523.5 950 564.5 971C600.286 989.33 649.5 1059 649.5 1059C649.5 1059 679.742 1100.43 686 1131.5C693.905 1170.75 686.88 1196.03 671.5 1233C657.89 1265.71 642.323 1280.33 619 1307C576.906 1355.14 532.192 1360.01 490.5 1408.5C447.692 1458.29 440.218 1497.79 408 1555C408.132 1597.53 411.284 1621.84 422 1663C432.927 1704.97 444.189 1727.17 463.5 1766C476.895 1792.93 492.988 1804.15 501.5 1833C512.109 1868.96 492 1924.5 492 1924.5Z" fill="#DFC89C"/>
<path d="M492 1924.5C492 1924.5 558.486 1940.58 595 1948C584.72 1922.25 571.994 1884.7 564.5 1858C553.793 1819.86 524.858 1810.49 501.5 1778.5C486.106 1757.41 476.606 1746.08 463.5 1723.5C450.347 1700.84 442.68 1687.89 434.5 1663C422.576 1626.71 415.672 1603.67 422 1566C432.459 1503.75 461.267 1468.51 507 1425C543.667 1390.11 587.678 1394.63 625.5 1361C659.862 1330.44 680.78 1313.92 707.5 1276.5C726.148 1250.38 738.409 1235.62 748 1205C757.611 1174.31 755.5 1123 755.5 1123C755.5 1123 731.336 1067.19 707.5 1037C679.188 1001.15 663.5 989 619 960.5C597.759 946.896 574 920.5 574 920.5L443 925C443 925 523.5 950 564.5 971C600.286 989.33 649.5 1059 649.5 1059C649.5 1059 679.742 1100.43 686 1131.5C693.905 1170.75 686.88 1196.03 671.5 1233C657.89 1265.71 642.323 1280.33 619 1307C576.906 1355.14 532.192 1360.01 490.5 1408.5C447.692 1458.29 440.218 1497.79 408 1555C408.132 1597.53 411.284 1621.84 422 1663C432.927 1704.97 444.189 1727.17 463.5 1766C476.895 1792.93 492.988 1804.15 501.5 1833C512.109 1868.96 492 1924.5 492 1924.5Z" fill="#203139"/>
<path d="M492 1924.5C492 1924.5 558.486 1940.58 595 1948C584.72 1922.25 571.994 1884.7 564.5 1858C553.793 1819.86 524.858 1810.49 501.5 1778.5C486.106 1757.41 476.606 1746.08 463.5 1723.5C450.347 1700.84 442.68 1687.89 434.5 1663C422.576 1626.71 415.672 1603.67 422 1566C432.459 1503.75 461.267 1468.51 507 1425C543.667 1390.11 587.678 1394.63 625.5 1361C659.862 1330.44 680.78 1313.92 707.5 1276.5C726.148 1250.38 738.409 1235.62 748 1205C757.611 1174.31 755.5 1123 755.5 1123C755.5 1123 731.336 1067.19 707.5 1037C679.188 1001.15 663.5 989 619 960.5C597.759 946.896 574 920.5 574 920.5L443 925C443 925 523.5 950 564.5 971C600.286 989.33 649.5 1059 649.5 1059C649.5 1059 679.742 1100.43 686 1131.5C693.905 1170.75 686.88 1196.03 671.5 1233C657.89 1265.71 642.323 1280.33 619 1307C576.906 1355.14 532.192 1360.01 490.5 1408.5C447.692 1458.29 440.218 1497.79 408 1555C408.132 1597.53 411.284 1621.84 422 1663C432.927 1704.97 444.189 1727.17 463.5 1766C476.895 1792.93 492.988 1804.15 501.5 1833C512.109 1868.96 492 1924.5 492 1924.5Z" fill="url(#paint9_linear_149_84)"/>
<path d="M686 1131.5C679.742 1100.43 649.5 1059 649.5 1059L580 1032C580 1032 520.427 1016.7 493.5 989C475.191 970.164 443 925 443 925C443 934.2 450.833 974 454.5 989C458.167 1004 475.086 1031.35 501.5 1048C530.248 1066.12 567.222 1053.73 594.5 1074C623.78 1095.76 641.951 1113.81 649.5 1149.5C655.399 1177.39 641 1222 641 1222C641 1222 623.437 1260.52 608.5 1283C572.257 1337.55 524.83 1344.63 485.5 1397C444.228 1451.95 438.266 1493.3 408 1555C440.218 1497.79 447.692 1458.29 490.5 1408.5C532.192 1360.01 576.906 1355.14 619 1307C642.323 1280.33 657.89 1265.71 671.5 1233C686.88 1196.03 693.905 1170.75 686 1131.5Z" fill="#78A898"/>
<path d="M686 1131.5C679.742 1100.43 649.5 1059 649.5 1059L580 1032C580 1032 520.427 1016.7 493.5 989C475.191 970.164 443 925 443 925C443 934.2 450.833 974 454.5 989C458.167 1004 475.086 1031.35 501.5 1048C530.248 1066.12 567.222 1053.73 594.5 1074C623.78 1095.76 641.951 1113.81 649.5 1149.5C655.399 1177.39 641 1222 641 1222C641 1222 623.437 1260.52 608.5 1283C572.257 1337.55 524.83 1344.63 485.5 1397C444.228 1451.95 438.266 1493.3 408 1555C440.218 1497.79 447.692 1458.29 490.5 1408.5C532.192 1360.01 576.906 1355.14 619 1307C642.323 1280.33 657.89 1265.71 671.5 1233C686.88 1196.03 693.905 1170.75 686 1131.5Z" fill="#3B8381"/>
<path d="M686 1131.5C679.742 1100.43 649.5 1059 649.5 1059L580 1032C580 1032 520.427 1016.7 493.5 989C475.191 970.164 443 925 443 925C443 934.2 450.833 974 454.5 989C458.167 1004 475.086 1031.35 501.5 1048C530.248 1066.12 567.222 1053.73 594.5 1074C623.78 1095.76 641.951 1113.81 649.5 1149.5C655.399 1177.39 641 1222 641 1222C641 1222 623.437 1260.52 608.5 1283C572.257 1337.55 524.83 1344.63 485.5 1397C444.228 1451.95 438.266 1493.3 408 1555C440.218 1497.79 447.692 1458.29 490.5 1408.5C532.192 1360.01 576.906 1355.14 619 1307C642.323 1280.33 657.89 1265.71 671.5 1233C686.88 1196.03 693.905 1170.75 686 1131.5Z" fill="#235760"/>
<path d="M686 1131.5C679.742 1100.43 649.5 1059 649.5 1059L580 1032C580 1032 520.427 1016.7 493.5 989C475.191 970.164 443 925 443 925C443 934.2 450.833 974 454.5 989C458.167 1004 475.086 1031.35 501.5 1048C530.248 1066.12 567.222 1053.73 594.5 1074C623.78 1095.76 641.951 1113.81 649.5 1149.5C655.399 1177.39 641 1222 641 1222C641 1222 623.437 1260.52 608.5 1283C572.257 1337.55 524.83 1344.63 485.5 1397C444.228 1451.95 438.266 1493.3 408 1555C440.218 1497.79 447.692 1458.29 490.5 1408.5C532.192 1360.01 576.906 1355.14 619 1307C642.323 1280.33 657.89 1265.71 671.5 1233C686.88 1196.03 693.905 1170.75 686 1131.5Z" fill="#6D988E"/>
<path d="M686 1131.5C679.742 1100.43 649.5 1059 649.5 1059L580 1032C580 1032 520.427 1016.7 493.5 989C475.191 970.164 443 925 443 925C443 934.2 450.833 974 454.5 989C458.167 1004 475.086 1031.35 501.5 1048C530.248 1066.12 567.222 1053.73 594.5 1074C623.78 1095.76 641.951 1113.81 649.5 1149.5C655.399 1177.39 641 1222 641 1222C641 1222 623.437 1260.52 608.5 1283C572.257 1337.55 524.83 1344.63 485.5 1397C444.228 1451.95 438.266 1493.3 408 1555C440.218 1497.79 447.692 1458.29 490.5 1408.5C532.192 1360.01 576.906 1355.14 619 1307C642.323 1280.33 657.89 1265.71 671.5 1233C686.88 1196.03 693.905 1170.75 686 1131.5Z" fill="#BAB694"/>
<path d="M686 1131.5C679.742 1100.43 649.5 1059 649.5 1059L580 1032C580 1032 520.427 1016.7 493.5 989C475.191 970.164 443 925 443 925C443 934.2 450.833 974 454.5 989C458.167 1004 475.086 1031.35 501.5 1048C530.248 1066.12 567.222 1053.73 594.5 1074C623.78 1095.76 641.951 1113.81 649.5 1149.5C655.399 1177.39 641 1222 641 1222C641 1222 623.437 1260.52 608.5 1283C572.257 1337.55 524.83 1344.63 485.5 1397C444.228 1451.95 438.266 1493.3 408 1555C440.218 1497.79 447.692 1458.29 490.5 1408.5C532.192 1360.01 576.906 1355.14 619 1307C642.323 1280.33 657.89 1265.71 671.5 1233C686.88 1196.03 693.905 1170.75 686 1131.5Z" fill="#DFC89C"/>
<path d="M686 1131.5C679.742 1100.43 649.5 1059 649.5 1059L580 1032C580 1032 520.427 1016.7 493.5 989C475.191 970.164 443 925 443 925C443 934.2 450.833 974 454.5 989C458.167 1004 475.086 1031.35 501.5 1048C530.248 1066.12 567.222 1053.73 594.5 1074C623.78 1095.76 641.951 1113.81 649.5 1149.5C655.399 1177.39 641 1222 641 1222C641 1222 623.437 1260.52 608.5 1283C572.257 1337.55 524.83 1344.63 485.5 1397C444.228 1451.95 438.266 1493.3 408 1555C440.218 1497.79 447.692 1458.29 490.5 1408.5C532.192 1360.01 576.906 1355.14 619 1307C642.323 1280.33 657.89 1265.71 671.5 1233C686.88 1196.03 693.905 1170.75 686 1131.5Z" fill="#203139"/>
<path d="M686 1131.5C679.742 1100.43 649.5 1059 649.5 1059L580 1032C580 1032 520.427 1016.7 493.5 989C475.191 970.164 443 925 443 925C443 934.2 450.833 974 454.5 989C458.167 1004 475.086 1031.35 501.5 1048C530.248 1066.12 567.222 1053.73 594.5 1074C623.78 1095.76 641.951 1113.81 649.5 1149.5C655.399 1177.39 641 1222 641 1222C641 1222 623.437 1260.52 608.5 1283C572.257 1337.55 524.83 1344.63 485.5 1397C444.228 1451.95 438.266 1493.3 408 1555C440.218 1497.79 447.692 1458.29 490.5 1408.5C532.192 1360.01 576.906 1355.14 619 1307C642.323 1280.33 657.89 1265.71 671.5 1233C686.88 1196.03 693.905 1170.75 686 1131.5Z" fill="#BAB694"/>
<path d="M686 1131.5C679.742 1100.43 649.5 1059 649.5 1059L580 1032C580 1032 520.427 1016.7 493.5 989C475.191 970.164 443 925 443 925C443 934.2 450.833 974 454.5 989C458.167 1004 475.086 1031.35 501.5 1048C530.248 1066.12 567.222 1053.73 594.5 1074C623.78 1095.76 641.951 1113.81 649.5 1149.5C655.399 1177.39 641 1222 641 1222C641 1222 623.437 1260.52 608.5 1283C572.257 1337.55 524.83 1344.63 485.5 1397C444.228 1451.95 438.266 1493.3 408 1555C440.218 1497.79 447.692 1458.29 490.5 1408.5C532.192 1360.01 576.906 1355.14 619 1307C642.323 1280.33 657.89 1265.71 671.5 1233C686.88 1196.03 693.905 1170.75 686 1131.5Z" fill="url(#paint10_linear_149_84)"/>
<path d="M564.5 971C523.5 950 443 925 443 925C443 925 475.191 970.164 493.5 989C520.427 1016.7 580 1032 580 1032L649.5 1059C649.5 1059 600.286 989.33 564.5 971Z" fill="#78A898"/>
<path d="M564.5 971C523.5 950 443 925 443 925C443 925 475.191 970.164 493.5 989C520.427 1016.7 580 1032 580 1032L649.5 1059C649.5 1059 600.286 989.33 564.5 971Z" fill="#3B8381"/>
<path d="M564.5 971C523.5 950 443 925 443 925C443 925 475.191 970.164 493.5 989C520.427 1016.7 580 1032 580 1032L649.5 1059C649.5 1059 600.286 989.33 564.5 971Z" fill="#235760"/>
<path d="M564.5 971C523.5 950 443 925 443 925C443 925 475.191 970.164 493.5 989C520.427 1016.7 580 1032 580 1032L649.5 1059C649.5 1059 600.286 989.33 564.5 971Z" fill="#6D988E"/>
<path d="M564.5 971C523.5 950 443 925 443 925C443 925 475.191 970.164 493.5 989C520.427 1016.7 580 1032 580 1032L649.5 1059C649.5 1059 600.286 989.33 564.5 971Z" fill="#BAB694"/>
<path d="M564.5 971C523.5 950 443 925 443 925C443 925 475.191 970.164 493.5 989C520.427 1016.7 580 1032 580 1032L649.5 1059C649.5 1059 600.286 989.33 564.5 971Z" fill="#DFC89C"/>
<path d="M564.5 971C523.5 950 443 925 443 925C443 925 475.191 970.164 493.5 989C520.427 1016.7 580 1032 580 1032L649.5 1059C649.5 1059 600.286 989.33 564.5 971Z" fill="#203139"/>
<path d="M564.5 971C523.5 950 443 925 443 925C443 925 475.191 970.164 493.5 989C520.427 1016.7 580 1032 580 1032L649.5 1059C649.5 1059 600.286 989.33 564.5 971Z" fill="#BAB694"/>
<path d="M537 23.5C528.137 21.1752 520.612 19.3706 513.595 17.688C495.328 13.3074 480.509 9.75359 454.5 0C490.5 42 526.852 71.7467 537 124C549.54 188.569 473.5 280 473.5 280C473.5 280 547.411 236.225 574 178.5C583.897 157.014 597.508 118.464 594.5 95C589.5 56 567.5 31.5 537 23.5Z" fill="#78A898"/>
<path d="M537 23.5C528.137 21.1752 520.612 19.3706 513.595 17.688C495.328 13.3074 480.509 9.75359 454.5 0C490.5 42 526.852 71.7467 537 124C549.54 188.569 473.5 280 473.5 280C473.5 280 547.411 236.225 574 178.5C583.897 157.014 597.508 118.464 594.5 95C589.5 56 567.5 31.5 537 23.5Z" fill="#3B8381"/>
<path d="M537 23.5C528.137 21.1752 520.612 19.3706 513.595 17.688C495.328 13.3074 480.509 9.75359 454.5 0C490.5 42 526.852 71.7467 537 124C549.54 188.569 473.5 280 473.5 280C473.5 280 547.411 236.225 574 178.5C583.897 157.014 597.508 118.464 594.5 95C589.5 56 567.5 31.5 537 23.5Z" fill="#235760"/>
<path d="M537 23.5C528.137 21.1752 520.612 19.3706 513.595 17.688C495.328 13.3074 480.509 9.75359 454.5 0C490.5 42 526.852 71.7467 537 124C549.54 188.569 473.5 280 473.5 280C473.5 280 547.411 236.225 574 178.5C583.897 157.014 597.508 118.464 594.5 95C589.5 56 567.5 31.5 537 23.5Z" fill="#6D988E"/>
<path d="M537 23.5C528.137 21.1752 520.612 19.3706 513.595 17.688C495.328 13.3074 480.509 9.75359 454.5 0C490.5 42 526.852 71.7467 537 124C549.54 188.569 473.5 280 473.5 280C473.5 280 547.411 236.225 574 178.5C583.897 157.014 597.508 118.464 594.5 95C589.5 56 567.5 31.5 537 23.5Z" fill="#BAB694"/>
<path d="M537 23.5C528.137 21.1752 520.612 19.3706 513.595 17.688C495.328 13.3074 480.509 9.75359 454.5 0C490.5 42 526.852 71.7467 537 124C549.54 188.569 473.5 280 473.5 280C473.5 280 547.411 236.225 574 178.5C583.897 157.014 597.508 118.464 594.5 95C589.5 56 567.5 31.5 537 23.5Z" fill="#DFC89C"/>
<path d="M537 23.5C528.137 21.1752 520.612 19.3706 513.595 17.688C495.328 13.3074 480.509 9.75359 454.5 0C490.5 42 526.852 71.7467 537 124C549.54 188.569 473.5 280 473.5 280C473.5 280 547.411 236.225 574 178.5C583.897 157.014 597.508 118.464 594.5 95C589.5 56 567.5 31.5 537 23.5Z" fill="#203139"/>
<path d="M537 23.5C528.137 21.1752 520.612 19.3706 513.595 17.688C495.328 13.3074 480.509 9.75359 454.5 0C490.5 42 526.852 71.7467 537 124C549.54 188.569 473.5 280 473.5 280C473.5 280 547.411 236.225 574 178.5C583.897 157.014 597.508 118.464 594.5 95C589.5 56 567.5 31.5 537 23.5Z" fill="url(#paint11_linear_149_84)"/>
<path d="M581.498 2041.11C572.251 2031.91 492 1924.5 492 1924.5C492 1924.5 474.63 1952.84 463.5 1971C466.022 1978.8 467.405 1988.89 468.846 1999.39C472.019 2022.53 475.472 2047.7 492 2055C509.623 2062.78 524.837 2065.73 539.702 2068.62C557.313 2072.03 574.436 2075.35 594.5 2086.5C619.047 2100.14 650 2139 650 2139C650 2139 609.997 2069.47 581.498 2041.11Z" fill="#78A898"/>
<path d="M581.498 2041.11C572.251 2031.91 492 1924.5 492 1924.5C492 1924.5 474.63 1952.84 463.5 1971C466.022 1978.8 467.405 1988.89 468.846 1999.39C472.019 2022.53 475.472 2047.7 492 2055C509.623 2062.78 524.837 2065.73 539.702 2068.62C557.313 2072.03 574.436 2075.35 594.5 2086.5C619.047 2100.14 650 2139 650 2139C650 2139 609.997 2069.47 581.498 2041.11Z" fill="#3B8381"/>
<path d="M581.498 2041.11C572.251 2031.91 492 1924.5 492 1924.5C492 1924.5 474.63 1952.84 463.5 1971C466.022 1978.8 467.405 1988.89 468.846 1999.39C472.019 2022.53 475.472 2047.7 492 2055C509.623 2062.78 524.837 2065.73 539.702 2068.62C557.313 2072.03 574.436 2075.35 594.5 2086.5C619.047 2100.14 650 2139 650 2139C650 2139 609.997 2069.47 581.498 2041.11Z" fill="#235760"/>
<path d="M581.498 2041.11C572.251 2031.91 492 1924.5 492 1924.5C492 1924.5 474.63 1952.84 463.5 1971C466.022 1978.8 467.405 1988.89 468.846 1999.39C472.019 2022.53 475.472 2047.7 492 2055C509.623 2062.78 524.837 2065.73 539.702 2068.62C557.313 2072.03 574.436 2075.35 594.5 2086.5C619.047 2100.14 650 2139 650 2139C650 2139 609.997 2069.47 581.498 2041.11Z" fill="#6D988E"/>
<path d="M581.498 2041.11C572.251 2031.91 492 1924.5 492 1924.5C492 1924.5 474.63 1952.84 463.5 1971C466.022 1978.8 467.405 1988.89 468.846 1999.39C472.019 2022.53 475.472 2047.7 492 2055C509.623 2062.78 524.837 2065.73 539.702 2068.62C557.313 2072.03 574.436 2075.35 594.5 2086.5C619.047 2100.14 650 2139 650 2139C650 2139 609.997 2069.47 581.498 2041.11Z" fill="#BAB694"/>
<path d="M581.498 2041.11C572.251 2031.91 492 1924.5 492 1924.5C492 1924.5 474.63 1952.84 463.5 1971C466.022 1978.8 467.405 1988.89 468.846 1999.39C472.019 2022.53 475.472 2047.7 492 2055C509.623 2062.78 524.837 2065.73 539.702 2068.62C557.313 2072.03 574.436 2075.35 594.5 2086.5C619.047 2100.14 650 2139 650 2139C650 2139 609.997 2069.47 581.498 2041.11Z" fill="#DFC89C"/>
<path d="M581.498 2041.11C572.251 2031.91 492 1924.5 492 1924.5C492 1924.5 474.63 1952.84 463.5 1971C466.022 1978.8 467.405 1988.89 468.846 1999.39C472.019 2022.53 475.472 2047.7 492 2055C509.623 2062.78 524.837 2065.73 539.702 2068.62C557.313 2072.03 574.436 2075.35 594.5 2086.5C619.047 2100.14 650 2139 650 2139C650 2139 609.997 2069.47 581.498 2041.11Z" fill="#203139"/>
<path d="M581.498 2041.11C572.251 2031.91 492 1924.5 492 1924.5C492 1924.5 474.63 1952.84 463.5 1971C466.022 1978.8 467.405 1988.89 468.846 1999.39C472.019 2022.53 475.472 2047.7 492 2055C509.623 2062.78 524.837 2065.73 539.702 2068.62C557.313 2072.03 574.436 2075.35 594.5 2086.5C619.047 2100.14 650 2139 650 2139C650 2139 609.997 2069.47 581.498 2041.11Z" fill="#BAB694"/>
<path fill-rule="evenodd" clip-rule="evenodd" d="M666.139 2164H735.061C726.914 2148.74 717.18 2132.26 707.5 2120C679.188 2084.15 616.502 1988.31 595 1948C558.486 1940.58 492 1924.5 492 1924.5C492 1924.5 572.251 2031.91 581.498 2041.11C609.997 2069.47 650 2139 650 2139C650 2139 657.703 2149.55 666.139 2164Z" fill="#78A898"/>
<path fill-rule="evenodd" clip-rule="evenodd" d="M666.139 2164H735.061C726.914 2148.74 717.18 2132.26 707.5 2120C679.188 2084.15 616.502 1988.31 595 1948C558.486 1940.58 492 1924.5 492 1924.5C492 1924.5 572.251 2031.91 581.498 2041.11C609.997 2069.47 650 2139 650 2139C650 2139 657.703 2149.55 666.139 2164Z" fill="#3B8381"/>
<path fill-rule="evenodd" clip-rule="evenodd" d="M666.139 2164H735.061C726.914 2148.74 717.18 2132.26 707.5 2120C679.188 2084.15 616.502 1988.31 595 1948C558.486 1940.58 492 1924.5 492 1924.5C492 1924.5 572.251 2031.91 581.498 2041.11C609.997 2069.47 650 2139 650 2139C650 2139 657.703 2149.55 666.139 2164Z" fill="#235760"/>
<path fill-rule="evenodd" clip-rule="evenodd" d="M666.139 2164H735.061C726.914 2148.74 717.18 2132.26 707.5 2120C679.188 2084.15 616.502 1988.31 595 1948C558.486 1940.58 492 1924.5 492 1924.5C492 1924.5 572.251 2031.91 581.498 2041.11C609.997 2069.47 650 2139 650 2139C650 2139 657.703 2149.55 666.139 2164Z" fill="#6D988E"/>
<path fill-rule="evenodd" clip-rule="evenodd" d="M666.139 2164H735.061C726.914 2148.74 717.18 2132.26 707.5 2120C679.188 2084.15 616.502 1988.31 595 1948C558.486 1940.58 492 1924.5 492 1924.5C492 1924.5 572.251 2031.91 581.498 2041.11C609.997 2069.47 650 2139 650 2139C650 2139 657.703 2149.55 666.139 2164Z" fill="#BAB694"/>
<path fill-rule="evenodd" clip-rule="evenodd" d="M666.139 2164H735.061C726.914 2148.74 717.18 2132.26 707.5 2120C679.188 2084.15 616.502 1988.31 595 1948C558.486 1940.58 492 1924.5 492 1924.5C492 1924.5 572.251 2031.91 581.498 2041.11C609.997 2069.47 650 2139 650 2139C650 2139 657.703 2149.55 666.139 2164Z" fill="#DFC89C"/>
<path fill-rule="evenodd" clip-rule="evenodd" d="M666.139 2164H735.061C726.914 2148.74 717.18 2132.26 707.5 2120C679.188 2084.15 616.502 1988.31 595 1948C558.486 1940.58 492 1924.5 492 1924.5C492 1924.5 572.251 2031.91 581.498 2041.11C609.997 2069.47 650 2139 650 2139C650 2139 657.703 2149.55 666.139 2164Z" fill="#203139"/>
<path fill-rule="evenodd" clip-rule="evenodd" d="M666.139 2164H735.061C726.914 2148.74 717.18 2132.26 707.5 2120C679.188 2084.15 616.502 1988.31 595 1948C558.486 1940.58 492 1924.5 492 1924.5C492 1924.5 572.251 2031.91 581.498 2041.11C609.997 2069.47 650 2139 650 2139C650 2139 657.703 2149.55 666.139 2164Z" fill="url(#paint12_linear_149_84)"/>
<path fill-rule="evenodd" clip-rule="evenodd" d="M674.5 1980C683.016 2018.9 695.213 2042.53 722 2072C727.652 2078.22 733.116 2083.89 738.366 2089.35C759.269 2111.06 776.76 2129.22 789.084 2164H735.061C726.914 2148.74 717.18 2132.26 707.5 2120C679.188 2084.15 616.502 1988.31 595 1948C618.971 1972.65 640.134 1981.17 674.5 1980Z" fill="url(#paint13_linear_149_84)"/>
<path fill-rule="evenodd" clip-rule="evenodd" d="M607.903 2164H666.139C657.703 2149.55 650 2139 650 2139C650 2139 619.047 2100.14 594.5 2086.5C574.436 2075.35 557.313 2072.03 539.702 2068.62C524.837 2065.73 509.623 2062.78 492 2055C475.472 2047.7 472.019 2022.53 468.846 1999.39C467.405 1988.89 466.022 1978.8 463.5 1971C463.5 1972.33 463.465 1975.25 463.417 1979.32C463.13 2003.48 462.362 2068.16 465.5 2081C469.167 2096 475.586 2111.35 502 2128C515.866 2136.74 531.646 2138.38 547.328 2140.02C564.159 2141.77 580.879 2143.51 595 2154C599.571 2157.4 603.871 2160.7 607.903 2164Z" fill="#78A898"/>
<path fill-rule="evenodd" clip-rule="evenodd" d="M607.903 2164H666.139C657.703 2149.55 650 2139 650 2139C650 2139 619.047 2100.14 594.5 2086.5C574.436 2075.35 557.313 2072.03 539.702 2068.62C524.837 2065.73 509.623 2062.78 492 2055C475.472 2047.7 472.019 2022.53 468.846 1999.39C467.405 1988.89 466.022 1978.8 463.5 1971C463.5 1972.33 463.465 1975.25 463.417 1979.32C463.13 2003.48 462.362 2068.16 465.5 2081C469.167 2096 475.586 2111.35 502 2128C515.866 2136.74 531.646 2138.38 547.328 2140.02C564.159 2141.77 580.879 2143.51 595 2154C599.571 2157.4 603.871 2160.7 607.903 2164Z" fill="#3B8381"/>
<path fill-rule="evenodd" clip-rule="evenodd" d="M607.903 2164H666.139C657.703 2149.55 650 2139 650 2139C650 2139 619.047 2100.14 594.5 2086.5C574.436 2075.35 557.313 2072.03 539.702 2068.62C524.837 2065.73 509.623 2062.78 492 2055C475.472 2047.7 472.019 2022.53 468.846 1999.39C467.405 1988.89 466.022 1978.8 463.5 1971C463.5 1972.33 463.465 1975.25 463.417 1979.32C463.13 2003.48 462.362 2068.16 465.5 2081C469.167 2096 475.586 2111.35 502 2128C515.866 2136.74 531.646 2138.38 547.328 2140.02C564.159 2141.77 580.879 2143.51 595 2154C599.571 2157.4 603.871 2160.7 607.903 2164Z" fill="#235760"/>
<path fill-rule="evenodd" clip-rule="evenodd" d="M607.903 2164H666.139C657.703 2149.55 650 2139 650 2139C650 2139 619.047 2100.14 594.5 2086.5C574.436 2075.35 557.313 2072.03 539.702 2068.62C524.837 2065.73 509.623 2062.78 492 2055C475.472 2047.7 472.019 2022.53 468.846 1999.39C467.405 1988.89 466.022 1978.8 463.5 1971C463.5 1972.33 463.465 1975.25 463.417 1979.32C463.13 2003.48 462.362 2068.16 465.5 2081C469.167 2096 475.586 2111.35 502 2128C515.866 2136.74 531.646 2138.38 547.328 2140.02C564.159 2141.77 580.879 2143.51 595 2154C599.571 2157.4 603.871 2160.7 607.903 2164Z" fill="#6D988E"/>
<path fill-rule="evenodd" clip-rule="evenodd" d="M607.903 2164H666.139C657.703 2149.55 650 2139 650 2139C650 2139 619.047 2100.14 594.5 2086.5C574.436 2075.35 557.313 2072.03 539.702 2068.62C524.837 2065.73 509.623 2062.78 492 2055C475.472 2047.7 472.019 2022.53 468.846 1999.39C467.405 1988.89 466.022 1978.8 463.5 1971C463.5 1972.33 463.465 1975.25 463.417 1979.32C463.13 2003.48 462.362 2068.16 465.5 2081C469.167 2096 475.586 2111.35 502 2128C515.866 2136.74 531.646 2138.38 547.328 2140.02C564.159 2141.77 580.879 2143.51 595 2154C599.571 2157.4 603.871 2160.7 607.903 2164Z" fill="#BAB694"/>
<path fill-rule="evenodd" clip-rule="evenodd" d="M607.903 2164H666.139C657.703 2149.55 650 2139 650 2139C650 2139 619.047 2100.14 594.5 2086.5C574.436 2075.35 557.313 2072.03 539.702 2068.62C524.837 2065.73 509.623 2062.78 492 2055C475.472 2047.7 472.019 2022.53 468.846 1999.39C467.405 1988.89 466.022 1978.8 463.5 1971C463.5 1972.33 463.465 1975.25 463.417 1979.32C463.13 2003.48 462.362 2068.16 465.5 2081C469.167 2096 475.586 2111.35 502 2128C515.866 2136.74 531.646 2138.38 547.328 2140.02C564.159 2141.77 580.879 2143.51 595 2154C599.571 2157.4 603.871 2160.7 607.903 2164Z" fill="#DFC89C"/>
<path fill-rule="evenodd" clip-rule="evenodd" d="M607.903 2164H666.139C657.703 2149.55 650 2139 650 2139C650 2139 619.047 2100.14 594.5 2086.5C574.436 2075.35 557.313 2072.03 539.702 2068.62C524.837 2065.73 509.623 2062.78 492 2055C475.472 2047.7 472.019 2022.53 468.846 1999.39C467.405 1988.89 466.022 1978.8 463.5 1971C463.5 1972.33 463.465 1975.25 463.417 1979.32C463.13 2003.48 462.362 2068.16 465.5 2081C469.167 2096 475.586 2111.35 502 2128C515.866 2136.74 531.646 2138.38 547.328 2140.02C564.159 2141.77 580.879 2143.51 595 2154C599.571 2157.4 603.871 2160.7 607.903 2164Z" fill="#203139"/>
<path fill-rule="evenodd" clip-rule="evenodd" d="M607.903 2164H666.139C657.703 2149.55 650 2139 650 2139C650 2139 619.047 2100.14 594.5 2086.5C574.436 2075.35 557.313 2072.03 539.702 2068.62C524.837 2065.73 509.623 2062.78 492 2055C475.472 2047.7 472.019 2022.53 468.846 1999.39C467.405 1988.89 466.022 1978.8 463.5 1971C463.5 1972.33 463.465 1975.25 463.417 1979.32C463.13 2003.48 462.362 2068.16 465.5 2081C469.167 2096 475.586 2111.35 502 2128C515.866 2136.74 531.646 2138.38 547.328 2140.02C564.159 2141.77 580.879 2143.51 595 2154C599.571 2157.4 603.871 2160.7 607.903 2164Z" fill="#BAB694"/>
<path fill-rule="evenodd" clip-rule="evenodd" d="M607.903 2164H666.139C657.703 2149.55 650 2139 650 2139C650 2139 619.047 2100.14 594.5 2086.5C574.436 2075.35 557.313 2072.03 539.702 2068.62C524.837 2065.73 509.623 2062.78 492 2055C475.472 2047.7 472.019 2022.53 468.846 1999.39C467.405 1988.89 466.022 1978.8 463.5 1971C463.5 1972.33 463.465 1975.25 463.417 1979.32C463.13 2003.48 462.362 2068.16 465.5 2081C469.167 2096 475.586 2111.35 502 2128C515.866 2136.74 531.646 2138.38 547.328 2140.02C564.159 2141.77 580.879 2143.51 595 2154C599.571 2157.4 603.871 2160.7 607.903 2164Z" fill="url(#paint14_linear_149_84)"/>
<path fill-rule="evenodd" clip-rule="evenodd" d="M463.417 1979.32C463.13 2003.48 462.362 2068.16 465.5 2081C469.167 2096 475.586 2111.35 502 2128C515.866 2136.74 531.646 2138.38 547.328 2140.02C564.159 2141.77 580.879 2143.51 595 2154C599.571 2157.4 603.871 2160.7 607.903 2164H454.5C453.653 2163.01 452.817 2162.04 451.994 2161.08C434.49 2140.74 422.511 2126.81 422 2092C421.544 2060.97 434.5 2013.5 463.5 1971C463.5 1972.33 463.465 1975.25 463.417 1979.32Z" fill="#78A898"/>
<path fill-rule="evenodd" clip-rule="evenodd" d="M463.417 1979.32C463.13 2003.48 462.362 2068.16 465.5 2081C469.167 2096 475.586 2111.35 502 2128C515.866 2136.74 531.646 2138.38 547.328 2140.02C564.159 2141.77 580.879 2143.51 595 2154C599.571 2157.4 603.871 2160.7 607.903 2164H454.5C453.653 2163.01 452.817 2162.04 451.994 2161.08C434.49 2140.74 422.511 2126.81 422 2092C421.544 2060.97 434.5 2013.5 463.5 1971C463.5 1972.33 463.465 1975.25 463.417 1979.32Z" fill="#3B8381"/>
<path fill-rule="evenodd" clip-rule="evenodd" d="M463.417 1979.32C463.13 2003.48 462.362 2068.16 465.5 2081C469.167 2096 475.586 2111.35 502 2128C515.866 2136.74 531.646 2138.38 547.328 2140.02C564.159 2141.77 580.879 2143.51 595 2154C599.571 2157.4 603.871 2160.7 607.903 2164H454.5C453.653 2163.01 452.817 2162.04 451.994 2161.08C434.49 2140.74 422.511 2126.81 422 2092C421.544 2060.97 434.5 2013.5 463.5 1971C463.5 1972.33 463.465 1975.25 463.417 1979.32Z" fill="#235760"/>
<path fill-rule="evenodd" clip-rule="evenodd" d="M463.417 1979.32C463.13 2003.48 462.362 2068.16 465.5 2081C469.167 2096 475.586 2111.35 502 2128C515.866 2136.74 531.646 2138.38 547.328 2140.02C564.159 2141.77 580.879 2143.51 595 2154C599.571 2157.4 603.871 2160.7 607.903 2164H454.5C453.653 2163.01 452.817 2162.04 451.994 2161.08C434.49 2140.74 422.511 2126.81 422 2092C421.544 2060.97 434.5 2013.5 463.5 1971C463.5 1972.33 463.465 1975.25 463.417 1979.32Z" fill="#6D988E"/>
<path fill-rule="evenodd" clip-rule="evenodd" d="M463.417 1979.32C463.13 2003.48 462.362 2068.16 465.5 2081C469.167 2096 475.586 2111.35 502 2128C515.866 2136.74 531.646 2138.38 547.328 2140.02C564.159 2141.77 580.879 2143.51 595 2154C599.571 2157.4 603.871 2160.7 607.903 2164H454.5C453.653 2163.01 452.817 2162.04 451.994 2161.08C434.49 2140.74 422.511 2126.81 422 2092C421.544 2060.97 434.5 2013.5 463.5 1971C463.5 1972.33 463.465 1975.25 463.417 1979.32Z" fill="#BAB694"/>
<path fill-rule="evenodd" clip-rule="evenodd" d="M463.417 1979.32C463.13 2003.48 462.362 2068.16 465.5 2081C469.167 2096 475.586 2111.35 502 2128C515.866 2136.74 531.646 2138.38 547.328 2140.02C564.159 2141.77 580.879 2143.51 595 2154C599.571 2157.4 603.871 2160.7 607.903 2164H454.5C453.653 2163.01 452.817 2162.04 451.994 2161.08C434.49 2140.74 422.511 2126.81 422 2092C421.544 2060.97 434.5 2013.5 463.5 1971C463.5 1972.33 463.465 1975.25 463.417 1979.32Z" fill="#DFC89C"/>
<path fill-rule="evenodd" clip-rule="evenodd" d="M463.417 1979.32C463.13 2003.48 462.362 2068.16 465.5 2081C469.167 2096 475.586 2111.35 502 2128C515.866 2136.74 531.646 2138.38 547.328 2140.02C564.159 2141.77 580.879 2143.51 595 2154C599.571 2157.4 603.871 2160.7 607.903 2164H454.5C453.653 2163.01 452.817 2162.04 451.994 2161.08C434.49 2140.74 422.511 2126.81 422 2092C421.544 2060.97 434.5 2013.5 463.5 1971C463.5 1972.33 463.465 1975.25 463.417 1979.32Z" fill="#203139"/>
<path fill-rule="evenodd" clip-rule="evenodd" d="M463.417 1979.32C463.13 2003.48 462.362 2068.16 465.5 2081C469.167 2096 475.586 2111.35 502 2128C515.866 2136.74 531.646 2138.38 547.328 2140.02C564.159 2141.77 580.879 2143.51 595 2154C599.571 2157.4 603.871 2160.7 607.903 2164H454.5C453.653 2163.01 452.817 2162.04 451.994 2161.08C434.49 2140.74 422.511 2126.81 422 2092C421.544 2060.97 434.5 2013.5 463.5 1971C463.5 1972.33 463.465 1975.25 463.417 1979.32Z" fill="url(#paint15_linear_149_84)"/>
<path fill-rule="evenodd" clip-rule="evenodd" d="M603.666 0H454.5C480.509 9.75359 495.328 13.3074 513.595 17.688C520.612 19.3706 528.137 21.1752 537 23.5C567.5 31.5 589.5 56 594.5 95C597.508 118.464 583.897 157.014 574 178.5C547.411 236.225 473.5 280 473.5 280C473.5 280 420.664 377.092 411 445.5C409.984 452.687 409.517 457.858 408.994 463.642C408.711 466.775 408.411 470.089 408 474C418.636 452.316 426.27 433.147 433.491 415.018C446.817 381.558 458.732 351.642 485.5 316C504.357 290.892 525.075 276.194 545.53 261.683C567.737 245.929 589.634 230.396 608.5 202C623.437 179.518 641 141 641 141C641 141 655.399 96.3898 649.5 68.5C642.772 36.6956 627.61 18.8955 603.666 0Z" fill="#78A898"/>
<path fill-rule="evenodd" clip-rule="evenodd" d="M603.666 0H454.5C480.509 9.75359 495.328 13.3074 513.595 17.688C520.612 19.3706 528.137 21.1752 537 23.5C567.5 31.5 589.5 56 594.5 95C597.508 118.464 583.897 157.014 574 178.5C547.411 236.225 473.5 280 473.5 280C473.5 280 420.664 377.092 411 445.5C409.984 452.687 409.517 457.858 408.994 463.642C408.711 466.775 408.411 470.089 408 474C418.636 452.316 426.27 433.147 433.491 415.018C446.817 381.558 458.732 351.642 485.5 316C504.357 290.892 525.075 276.194 545.53 261.683C567.737 245.929 589.634 230.396 608.5 202C623.437 179.518 641 141 641 141C641 141 655.399 96.3898 649.5 68.5C642.772 36.6956 627.61 18.8955 603.666 0Z" fill="#3B8381"/>
<path fill-rule="evenodd" clip-rule="evenodd" d="M603.666 0H454.5C480.509 9.75359 495.328 13.3074 513.595 17.688C520.612 19.3706 528.137 21.1752 537 23.5C567.5 31.5 589.5 56 594.5 95C597.508 118.464 583.897 157.014 574 178.5C547.411 236.225 473.5 280 473.5 280C473.5 280 420.664 377.092 411 445.5C409.984 452.687 409.517 457.858 408.994 463.642C408.711 466.775 408.411 470.089 408 474C418.636 452.316 426.27 433.147 433.491 415.018C446.817 381.558 458.732 351.642 485.5 316C504.357 290.892 525.075 276.194 545.53 261.683C567.737 245.929 589.634 230.396 608.5 202C623.437 179.518 641 141 641 141C641 141 655.399 96.3898 649.5 68.5C642.772 36.6956 627.61 18.8955 603.666 0Z" fill="#235760"/>
<path fill-rule="evenodd" clip-rule="evenodd" d="M603.666 0H454.5C480.509 9.75359 495.328 13.3074 513.595 17.688C520.612 19.3706 528.137 21.1752 537 23.5C567.5 31.5 589.5 56 594.5 95C597.508 118.464 583.897 157.014 574 178.5C547.411 236.225 473.5 280 473.5 280C473.5 280 420.664 377.092 411 445.5C409.984 452.687 409.517 457.858 408.994 463.642C408.711 466.775 408.411 470.089 408 474C418.636 452.316 426.27 433.147 433.491 415.018C446.817 381.558 458.732 351.642 485.5 316C504.357 290.892 525.075 276.194 545.53 261.683C567.737 245.929 589.634 230.396 608.5 202C623.437 179.518 641 141 641 141C641 141 655.399 96.3898 649.5 68.5C642.772 36.6956 627.61 18.8955 603.666 0Z" fill="#6D988E"/>
<path fill-rule="evenodd" clip-rule="evenodd" d="M603.666 0H454.5C480.509 9.75359 495.328 13.3074 513.595 17.688C520.612 19.3706 528.137 21.1752 537 23.5C567.5 31.5 589.5 56 594.5 95C597.508 118.464 583.897 157.014 574 178.5C547.411 236.225 473.5 280 473.5 280C473.5 280 420.664 377.092 411 445.5C409.984 452.687 409.517 457.858 408.994 463.642C408.711 466.775 408.411 470.089 408 474C418.636 452.316 426.27 433.147 433.491 415.018C446.817 381.558 458.732 351.642 485.5 316C504.357 290.892 525.075 276.194 545.53 261.683C567.737 245.929 589.634 230.396 608.5 202C623.437 179.518 641 141 641 141C641 141 655.399 96.3898 649.5 68.5C642.772 36.6956 627.61 18.8955 603.666 0Z" fill="#BAB694"/>
<path fill-rule="evenodd" clip-rule="evenodd" d="M603.666 0H454.5C480.509 9.75359 495.328 13.3074 513.595 17.688C520.612 19.3706 528.137 21.1752 537 23.5C567.5 31.5 589.5 56 594.5 95C597.508 118.464 583.897 157.014 574 178.5C547.411 236.225 473.5 280 473.5 280C473.5 280 420.664 377.092 411 445.5C409.984 452.687 409.517 457.858 408.994 463.642C408.711 466.775 408.411 470.089 408 474C418.636 452.316 426.27 433.147 433.491 415.018C446.817 381.558 458.732 351.642 485.5 316C504.357 290.892 525.075 276.194 545.53 261.683C567.737 245.929 589.634 230.396 608.5 202C623.437 179.518 641 141 641 141C641 141 655.399 96.3898 649.5 68.5C642.772 36.6956 627.61 18.8955 603.666 0Z" fill="#DFC89C"/>
<path fill-rule="evenodd" clip-rule="evenodd" d="M603.666 0H454.5C480.509 9.75359 495.328 13.3074 513.595 17.688C520.612 19.3706 528.137 21.1752 537 23.5C567.5 31.5 589.5 56 594.5 95C597.508 118.464 583.897 157.014 574 178.5C547.411 236.225 473.5 280 473.5 280C473.5 280 420.664 377.092 411 445.5C409.984 452.687 409.517 457.858 408.994 463.642C408.711 466.775 408.411 470.089 408 474C418.636 452.316 426.27 433.147 433.491 415.018C446.817 381.558 458.732 351.642 485.5 316C504.357 290.892 525.075 276.194 545.53 261.683C567.737 245.929 589.634 230.396 608.5 202C623.437 179.518 641 141 641 141C641 141 655.399 96.3898 649.5 68.5C642.772 36.6956 627.61 18.8955 603.666 0Z" fill="#203139"/>
<path fill-rule="evenodd" clip-rule="evenodd" d="M603.666 0H454.5C480.509 9.75359 495.328 13.3074 513.595 17.688C520.612 19.3706 528.137 21.1752 537 23.5C567.5 31.5 589.5 56 594.5 95C597.508 118.464 583.897 157.014 574 178.5C547.411 236.225 473.5 280 473.5 280C473.5 280 420.664 377.092 411 445.5C409.984 452.687 409.517 457.858 408.994 463.642C408.711 466.775 408.411 470.089 408 474C418.636 452.316 426.27 433.147 433.491 415.018C446.817 381.558 458.732 351.642 485.5 316C504.357 290.892 525.075 276.194 545.53 261.683C567.737 245.929 589.634 230.396 608.5 202C623.437 179.518 641 141 641 141C641 141 655.399 96.3898 649.5 68.5C642.772 36.6956 627.61 18.8955 603.666 0Z" fill="url(#paint16_linear_149_84)"/>
<path fill-rule="evenodd" clip-rule="evenodd" d="M663.865 0C672.594 14.585 682.677 34.0014 686 50.5C693.905 89.7525 686.88 115.031 671.5 152C659.817 180.081 646.693 194.824 628.459 215.307C625.45 218.686 622.303 222.222 619 226C598.091 249.912 576.537 263.148 555.027 276.357C533.232 289.741 511.483 303.096 490.5 327.5C462.736 359.791 449.835 387.755 435.406 419.031C427.588 435.977 419.322 453.895 408 474C418.636 452.316 426.27 433.147 433.491 415.018C446.817 381.558 458.732 351.642 485.5 316C504.357 290.892 525.075 276.194 545.53 261.683C567.737 245.929 589.634 230.396 608.5 202C623.437 179.518 641 141 641 141C641 141 655.399 96.3898 649.5 68.5C642.772 36.6956 627.61 18.8955 603.666 0H663.865Z" fill="#78A898"/>
<path fill-rule="evenodd" clip-rule="evenodd" d="M663.865 0C672.594 14.585 682.677 34.0014 686 50.5C693.905 89.7525 686.88 115.031 671.5 152C659.817 180.081 646.693 194.824 628.459 215.307C625.45 218.686 622.303 222.222 619 226C598.091 249.912 576.537 263.148 555.027 276.357C533.232 289.741 511.483 303.096 490.5 327.5C462.736 359.791 449.835 387.755 435.406 419.031C427.588 435.977 419.322 453.895 408 474C418.636 452.316 426.27 433.147 433.491 415.018C446.817 381.558 458.732 351.642 485.5 316C504.357 290.892 525.075 276.194 545.53 261.683C567.737 245.929 589.634 230.396 608.5 202C623.437 179.518 641 141 641 141C641 141 655.399 96.3898 649.5 68.5C642.772 36.6956 627.61 18.8955 603.666 0H663.865Z" fill="#3B8381"/>
<path fill-rule="evenodd" clip-rule="evenodd" d="M663.865 0C672.594 14.585 682.677 34.0014 686 50.5C693.905 89.7525 686.88 115.031 671.5 152C659.817 180.081 646.693 194.824 628.459 215.307C625.45 218.686 622.303 222.222 619 226C598.091 249.912 576.537 263.148 555.027 276.357C533.232 289.741 511.483 303.096 490.5 327.5C462.736 359.791 449.835 387.755 435.406 419.031C427.588 435.977 419.322 453.895 408 474C418.636 452.316 426.27 433.147 433.491 415.018C446.817 381.558 458.732 351.642 485.5 316C504.357 290.892 525.075 276.194 545.53 261.683C567.737 245.929 589.634 230.396 608.5 202C623.437 179.518 641 141 641 141C641 141 655.399 96.3898 649.5 68.5C642.772 36.6956 627.61 18.8955 603.666 0H663.865Z" fill="#235760"/>
<path fill-rule="evenodd" clip-rule="evenodd" d="M663.865 0C672.594 14.585 682.677 34.0014 686 50.5C693.905 89.7525 686.88 115.031 671.5 152C659.817 180.081 646.693 194.824 628.459 215.307C625.45 218.686 622.303 222.222 619 226C598.091 249.912 576.537 263.148 555.027 276.357C533.232 289.741 511.483 303.096 490.5 327.5C462.736 359.791 449.835 387.755 435.406 419.031C427.588 435.977 419.322 453.895 408 474C418.636 452.316 426.27 433.147 433.491 415.018C446.817 381.558 458.732 351.642 485.5 316C504.357 290.892 525.075 276.194 545.53 261.683C567.737 245.929 589.634 230.396 608.5 202C623.437 179.518 641 141 641 141C641 141 655.399 96.3898 649.5 68.5C642.772 36.6956 627.61 18.8955 603.666 0H663.865Z" fill="#6D988E"/>
<path fill-rule="evenodd" clip-rule="evenodd" d="M663.865 0C672.594 14.585 682.677 34.0014 686 50.5C693.905 89.7525 686.88 115.031 671.5 152C659.817 180.081 646.693 194.824 628.459 215.307C625.45 218.686 622.303 222.222 619 226C598.091 249.912 576.537 263.148 555.027 276.357C533.232 289.741 511.483 303.096 490.5 327.5C462.736 359.791 449.835 387.755 435.406 419.031C427.588 435.977 419.322 453.895 408 474C418.636 452.316 426.27 433.147 433.491 415.018C446.817 381.558 458.732 351.642 485.5 316C504.357 290.892 525.075 276.194 545.53 261.683C567.737 245.929 589.634 230.396 608.5 202C623.437 179.518 641 141 641 141C641 141 655.399 96.3898 649.5 68.5C642.772 36.6956 627.61 18.8955 603.666 0H663.865Z" fill="#BAB694"/>
<path fill-rule="evenodd" clip-rule="evenodd" d="M663.865 0C672.594 14.585 682.677 34.0014 686 50.5C693.905 89.7525 686.88 115.031 671.5 152C659.817 180.081 646.693 194.824 628.459 215.307C625.45 218.686 622.303 222.222 619 226C598.091 249.912 576.537 263.148 555.027 276.357C533.232 289.741 511.483 303.096 490.5 327.5C462.736 359.791 449.835 387.755 435.406 419.031C427.588 435.977 419.322 453.895 408 474C418.636 452.316 426.27 433.147 433.491 415.018C446.817 381.558 458.732 351.642 485.5 316C504.357 290.892 525.075 276.194 545.53 261.683C567.737 245.929 589.634 230.396 608.5 202C623.437 179.518 641 141 641 141C641 141 655.399 96.3898 649.5 68.5C642.772 36.6956 627.61 18.8955 603.666 0H663.865Z" fill="#DFC89C"/>
<path fill-rule="evenodd" clip-rule="evenodd" d="M663.865 0C672.594 14.585 682.677 34.0014 686 50.5C693.905 89.7525 686.88 115.031 671.5 152C659.817 180.081 646.693 194.824 628.459 215.307C625.45 218.686 622.303 222.222 619 226C598.091 249.912 576.537 263.148 555.027 276.357C533.232 289.741 511.483 303.096 490.5 327.5C462.736 359.791 449.835 387.755 435.406 419.031C427.588 435.977 419.322 453.895 408 474C418.636 452.316 426.27 433.147 433.491 415.018C446.817 381.558 458.732 351.642 485.5 316C504.357 290.892 525.075 276.194 545.53 261.683C567.737 245.929 589.634 230.396 608.5 202C623.437 179.518 641 141 641 141C641 141 655.399 96.3898 649.5 68.5C642.772 36.6956 627.61 18.8955 603.666 0H663.865Z" fill="#203139"/>
<path fill-rule="evenodd" clip-rule="evenodd" d="M663.865 0C672.594 14.585 682.677 34.0014 686 50.5C693.905 89.7525 686.88 115.031 671.5 152C659.817 180.081 646.693 194.824 628.459 215.307C625.45 218.686 622.303 222.222 619 226C598.091 249.912 576.537 263.148 555.027 276.357C533.232 289.741 511.483 303.096 490.5 327.5C462.736 359.791 449.835 387.755 435.406 419.031C427.588 435.977 419.322 453.895 408 474C418.636 452.316 426.27 433.147 433.491 415.018C446.817 381.558 458.732 351.642 485.5 316C504.357 290.892 525.075 276.194 545.53 261.683C567.737 245.929 589.634 230.396 608.5 202C623.437 179.518 641 141 641 141C641 141 655.399 96.3898 649.5 68.5C642.772 36.6956 627.61 18.8955 603.666 0H663.865Z" fill="#BAB694"/>
<path fill-rule="evenodd" clip-rule="evenodd" d="M663.865 0C672.594 14.585 682.677 34.0014 686 50.5C693.905 89.7525 686.88 115.031 671.5 152C659.817 180.081 646.693 194.824 628.459 215.307C625.45 218.686 622.303 222.222 619 226C598.091 249.912 576.537 263.148 555.027 276.357C533.232 289.741 511.483 303.096 490.5 327.5C462.736 359.791 449.835 387.755 435.406 419.031C427.588 435.977 419.322 453.895 408 474C418.636 452.316 426.27 433.147 433.491 415.018C446.817 381.558 458.732 351.642 485.5 316C504.357 290.892 525.075 276.194 545.53 261.683C567.737 245.929 589.634 230.396 608.5 202C623.437 179.518 641 141 641 141C641 141 655.399 96.3898 649.5 68.5C642.772 36.6956 627.61 18.8955 603.666 0H663.865Z" fill="url(#paint17_linear_149_84)"/>
<path fill-rule="evenodd" clip-rule="evenodd" d="M564.5 848C554.955 884.36 574 920.5 574 920.5L443 925C443 925 493.544 881.298 501.5 848C510.212 811.536 512.108 787.958 501.5 752C496.459 734.915 488.76 724.015 480.538 712.373C474.874 704.354 468.963 695.984 463.5 685L462.276 682.539C443.709 645.215 432.694 623.072 422 582C411.283 540.843 408.132 516.529 408 474C419.322 453.895 427.588 435.977 435.406 419.031C449.835 387.755 462.736 359.791 490.5 327.5C511.483 303.096 533.232 289.741 555.027 276.357C576.537 263.148 598.091 249.912 619 226C622.303 222.222 625.45 218.686 628.459 215.307C646.693 194.824 659.817 180.081 671.5 152C686.88 115.031 693.905 89.7525 686 50.5C682.677 34.0014 672.594 14.585 663.865 0H735.061C746.977 22.313 755.5 42 755.5 42C755.5 42 757.611 93.3131 748 124C739.5 151.141 728.902 165.821 713.62 186.99C711.659 189.706 709.621 192.53 707.5 195.5C684.025 228.378 665.028 245.123 637.458 269.426C633.648 272.786 629.673 276.289 625.5 280C606.974 296.474 586.962 303.794 567.056 311.076C546.324 318.66 525.706 326.202 507 344C461.267 387.513 432.459 422.746 422 485C415.672 522.666 422.576 545.715 434.5 582C442.491 606.316 449.992 619.235 462.596 640.944L463.5 642.5C473.688 660.051 481.697 670.809 491.989 684.634L491.99 684.635C494.938 688.594 498.073 692.806 501.5 697.5C510.346 709.616 519.991 718.487 529.144 726.905C544.16 740.715 557.848 753.304 564.5 777C571.994 803.695 571.54 821.182 564.5 848Z" fill="#78A898"/>
<path fill-rule="evenodd" clip-rule="evenodd" d="M564.5 848C554.955 884.36 574 920.5 574 920.5L443 925C443 925 493.544 881.298 501.5 848C510.212 811.536 512.108 787.958 501.5 752C496.459 734.915 488.76 724.015 480.538 712.373C474.874 704.354 468.963 695.984 463.5 685L462.276 682.539C443.709 645.215 432.694 623.072 422 582C411.283 540.843 408.132 516.529 408 474C419.322 453.895 427.588 435.977 435.406 419.031C449.835 387.755 462.736 359.791 490.5 327.5C511.483 303.096 533.232 289.741 555.027 276.357C576.537 263.148 598.091 249.912 619 226C622.303 222.222 625.45 218.686 628.459 215.307C646.693 194.824 659.817 180.081 671.5 152C686.88 115.031 693.905 89.7525 686 50.5C682.677 34.0014 672.594 14.585 663.865 0H735.061C746.977 22.313 755.5 42 755.5 42C755.5 42 757.611 93.3131 748 124C739.5 151.141 728.902 165.821 713.62 186.99C711.659 189.706 709.621 192.53 707.5 195.5C684.025 228.378 665.028 245.123 637.458 269.426C633.648 272.786 629.673 276.289 625.5 280C606.974 296.474 586.962 303.794 567.056 311.076C546.324 318.66 525.706 326.202 507 344C461.267 387.513 432.459 422.746 422 485C415.672 522.666 422.576 545.715 434.5 582C442.491 606.316 449.992 619.235 462.596 640.944L463.5 642.5C473.688 660.051 481.697 670.809 491.989 684.634L491.99 684.635C494.938 688.594 498.073 692.806 501.5 697.5C510.346 709.616 519.991 718.487 529.144 726.905C544.16 740.715 557.848 753.304 564.5 777C571.994 803.695 571.54 821.182 564.5 848Z" fill="#3B8381"/>
<path fill-rule="evenodd" clip-rule="evenodd" d="M564.5 848C554.955 884.36 574 920.5 574 920.5L443 925C443 925 493.544 881.298 501.5 848C510.212 811.536 512.108 787.958 501.5 752C496.459 734.915 488.76 724.015 480.538 712.373C474.874 704.354 468.963 695.984 463.5 685L462.276 682.539C443.709 645.215 432.694 623.072 422 582C411.283 540.843 408.132 516.529 408 474C419.322 453.895 427.588 435.977 435.406 419.031C449.835 387.755 462.736 359.791 490.5 327.5C511.483 303.096 533.232 289.741 555.027 276.357C576.537 263.148 598.091 249.912 619 226C622.303 222.222 625.45 218.686 628.459 215.307C646.693 194.824 659.817 180.081 671.5 152C686.88 115.031 693.905 89.7525 686 50.5C682.677 34.0014 672.594 14.585 663.865 0H735.061C746.977 22.313 755.5 42 755.5 42C755.5 42 757.611 93.3131 748 124C739.5 151.141 728.902 165.821 713.62 186.99C711.659 189.706 709.621 192.53 707.5 195.5C684.025 228.378 665.028 245.123 637.458 269.426C633.648 272.786 629.673 276.289 625.5 280C606.974 296.474 586.962 303.794 567.056 311.076C546.324 318.66 525.706 326.202 507 344C461.267 387.513 432.459 422.746 422 485C415.672 522.666 422.576 545.715 434.5 582C442.491 606.316 449.992 619.235 462.596 640.944L463.5 642.5C473.688 660.051 481.697 670.809 491.989 684.634L491.99 684.635C494.938 688.594 498.073 692.806 501.5 697.5C510.346 709.616 519.991 718.487 529.144 726.905C544.16 740.715 557.848 753.304 564.5 777C571.994 803.695 571.54 821.182 564.5 848Z" fill="#235760"/>
<path fill-rule="evenodd" clip-rule="evenodd" d="M564.5 848C554.955 884.36 574 920.5 574 920.5L443 925C443 925 493.544 881.298 501.5 848C510.212 811.536 512.108 787.958 501.5 752C496.459 734.915 488.76 724.015 480.538 712.373C474.874 704.354 468.963 695.984 463.5 685L462.276 682.539C443.709 645.215 432.694 623.072 422 582C411.283 540.843 408.132 516.529 408 474C419.322 453.895 427.588 435.977 435.406 419.031C449.835 387.755 462.736 359.791 490.5 327.5C511.483 303.096 533.232 289.741 555.027 276.357C576.537 263.148 598.091 249.912 619 226C622.303 222.222 625.45 218.686 628.459 215.307C646.693 194.824 659.817 180.081 671.5 152C686.88 115.031 693.905 89.7525 686 50.5C682.677 34.0014 672.594 14.585 663.865 0H735.061C746.977 22.313 755.5 42 755.5 42C755.5 42 757.611 93.3131 748 124C739.5 151.141 728.902 165.821 713.62 186.99C711.659 189.706 709.621 192.53 707.5 195.5C684.025 228.378 665.028 245.123 637.458 269.426C633.648 272.786 629.673 276.289 625.5 280C606.974 296.474 586.962 303.794 567.056 311.076C546.324 318.66 525.706 326.202 507 344C461.267 387.513 432.459 422.746 422 485C415.672 522.666 422.576 545.715 434.5 582C442.491 606.316 449.992 619.235 462.596 640.944L463.5 642.5C473.688 660.051 481.697 670.809 491.989 684.634L491.99 684.635C494.938 688.594 498.073 692.806 501.5 697.5C510.346 709.616 519.991 718.487 529.144 726.905C544.16 740.715 557.848 753.304 564.5 777C571.994 803.695 571.54 821.182 564.5 848Z" fill="#6D988E"/>
<path fill-rule="evenodd" clip-rule="evenodd" d="M564.5 848C554.955 884.36 574 920.5 574 920.5L443 925C443 925 493.544 881.298 501.5 848C510.212 811.536 512.108 787.958 501.5 752C496.459 734.915 488.76 724.015 480.538 712.373C474.874 704.354 468.963 695.984 463.5 685L462.276 682.539C443.709 645.215 432.694 623.072 422 582C411.283 540.843 408.132 516.529 408 474C419.322 453.895 427.588 435.977 435.406 419.031C449.835 387.755 462.736 359.791 490.5 327.5C511.483 303.096 533.232 289.741 555.027 276.357C576.537 263.148 598.091 249.912 619 226C622.303 222.222 625.45 218.686 628.459 215.307C646.693 194.824 659.817 180.081 671.5 152C686.88 115.031 693.905 89.7525 686 50.5C682.677 34.0014 672.594 14.585 663.865 0H735.061C746.977 22.313 755.5 42 755.5 42C755.5 42 757.611 93.3131 748 124C739.5 151.141 728.902 165.821 713.62 186.99C711.659 189.706 709.621 192.53 707.5 195.5C684.025 228.378 665.028 245.123 637.458 269.426C633.648 272.786 629.673 276.289 625.5 280C606.974 296.474 586.962 303.794 567.056 311.076C546.324 318.66 525.706 326.202 507 344C461.267 387.513 432.459 422.746 422 485C415.672 522.666 422.576 545.715 434.5 582C442.491 606.316 449.992 619.235 462.596 640.944L463.5 642.5C473.688 660.051 481.697 670.809 491.989 684.634L491.99 684.635C494.938 688.594 498.073 692.806 501.5 697.5C510.346 709.616 519.991 718.487 529.144 726.905C544.16 740.715 557.848 753.304 564.5 777C571.994 803.695 571.54 821.182 564.5 848Z" fill="#BAB694"/>
<path fill-rule="evenodd" clip-rule="evenodd" d="M564.5 848C554.955 884.36 574 920.5 574 920.5L443 925C443 925 493.544 881.298 501.5 848C510.212 811.536 512.108 787.958 501.5 752C496.459 734.915 488.76 724.015 480.538 712.373C474.874 704.354 468.963 695.984 463.5 685L462.276 682.539C443.709 645.215 432.694 623.072 422 582C411.283 540.843 408.132 516.529 408 474C419.322 453.895 427.588 435.977 435.406 419.031C449.835 387.755 462.736 359.791 490.5 327.5C511.483 303.096 533.232 289.741 555.027 276.357C576.537 263.148 598.091 249.912 619 226C622.303 222.222 625.45 218.686 628.459 215.307C646.693 194.824 659.817 180.081 671.5 152C686.88 115.031 693.905 89.7525 686 50.5C682.677 34.0014 672.594 14.585 663.865 0H735.061C746.977 22.313 755.5 42 755.5 42C755.5 42 757.611 93.3131 748 124C739.5 151.141 728.902 165.821 713.62 186.99C711.659 189.706 709.621 192.53 707.5 195.5C684.025 228.378 665.028 245.123 637.458 269.426C633.648 272.786 629.673 276.289 625.5 280C606.974 296.474 586.962 303.794 567.056 311.076C546.324 318.66 525.706 326.202 507 344C461.267 387.513 432.459 422.746 422 485C415.672 522.666 422.576 545.715 434.5 582C442.491 606.316 449.992 619.235 462.596 640.944L463.5 642.5C473.688 660.051 481.697 670.809 491.989 684.634L491.99 684.635C494.938 688.594 498.073 692.806 501.5 697.5C510.346 709.616 519.991 718.487 529.144 726.905C544.16 740.715 557.848 753.304 564.5 777C571.994 803.695 571.54 821.182 564.5 848Z" fill="#DFC89C"/>
<path fill-rule="evenodd" clip-rule="evenodd" d="M564.5 848C554.955 884.36 574 920.5 574 920.5L443 925C443 925 493.544 881.298 501.5 848C510.212 811.536 512.108 787.958 501.5 752C496.459 734.915 488.76 724.015 480.538 712.373C474.874 704.354 468.963 695.984 463.5 685L462.276 682.539C443.709 645.215 432.694 623.072 422 582C411.283 540.843 408.132 516.529 408 474C419.322 453.895 427.588 435.977 435.406 419.031C449.835 387.755 462.736 359.791 490.5 327.5C511.483 303.096 533.232 289.741 555.027 276.357C576.537 263.148 598.091 249.912 619 226C622.303 222.222 625.45 218.686 628.459 215.307C646.693 194.824 659.817 180.081 671.5 152C686.88 115.031 693.905 89.7525 686 50.5C682.677 34.0014 672.594 14.585 663.865 0H735.061C746.977 22.313 755.5 42 755.5 42C755.5 42 757.611 93.3131 748 124C739.5 151.141 728.902 165.821 713.62 186.99C711.659 189.706 709.621 192.53 707.5 195.5C684.025 228.378 665.028 245.123 637.458 269.426C633.648 272.786 629.673 276.289 625.5 280C606.974 296.474 586.962 303.794 567.056 311.076C546.324 318.66 525.706 326.202 507 344C461.267 387.513 432.459 422.746 422 485C415.672 522.666 422.576 545.715 434.5 582C442.491 606.316 449.992 619.235 462.596 640.944L463.5 642.5C473.688 660.051 481.697 670.809 491.989 684.634L491.99 684.635C494.938 688.594 498.073 692.806 501.5 697.5C510.346 709.616 519.991 718.487 529.144 726.905C544.16 740.715 557.848 753.304 564.5 777C571.994 803.695 571.54 821.182 564.5 848Z" fill="#203139"/>
<path fill-rule="evenodd" clip-rule="evenodd" d="M564.5 848C554.955 884.36 574 920.5 574 920.5L443 925C443 925 493.544 881.298 501.5 848C510.212 811.536 512.108 787.958 501.5 752C496.459 734.915 488.76 724.015 480.538 712.373C474.874 704.354 468.963 695.984 463.5 685L462.276 682.539C443.709 645.215 432.694 623.072 422 582C411.283 540.843 408.132 516.529 408 474C419.322 453.895 427.588 435.977 435.406 419.031C449.835 387.755 462.736 359.791 490.5 327.5C511.483 303.096 533.232 289.741 555.027 276.357C576.537 263.148 598.091 249.912 619 226C622.303 222.222 625.45 218.686 628.459 215.307C646.693 194.824 659.817 180.081 671.5 152C686.88 115.031 693.905 89.7525 686 50.5C682.677 34.0014 672.594 14.585 663.865 0H735.061C746.977 22.313 755.5 42 755.5 42C755.5 42 757.611 93.3131 748 124C739.5 151.141 728.902 165.821 713.62 186.99C711.659 189.706 709.621 192.53 707.5 195.5C684.025 228.378 665.028 245.123 637.458 269.426C633.648 272.786 629.673 276.289 625.5 280C606.974 296.474 586.962 303.794 567.056 311.076C546.324 318.66 525.706 326.202 507 344C461.267 387.513 432.459 422.746 422 485C415.672 522.666 422.576 545.715 434.5 582C442.491 606.316 449.992 619.235 462.596 640.944L463.5 642.5C473.688 660.051 481.697 670.809 491.989 684.634L491.99 684.635C494.938 688.594 498.073 692.806 501.5 697.5C510.346 709.616 519.991 718.487 529.144 726.905C544.16 740.715 557.848 753.304 564.5 777C571.994 803.695 571.54 821.182 564.5 848Z" fill="url(#paint18_linear_149_84)"/>
<path fill-rule="evenodd" clip-rule="evenodd" d="M789.084 0H735.061C746.977 22.313 755.5 42 755.5 42C755.5 42 757.611 93.3131 748 124C739.5 151.141 728.902 165.821 713.62 186.99C711.659 189.706 709.621 192.53 707.5 195.5C684.025 228.378 665.028 245.123 637.458 269.426C633.648 272.786 629.673 276.289 625.5 280C606.974 296.474 586.962 303.794 567.056 311.076C546.324 318.66 525.706 326.202 507 344C461.267 387.513 432.459 422.746 422 485C415.672 522.666 422.576 545.715 434.5 582C442.491 606.316 449.992 619.235 462.596 640.944L463.5 642.5C473.688 660.051 481.697 670.809 491.989 684.634L491.99 684.635C494.938 688.594 498.073 692.806 501.5 697.5C510.346 709.616 519.991 718.487 529.144 726.905C544.16 740.715 557.848 753.304 564.5 777C571.994 803.695 571.54 821.182 564.5 848C554.955 884.36 574 920.5 574 920.5L658.5 915.5C658.5 915.5 633.985 887.621 641 855C647.324 825.589 641.449 806.959 632.52 778.648L632 777C621.481 743.625 609.186 727.863 587.345 699.866C586.738 699.087 586.123 698.299 585.5 697.5C563.484 669.263 556.215 657.075 542.5 624C532.231 599.236 524.988 577.141 522 550.5C517.655 511.766 519.898 492.55 532 455.5C541.827 425.414 555.95 403.717 571.876 379.251C576.296 372.46 580.855 365.456 585.5 358C596.567 340.235 617.598 323.954 637.684 308.405C650.204 298.713 662.356 289.306 671.5 280C715.43 235.29 767.559 178.732 782 152C805.5 108.5 807.126 62.6996 793.5 14C792.113 9.04181 790.64 4.38865 789.084 0Z" fill="url(#paint19_linear_149_84)"/>
<path d="M248.006 1257.5C248.594 1202.24 264.006 1206.5 278.5 1111.5C223.048 1111.5 258.952 1083 203.5 1083C203.5 1143 168.506 1133.5 168.506 1257.5C168.506 1311.14 248.006 1369.5 248.006 1369.5C276.506 1414 271.41 1437.46 264.006 1483C257.006 1526.06 233.835 1541.89 214.506 1581C192.405 1625.72 157.724 1651.13 145.506 1699.5C136.086 1736.8 130.988 1762.38 145.506 1798C160.047 1833.67 188.238 1840.32 214.506 1868.5C248.474 1904.94 282.737 1917.25 298.506 1964.5C311.425 2003.21 310.652 2030.04 298.506 2069C284.653 2113.44 226.506 2164 226.506 2164H254.006C254.006 2164 330.422 2117.67 352.506 2069C369.532 2031.48 374.447 2005.02 367.006 1964.5C358.046 1915.7 298.506 1857.5 298.506 1857.5C298.506 1857.5 214.345 1824.92 188.006 1779C167.159 1742.66 160.027 1714.53 168.506 1673.5C180.69 1614.54 260.997 1588.05 288.507 1534.5C320.336 1472.54 310.601 1453.61 298.506 1386.5C286.347 1319.03 247.278 1326.05 248.006 1257.5Z" fill="url(#paint20_radial_149_84)"/>
<path d="M393.006 1926.5C363.426 1891.67 298.506 1857.5 298.506 1857.5C298.506 1857.5 358.046 1915.7 367.006 1964.5C374.447 2005.02 369.532 2031.48 352.506 2069C330.422 2117.67 254.006 2164 254.006 2164H393.006C393.006 2164 450.421 2088.76 446.506 2034C443.162 1987.23 423.363 1962.24 393.006 1926.5Z" fill="#D2A345"/>
<path d="M226.506 2164C226.506 2164 284.653 2113.44 298.506 2069C310.652 2030.04 311.425 2003.21 298.506 1964.5C282.737 1917.25 248.474 1904.94 214.506 1868.5C188.238 1840.32 160.047 1833.67 145.506 1798C130.988 1762.38 136.086 1736.8 145.506 1699.5C157.724 1651.13 192.405 1625.72 214.506 1581C233.835 1541.89 257.006 1526.06 264.006 1483C271.41 1437.46 276.506 1414 248.006 1369.5C248.006 1447 205.506 1514 205.506 1514C187.673 1547.5 112.406 1646.5 102.006 1658.5C89.0065 1673.5 65.0034 1728.6 69.5065 1776C74.9575 1833.37 122.006 1867.67 145.506 1902.5C169.006 1937.33 226.948 1923.89 254.006 1964.5C274.83 1995.75 281.748 2020.81 276.506 2058C268.98 2111.4 188.006 2164 188.006 2164H226.506Z" fill="url(#paint21_linear_149_84)"/>
<path d="M188.006 2090.5C167.612 2125.44 115.006 2164 115.006 2164H188.006C188.006 2164 268.98 2111.4 276.506 2058C281.748 2020.81 274.83 1995.75 254.006 1964.5C226.948 1923.89 169.006 1937.33 145.506 1902.5C122.006 1867.67 74.9575 1833.37 69.5065 1776C65.0034 1728.6 89.0065 1673.5 102.006 1658.5C112.406 1646.5 187.673 1547.5 205.506 1514C205.506 1514 248.006 1447 248.006 1369.5C248.006 1369.5 168.506 1311.14 168.506 1257.5C168.506 1133.5 203.5 1143 203.5 1083C178.504 1083 175.496 1083 150.5 1083C152.694 1137.4 102.006 1199.5 145.506 1297C169.653 1351.12 173.513 1387.95 168.506 1447C158.644 1563.32 27.1135 1584.25 8.50649 1699.5C0.974668 1746.15 -6.10572 1775.56 8.50649 1820.5C20.2322 1856.56 33.9245 1875.46 60.5065 1902.5C94.5988 1937.18 131.548 1932.89 168.506 1964.5C188.237 1981.38 207.255 1987.57 214.506 2012.5C223.492 2043.39 204.225 2062.72 188.006 2090.5Z" fill="url(#paint22_radial_149_84)"/>
<path d="M214.506 943.5C215.094 998.765 298.506 1004 278.5 1111.5C223.048 1111.5 258.952 1083 203.5 1083C208.5 1041 147.259 1028.3 145.506 989C144.017 955.586 155.353 937.252 168.506 906.5C189.599 857.184 248.006 794.5 248.006 794.5C276.506 750 271.41 726.544 264.006 681C257.006 637.937 233.835 622.113 214.506 583C192.405 538.278 157.724 512.866 145.506 464.5C136.086 427.205 130.988 401.622 145.506 366C160.047 330.325 188.238 323.68 214.506 295.5C248.474 259.061 282.737 246.754 298.506 199.5C311.425 160.789 310.652 133.961 298.506 95C284.653 50.5582 226.506 0 226.506 0H254.006C254.006 0 330.422 46.3341 352.506 95C369.532 132.518 374.447 158.977 367.006 199.5C358.046 248.3 298.506 306.5 298.506 306.5C298.506 306.5 214.345 339.084 188.006 385C167.159 421.343 160.027 449.469 168.506 490.5C180.69 549.456 260.997 575.951 288.507 629.5C320.336 691.457 310.601 710.394 298.506 777.5C286.347 844.969 213.778 874.948 214.506 943.5Z" fill="url(#paint23_radial_149_84)"/>
<path d="M393.006 237.5C363.426 272.328 298.506 306.5 298.506 306.5C298.506 306.5 358.046 248.3 367.006 199.5C374.447 158.977 369.532 132.518 352.506 95C330.422 46.3341 254.006 0 254.006 0H393.006C393.006 0 450.421 75.2405 446.506 130C443.162 176.774 423.363 201.759 393.006 237.5Z" fill="#D2A345"/>
<path d="M226.506 0C226.506 0 284.653 50.5582 298.506 95C310.652 133.961 311.425 160.789 298.506 199.5C282.737 246.754 248.474 259.061 214.506 295.5C188.238 323.68 160.047 330.325 145.506 366C130.988 401.622 136.086 427.205 145.506 464.5C157.724 512.866 192.405 538.278 214.506 583C233.835 622.113 257.006 637.937 264.006 681C271.41 726.544 276.506 750 248.006 794.5C248.006 717 205.506 650 205.506 650C187.673 616.5 112.406 517.5 102.006 505.5C89.0065 490.5 65.0034 435.396 69.5065 388C74.9575 330.627 122.006 296.333 145.506 261.5C169.006 226.667 226.948 240.114 254.006 199.5C274.83 168.245 281.748 143.189 276.506 106C268.98 52.6011 188.006 0 188.006 0H226.506Z" fill="url(#paint24_linear_149_84)"/>
<path d="M188.006 73.5C167.612 38.5619 115.006 0 115.006 0H188.006C188.006 0 268.98 52.6011 276.506 106C281.748 143.189 274.83 168.245 254.006 199.5C226.948 240.114 169.006 226.667 145.506 261.5C122.006 296.333 74.9575 330.627 69.5065 388C65.0034 435.396 89.0065 490.5 102.006 505.5C112.406 517.5 187.673 616.5 205.506 650C205.506 650 248.006 717 248.006 794.5C248.006 794.5 189.599 857.184 168.506 906.5C155.353 937.252 144.017 955.586 145.506 989C147.259 1028.3 208.5 1041 203.5 1083C178.504 1083 175.496 1083 150.5 1083C152.466 1028.59 88.2318 996.172 102.006 943.5C110.702 910.251 132.644 898.869 145.506 867C167.687 812.044 173.513 776.051 168.506 717C158.644 600.68 27.1135 579.745 8.50649 464.5C0.974668 417.851 -6.10572 388.437 8.50649 343.5C20.2322 307.439 33.9245 288.542 60.5065 261.5C94.5988 226.818 131.548 231.11 168.506 199.5C188.237 182.624 207.255 176.43 214.506 151.5C223.492 120.609 204.225 101.284 188.006 73.5Z" fill="url(#paint25_radial_149_84)"/>
<path d="M289 1375.5C280.796 1340.72 242.984 1303.72 213.5 1259C192.295 1243.32 196.5 1226.5 177 1193C151.109 1148.52 144.609 1138.1 138.5 1087C115.032 1087 119.468 1087 96 1087C105 1133.5 121.065 1166.65 138.5 1203C162.754 1253.56 213.5 1299.5 213.5 1299.5C213.5 1299.5 256.893 1361.67 251 1405C244.915 1449.74 214.859 1466.51 183 1498.5C135.051 1546.65 57.5 1564.5 26 1648.5C26 1781.67 26.5235 1798.1 34.9999 1931C50.0157 1953.63 57.0774 1967.53 66.4998 1993C79.4139 2027.91 86.8024 2049.32 84.9999 2086.5C83.4862 2117.72 64.9998 2164 64.9998 2164H94.9999C94.9999 2164 127.178 2110.13 125.5 2072.5C124.018 2039.28 110.333 2024.83 94.9999 1993C79.6665 1961.17 65.0001 1919.5 54.5 1873C44.3386 1828 48.9999 1792.24 48.9999 1740.5C52.5 1706 66.8333 1652.83 106.5 1627.5C146.167 1602.17 183 1599.5 213.5 1576C274.28 1529.17 277.5 1498.5 289 1467C300.5 1435.5 297.203 1410.28 289 1375.5Z" fill="url(#paint26_linear_149_84)"/>
<path d="M42.9999 2049.5C42.8166 2094.55 28.9999 2164 28.9999 2164H64.9998C64.9998 2164 83.4862 2117.72 84.9999 2086.5C86.8024 2049.32 79.4139 2027.91 66.4998 1993C57.0774 1967.53 50.0157 1953.63 34.9999 1931C46.0433 1976.27 43.1894 2002.9 42.9999 2049.5Z" fill="url(#paint27_linear_149_84)"/>
<path d="M59 1498.5C35.2604 1525.21 25.9999 1591.5 26 1648.5C57.5 1564.5 135.051 1546.65 183 1498.5C214.859 1466.51 244.915 1449.74 251 1405C256.893 1361.67 213.5 1299.5 213.5 1299.5C213.5 1299.5 162.754 1253.56 138.5 1203C121.065 1166.65 105 1133.5 96 1087C75.4975 1087 43.5 1087 43.5 1087C43.5 1087 45.5197 1132.22 77 1171.5C110.656 1213.5 156.381 1271.53 160 1332C162.571 1374.96 157.056 1391.13 130.5 1425C103.792 1459.07 78.9999 1476 59 1498.5Z" fill="url(#paint28_linear_149_84)"/>
<path d="M212.094 1171.5C213.5 1140.32 207.5 1103.5 207.5 1103.5C190 1094.5 167.24 1088.17 138.5 1087C144.609 1138.1 151.109 1148.52 177 1193C196.5 1226.5 192.295 1243.32 213.5 1259C207.5 1216.5 210.378 1209.53 212.094 1171.5Z" fill="#DFC89C"/>
<path d="M283 788.5C274.796 823.279 236.984 858.285 207.5 903C186.295 918.679 175.456 929.632 160 951C129.836 992.7 122.67 1038.03 138.5 1087C115.032 1087 119.468 1087 96 1087C94.0623 1046.73 100.815 1013.35 118.25 977C142.503 926.435 207.5 864.5 207.5 864.5C207.5 864.5 250.893 802.327 245 759C238.915 714.262 208.859 697.492 177 665.5C129.051 617.351 51.5 599.5 20 515.5C20 382.331 20.5235 365.899 28.9999 233C44.0157 210.37 51.0774 196.471 60.4998 171C73.4139 136.09 80.8024 114.678 78.9999 77.5C77.4862 46.2795 58.9998 0 58.9998 0H88.9999C88.9999 0 121.178 53.8716 119.5 91.5C118.018 124.72 104.333 139.167 88.9999 171C73.6665 202.833 59.0001 244.5 48.5 291C38.3386 336 42.9999 371.756 42.9999 423.5C46.5 458 60.8333 511.167 100.5 536.5C140.167 561.833 177 564.5 207.5 588C268.28 634.83 271.5 665.5 283 697C294.5 728.5 291.203 753.721 283 788.5Z" fill="url(#paint29_linear_149_84)"/>
<path d="M42.9999 114.5C42.8166 69.4523 28.9999 0 28.9999 0H58.9998C58.9998 0 77.4862 46.2795 78.9999 77.5C80.8024 114.678 73.4139 136.09 60.4998 171C51.0774 196.471 44.0157 210.37 28.9999 233C40.0433 187.729 43.1894 161.099 42.9999 114.5Z" fill="url(#paint30_linear_149_84)"/>
<path d="M59 665.5C35.2604 638.793 19.9999 572.5 20 515.5C51.5 599.5 129.051 617.351 177 665.5C208.859 697.492 238.915 714.262 245 759C250.893 802.327 207.5 864.5 207.5 864.5C207.5 864.5 142.503 926.435 118.25 977C100.815 1013.35 94.0623 1046.73 96 1087C75.4975 1087 43.5 1087 43.5 1087C43.5 1087 37.079 1035.82 59 990.5C85.3778 935.968 156.381 892.469 160 832C162.571 789.037 157.056 772.871 130.5 739C103.792 704.935 78.9999 688 59 665.5Z" fill="url(#paint31_linear_149_84)"/>
<path d="M196.5 1033C207.065 1076.83 207.5 1103.5 207.5 1103.5C190 1094.5 167.24 1088.17 138.5 1087C122.67 1038.03 129.836 992.7 160 951C175.456 929.632 186.295 918.679 207.5 903C199.885 940.295 183 977 196.5 1033Z" fill="#DFC89C"/>
<path d="M467 1174.5C470.887 1142.58 496.5 1127 511 1083.5C482 1138.01 453.435 1132.95 447 1169C440.978 1202.74 452.167 1238.83 458.5 1256C464.833 1273.17 475 1293 492.5 1320C510 1347 535.5 1376.83 549.5 1399C580.445 1430.02 603.673 1451.97 621.5 1492C638.61 1530.42 646.633 1554.26 641.5 1596C638.553 1619.96 638.194 1629.7 621.5 1654.5C606.615 1676.61 604.667 1681.5 566 1715C527.333 1748.5 457 1824.5 447 1830.5C447 1830.5 416.526 1862.5 397 1883C402.272 1939.63 407.523 1971.27 403.5 2028C399.643 2082.38 372 2164 372 2164H461C461 2164 461 2123.47 461 2097.5C461 2047.12 449.943 2017.65 461 1968.5C468.887 1933.44 479.682 1915.5 495 1883C518.212 1833.74 536.521 1808.78 566 1763C593.947 1719.6 622.789 1702.61 641.5 1654.5C657.441 1613.51 661.944 1587.45 660.5 1543.5C658.867 1493.79 650.545 1464.57 627.5 1420.5C603.505 1374.61 574.51 1359.48 541 1320C515.26 1289.67 491.323 1278.49 475.5 1242C462.87 1212.87 463.162 1206.02 467 1174.5Z" fill="url(#paint32_radial_149_84)"/>
<path d="M596.5 1567.5C576.583 1615.34 573.58 1645.36 548 1690C516.168 1745.55 447 1830.5 447 1830.5C457 1824.5 527.333 1748.5 566 1715C604.667 1681.5 606.615 1676.61 621.5 1654.5C638.194 1629.7 638.553 1619.96 641.5 1596C646.633 1554.26 638.61 1530.42 621.5 1492C603.673 1451.97 580.445 1430.02 549.5 1399C562.833 1425 590.93 1456.9 595.5 1500C598.291 1526.32 605.5 1540 596.5 1567.5Z" fill="url(#paint33_linear_149_84)"/>
<path d="M410.5 1743.5C380 1791 390.39 1812 397 1883C416.526 1862.5 447 1830.5 447 1830.5C447 1830.5 516.168 1745.55 548 1690C573.58 1645.36 576.583 1615.34 596.5 1567.5C595.153 1520.52 589.098 1493.16 570.5 1450C551.167 1405.13 526.699 1387.58 499.5 1347C475.861 1311.73 454.395 1295.95 440 1256C427.427 1221.11 425.709 1199.08 426.5 1162C427.132 1132.38 460.108 1112.06 468 1083.5C454.722 1083.5 468.278 1090 455 1090C457.275 1109.65 400.333 1162.5 397 1182C393.667 1201.5 392.58 1202.04 397 1229C402 1259.5 426 1290 438 1314C450 1338 470.206 1365.16 489 1399C503.332 1424.81 511.004 1439.49 524 1466C544 1500 544.904 1533.76 538.5 1577C531.285 1625.72 515.58 1653.51 482.5 1690C458.971 1715.95 442.138 1728.46 410.5 1743.5Z" fill="url(#paint34_linear_149_84)"/>
<path d="M461 1654.5C446.503 1693.26 439.873 1714.35 410.5 1743.5C442.138 1728.46 458.971 1715.95 482.5 1690C515.58 1653.51 531.285 1625.72 538.5 1577C544.904 1533.76 544 1500 524 1466C500.688 1438.25 481.37 1421.97 461 1392C435.882 1355.04 402.75 1293.5 402.75 1293.5C402.75 1293.5 374.641 1240.55 372 1203.5C368.654 1156.56 416.303 1112.94 413 1066C400.894 1066 384.106 1072 372 1072C377.875 1118.81 340 1156.32 340 1203.5C340 1250.68 354.442 1276.21 372 1320C391.092 1367.62 414.392 1388.24 435.5 1435C454.08 1476.16 470.648 1498.6 475.5 1543.5C480.197 1586.96 476.316 1613.55 461 1654.5Z" fill="url(#paint35_radial_149_84)"/>
<path d="M511 1083.5C471.752 1083.5 507.248 1083.5 468 1083.5C460.108 1112.06 427.132 1132.38 426.5 1162C425.709 1199.08 427.427 1221.11 440 1256C454.395 1295.95 475.861 1311.73 499.5 1347C526.699 1387.58 551.167 1405.13 570.5 1450C589.098 1493.16 595.153 1520.52 596.5 1567.5C605.5 1540 598.291 1526.32 595.5 1500C590.93 1456.9 562.833 1425 549.5 1399C535.5 1376.83 510 1347 492.5 1320C475 1293 464.833 1273.17 458.5 1256C452.167 1238.83 440.978 1202.74 447 1169C453.435 1132.95 482 1138.01 511 1083.5Z" fill="url(#paint36_radial_149_84)"/>
<path d="M413 1066C416.303 1112.94 368.654 1156.56 372 1203.5C374.641 1240.55 402.75 1293.5 402.75 1293.5C402.75 1293.5 435.882 1355.04 461 1392C481.37 1421.97 500.688 1438.25 524 1466C511.004 1439.49 503.332 1424.81 489 1399C470.206 1365.16 450 1338 438 1314C426 1290 402 1259.5 397 1229C392.58 1202.04 393.667 1201.5 397 1182C400.333 1162.5 457.275 1109.65 455 1090C441.917 1090 425.239 1061.38 413 1066Z" fill="url(#paint37_radial_149_84)"/>
<path d="M492.5 986C517 1027.5 529 1049 511 1083.5C504.326 1006.5 461.435 1014.55 455 978.5C448.978 944.762 452.167 925.167 458.5 908C464.833 890.833 475 871 492.5 844C510 817 535.5 787.167 549.5 765C580.445 733.98 603.673 712.026 621.5 672C638.61 633.584 646.633 609.74 641.5 568C638.553 544.037 638.194 534.3 621.5 509.5C606.615 487.387 604.667 482.5 566 449C527.333 415.5 450 339.5 440 333.5C440 333.5 409.526 301.503 390 281C395.272 224.374 407.523 192.728 403.5 136C399.643 81.6193 372 0 372 0H461C461 0 461 40.5301 461 66.5C461 116.878 449.943 146.351 461 195.5C468.887 230.557 479.682 248.496 495 281C518.212 330.256 536.521 355.219 566 401C593.947 444.401 622.789 461.39 641.5 509.5C657.441 550.488 661.944 576.545 660.5 620.5C658.867 670.206 650.545 699.428 627.5 743.5C603.505 789.389 574.51 804.521 541 844C515.26 874.325 491.323 885.506 475.5 922C462.87 951.131 476.358 958.658 492.5 986Z" fill="url(#paint38_radial_149_84)"/>
<path d="M589.5 596.5C569.583 548.661 566.58 518.643 541 474C509.168 418.446 440 333.5 440 333.5C450 339.5 527.333 415.5 566 449C604.667 482.5 606.615 487.387 621.5 509.5C638.194 534.3 638.553 544.037 641.5 568C646.633 609.74 638.61 633.584 621.5 672C603.673 712.026 580.445 733.98 549.5 765C562.833 739 590.93 707.1 595.5 664C598.291 637.683 598.5 624 589.5 596.5Z" fill="url(#paint39_linear_149_84)"/>
<path d="M403.5 420.5C373 373 383.39 352 390 281C409.526 301.503 440 333.5 440 333.5C440 333.5 509.168 418.446 541 474C566.58 518.643 569.583 548.661 589.5 596.5C588.153 643.477 582.098 670.84 563.5 714C544.167 758.866 519.699 776.417 492.5 817C468.861 852.271 447.395 868.055 433 908C420.427 942.89 418.709 964.923 419.5 1002C420.132 1031.62 484 1056.5 468 1083.5C454.722 1083.5 468.278 1090 455 1090C454.253 1070.23 392.333 1026 389 1006.5C385.667 987 379.58 961.961 384 935C389 904.5 413 874 425 850C437 826 457.206 798.843 476 765C490.332 739.192 498.004 724.506 511 698C531 664 537.904 630.245 531.5 587C524.285 538.28 508.58 510.488 475.5 474C451.971 448.047 435.138 435.539 403.5 420.5Z" fill="url(#paint40_linear_149_84)"/>
<path d="M461 509.5C446.503 470.743 432.873 449.646 403.5 420.5C435.138 435.539 451.971 448.047 475.5 474C508.58 510.488 524.285 538.28 531.5 587C537.904 630.245 531 664 511 698C487.688 725.748 475.37 742.025 455 772C429.882 808.963 396.75 870.5 396.75 870.5C396.75 870.5 368.641 923.452 366 960.5C362.654 1007.44 411.564 1018.97 413 1066C400.894 1066 384.106 1072 372 1072C341 1026 340 1007.68 340 960.5C340 913.319 354.442 887.792 372 844C391.092 796.383 414.392 775.759 435.5 729C454.08 687.84 470.648 665.398 475.5 620.5C480.197 577.037 476.316 550.446 461 509.5Z" fill="url(#paint41_radial_149_84)"/>
<path d="M511 1083.5C471.752 1083.5 507.248 1083.5 468 1083.5C484 1056.5 420.132 1031.62 419.5 1002C418.709 964.923 420.427 942.89 433 908C447.395 868.055 468.861 852.271 492.5 817C519.699 776.417 544.167 758.866 563.5 714C582.098 670.84 588.153 643.477 589.5 596.5C598.5 624 598.291 637.683 595.5 664C590.93 707.1 562.833 739 549.5 765C535.5 787.167 510 817 492.5 844C475 871 464.833 890.833 458.5 908C452.167 925.167 448.978 944.762 455 978.5C461.435 1014.55 504.326 1006.5 511 1083.5Z" fill="url(#paint42_radial_149_84)"/>
<path d="M413 1066C411.564 1018.97 362.654 1007.44 366 960.5C368.641 923.452 396.75 870.5 396.75 870.5C396.75 870.5 429.882 808.963 455 772C475.37 742.025 487.688 725.748 511 698C498.004 724.506 490.332 739.192 476 765C457.206 798.843 437 826 425 850C413 874 389 904.5 384 935C379.58 961.961 385.667 987 389 1006.5C392.333 1026 454.253 1070.23 455 1090C441.917 1090 425.239 1061.38 413 1066Z" fill="url(#paint43_radial_149_84)"/>
<defs>
<linearGradient id="paint0_linear_149_84" x1="354" y1="1306.24" x2="97.7207" y2="1067.01" gradientUnits="userSpaceOnUse">
<stop stop-color="#235760"/>
<stop offset="1" stop-color="#6D988E"/>
</linearGradient>
<linearGradient id="paint1_linear_149_84" x1="253.5" y1="1082" x2="428.969" y2="1065.67" gradientUnits="userSpaceOnUse">
<stop stop-color="#203139"/>
<stop offset="1" stop-color="#3B8381"/>
</linearGradient>
<linearGradient id="paint2_linear_149_84" x1="353.632" y1="1076" x2="353.632" y2="0" gradientUnits="userSpaceOnUse">
<stop stop-color="#6D988E"/>
<stop offset="1" stop-color="#78A898"/>
</linearGradient>
<linearGradient id="paint3_linear_149_84" x1="354" y1="1306.24" x2="97.7207" y2="1067.01" gradientUnits="userSpaceOnUse">
<stop stop-color="#235760"/>
<stop offset="1" stop-color="#6D988E"/>
</linearGradient>
<linearGradient id="paint4_linear_149_84" x1="253.5" y1="1082" x2="428.969" y2="1065.67" gradientUnits="userSpaceOnUse">
<stop stop-color="#203139"/>
<stop offset="1" stop-color="#3B8381"/>
</linearGradient>
<linearGradient id="paint5_linear_149_84" x1="353.632" y1="1076" x2="353.632" y2="0" gradientUnits="userSpaceOnUse">
<stop stop-color="#6D988E"/>
<stop offset="1" stop-color="#78A898"/>
</linearGradient>
<linearGradient id="paint6_linear_149_84" x1="802" y1="728.346" x2="618.146" y2="685.353" gradientUnits="userSpaceOnUse">
<stop stop-color="#3B8381"/>
<stop offset="1" stop-color="#78A898"/>
</linearGradient>
<linearGradient id="paint7_linear_149_84" x1="667.5" y1="612.131" x2="454.572" y2="606.631" gradientUnits="userSpaceOnUse">
<stop stop-color="#DFC89C"/>
<stop offset="1" stop-color="#235760"/>
</linearGradient>
<linearGradient id="paint8_linear_149_84" x1="466" y1="577.466" x2="629.18" y2="536.927" gradientUnits="userSpaceOnUse">
<stop stop-color="#BAB694"/>
<stop offset="1" stop-color="#3B8381"/>
</linearGradient>
<linearGradient id="paint9_linear_149_84" x1="775.5" y1="1381.55" x2="518.92" y2="284.918" gradientUnits="userSpaceOnUse">
<stop stop-color="#235760"/>
<stop offset="1" stop-color="#6D988E"/>
</linearGradient>
<linearGradient id="paint10_linear_149_84" x1="488" y1="274.507" x2="754.328" y2="298.535" gradientUnits="userSpaceOnUse">
<stop stop-color="#78A898"/>
<stop offset="1" stop-color="#DFC89C"/>
</linearGradient>
<linearGradient id="paint11_linear_149_84" x1="466" y1="2297" x2="605" y2="2228" gradientUnits="userSpaceOnUse">
<stop stop-color="#BAB694"/>
<stop offset="1" stop-color="#3B8381"/>
</linearGradient>
<linearGradient id="paint12_linear_149_84" x1="775.5" y1="1381.55" x2="518.92" y2="284.918" gradientUnits="userSpaceOnUse">
<stop stop-color="#235760"/>
<stop offset="1" stop-color="#6D988E"/>
</linearGradient>
<linearGradient id="paint13_linear_149_84" x1="802" y1="728.346" x2="618.146" y2="685.353" gradientUnits="userSpaceOnUse">
<stop stop-color="#3B8381"/>
<stop offset="1" stop-color="#78A898"/>
</linearGradient>
<linearGradient id="paint14_linear_149_84" x1="488" y1="274.507" x2="754.328" y2="298.535" gradientUnits="userSpaceOnUse">
<stop stop-color="#78A898"/>
<stop offset="1" stop-color="#DFC89C"/>
</linearGradient>
<linearGradient id="paint15_linear_149_84" x1="667.5" y1="612.131" x2="454.572" y2="606.631" gradientUnits="userSpaceOnUse">
<stop stop-color="#DFC89C"/>
<stop offset="1" stop-color="#235760"/>
</linearGradient>
<linearGradient id="paint16_linear_149_84" x1="667.5" y1="612.131" x2="454.572" y2="606.631" gradientUnits="userSpaceOnUse">
<stop stop-color="#DFC89C"/>
<stop offset="1" stop-color="#235760"/>
</linearGradient>
<linearGradient id="paint17_linear_149_84" x1="488" y1="274.507" x2="754.328" y2="298.535" gradientUnits="userSpaceOnUse">
<stop stop-color="#78A898"/>
<stop offset="1" stop-color="#DFC89C"/>
</linearGradient>
<linearGradient id="paint18_linear_149_84" x1="775.5" y1="1381.55" x2="518.92" y2="284.918" gradientUnits="userSpaceOnUse">
<stop stop-color="#235760"/>
<stop offset="1" stop-color="#6D988E"/>
</linearGradient>
<linearGradient id="paint19_linear_149_84" x1="802" y1="728.346" x2="618.146" y2="685.353" gradientUnits="userSpaceOnUse">
<stop stop-color="#3B8381"/>
<stop offset="1" stop-color="#78A898"/>
</linearGradient>
<radialGradient id="paint20_radial_149_84" cx="0" cy="0" r="1" gradientUnits="userSpaceOnUse" gradientTransform="translate(319.5 1863.72) rotate(-165.329) scale(391.256 1253.85)">
<stop stop-color="#C88631"/>
<stop offset="1" stop-color="#E9D6AB"/>
</radialGradient>
<linearGradient id="paint21_linear_149_84" x1="43" y1="1377.27" x2="518.886" y2="1554.29" gradientUnits="userSpaceOnUse">
<stop offset="0.106062" stop-color="#9F4222"/>
<stop offset="0.672496" stop-color="#D9B152"/>
</linearGradient>
<radialGradient id="paint22_radial_149_84" cx="0" cy="0" r="1" gradientUnits="userSpaceOnUse" gradientTransform="translate(68 1532.42) rotate(79.4192) scale(601.779 136.817)">
<stop stop-color="#8B251F"/>
<stop offset="1" stop-color="#A1411B"/>
</radialGradient>
<radialGradient id="paint23_radial_149_84" cx="0" cy="0" r="1" gradientUnits="userSpaceOnUse" gradientTransform="translate(319.5 1863.72) rotate(-165.329) scale(391.256 1253.85)">
<stop stop-color="#C88631"/>
<stop offset="1" stop-color="#E9D6AB"/>
</radialGradient>
<linearGradient id="paint24_linear_149_84" x1="43" y1="1377.27" x2="518.886" y2="1554.29" gradientUnits="userSpaceOnUse">
<stop offset="0.106062" stop-color="#9F4222"/>
<stop offset="0.672496" stop-color="#D9B152"/>
</linearGradient>
<radialGradient id="paint25_radial_149_84" cx="0" cy="0" r="1" gradientUnits="userSpaceOnUse" gradientTransform="translate(68 1532.42) rotate(79.4192) scale(601.779 136.817)">
<stop stop-color="#8B251F"/>
<stop offset="1" stop-color="#A1411B"/>
</radialGradient>
<linearGradient id="paint26_linear_149_84" x1="275.5" y1="738.5" x2="35" y2="152.5" gradientUnits="userSpaceOnUse">
<stop stop-color="#BAB694"/>
<stop offset="1" stop-color="#3B8381"/>
</linearGradient>
<linearGradient id="paint27_linear_149_84" x1="275.5" y1="738.5" x2="35" y2="152.5" gradientUnits="userSpaceOnUse">
<stop stop-color="#BAB694"/>
<stop offset="1" stop-color="#3B8381"/>
</linearGradient>
<linearGradient id="paint28_linear_149_84" x1="-91.9294" y1="883.902" x2="373.197" y2="793.528" gradientUnits="userSpaceOnUse">
<stop stop-color="#3B8381"/>
<stop offset="1" stop-color="#6D988E"/>
</linearGradient>
<linearGradient id="paint29_linear_149_84" x1="275.5" y1="738.5" x2="35" y2="152.5" gradientUnits="userSpaceOnUse">
<stop stop-color="#BAB694"/>
<stop offset="1" stop-color="#3B8381"/>
</linearGradient>
<linearGradient id="paint30_linear_149_84" x1="275.5" y1="738.5" x2="35" y2="152.5" gradientUnits="userSpaceOnUse">
<stop stop-color="#BAB694"/>
<stop offset="1" stop-color="#3B8381"/>
</linearGradient>
<linearGradient id="paint31_linear_149_84" x1="-91.9294" y1="883.902" x2="373.197" y2="793.528" gradientUnits="userSpaceOnUse">
<stop stop-color="#3B8381"/>
<stop offset="1" stop-color="#6D988E"/>
</linearGradient>
<radialGradient id="paint32_radial_149_84" cx="0" cy="0" r="1" gradientUnits="userSpaceOnUse" gradientTransform="translate(455.792 127) rotate(77.3464) scale(936.752 552.265)">
<stop stop-color="#603040"/>
<stop offset="1" stop-color="#A1411B"/>
</radialGradient>
<linearGradient id="paint33_linear_149_84" x1="444.5" y1="841.89" x2="977.628" y2="1300.98" gradientUnits="userSpaceOnUse">
<stop offset="0.106062" stop-color="#9F4222"/>
<stop offset="0.595" stop-color="#673543"/>
</linearGradient>
<linearGradient id="paint34_linear_149_84" x1="661" y1="686" x2="457.5" y2="671.5" gradientUnits="userSpaceOnUse">
<stop offset="0.106062" stop-color="#9F4222"/>
<stop offset="0.672496" stop-color="#D9B152"/>
</linearGradient>
<radialGradient id="paint35_radial_149_84" cx="0" cy="0" r="1" gradientUnits="userSpaceOnUse" gradientTransform="translate(661 703.25) rotate(-128.875) scale(468.435 592.153)">
<stop stop-color="#8B251F"/>
<stop offset="1" stop-color="#AC5A2C"/>
</radialGradient>
<radialGradient id="paint36_radial_149_84" cx="0" cy="0" r="1" gradientUnits="userSpaceOnUse" gradientTransform="translate(605.5 1046.84) rotate(111.481) scale(861.551 1386.54)">
<stop stop-color="#C88631"/>
<stop offset="1" stop-color="#E9D6AB"/>
</radialGradient>
<radialGradient id="paint37_radial_149_84" cx="0" cy="0" r="1" gradientUnits="userSpaceOnUse" gradientTransform="translate(500.377 1082) rotate(-180) scale(326.877 443.425)">
<stop offset="0.242933" stop-color="#673543"/>
<stop offset="1" stop-color="#D9B152"/>
</radialGradient>
<radialGradient id="paint38_radial_149_84" cx="0" cy="0" r="1" gradientUnits="userSpaceOnUse" gradientTransform="translate(444.5 2056.5) rotate(-85.0982) scale(1457.04 857.351)">
<stop stop-color="#603040"/>
<stop offset="1" stop-color="#A1411B"/>
</radialGradient>
<linearGradient id="paint39_linear_149_84" x1="444.5" y1="841.89" x2="977.628" y2="1300.98" gradientUnits="userSpaceOnUse">
<stop offset="0.106062" stop-color="#9F4222"/>
<stop offset="0.672496" stop-color="#D9B152"/>
</linearGradient>
<linearGradient id="paint40_linear_149_84" x1="589" y1="625.5" x2="353" y2="666" gradientUnits="userSpaceOnUse">
<stop offset="0.106062" stop-color="#9F4222"/>
<stop offset="0.672496" stop-color="#D9B152"/>
</linearGradient>
<radialGradient id="paint41_radial_149_84" cx="0" cy="0" r="1" gradientUnits="userSpaceOnUse" gradientTransform="translate(661 703.25) rotate(-128.875) scale(468.435 592.153)">
<stop stop-color="#8B251F"/>
<stop offset="1" stop-color="#AC5A2C"/>
</radialGradient>
<radialGradient id="paint42_radial_149_84" cx="0" cy="0" r="1" gradientUnits="userSpaceOnUse" gradientTransform="translate(468.5 1102) rotate(-78.3435) scale(324.186 521.73)">
<stop stop-color="#CE9447"/>
<stop offset="0.765308" stop-color="#673543"/>
</radialGradient>
<radialGradient id="paint43_radial_149_84" cx="0" cy="0" r="1" gradientUnits="userSpaceOnUse" gradientTransform="translate(500.377 1082) rotate(-180) scale(326.877 443.425)">
<stop offset="0.242933" stop-color="#673543"/>
<stop offset="1" stop-color="#D9B152"/>
</radialGradient>
</defs>
</svg>
