<svg width="140" height="7" viewBox="0 0 140 7" fill="none" xmlns="http://www.w3.org/2000/svg">
<path d="M119.988 5.21343C120.007 5.24741 120.019 5.28514 120.021 5.32397C120.008 5.30884 119.999 5.2912 119.993 5.27217C119.987 5.25315 119.986 5.23314 119.988 5.21343Z" fill="black"/>
<path d="M119.988 5.21343C120.007 5.24741 120.019 5.28514 120.021 5.32397C120.008 5.30884 119.999 5.2912 119.993 5.27217C119.987 5.25315 119.986 5.23314 119.988 5.21343Z" fill="url(#paint0_linear_164_114)"/>
<path d="M104.193 5.30303L104.374 5.36323C104.243 5.34918 104.21 5.32904 104.193 5.30303Z" fill="black"/>
<path d="M104.193 5.30303L104.374 5.36323C104.243 5.34918 104.21 5.32904 104.193 5.30303Z" fill="url(#paint1_linear_164_114)"/>
<path d="M129.464 5.32734C129.464 5.32734 129.463 5.31127 129.441 5.3013L130.109 5.3048L129.464 5.32734Z" fill="black"/>
<path d="M129.464 5.32734C129.464 5.32734 129.463 5.31127 129.441 5.3013L130.109 5.3048L129.464 5.32734Z" fill="url(#paint2_linear_164_114)"/>
<path d="M89.5488 5.13075L89.7592 5.13937C89.689 5.14581 89.6182 5.14291 89.5488 5.13075Z" fill="black"/>
<path d="M89.5488 5.13075L89.7592 5.13937C89.689 5.14581 89.6182 5.14291 89.5488 5.13075Z" fill="url(#paint3_linear_164_114)"/>
<path d="M104.027 4.67077C103.944 4.62254 103.852 4.59369 103.756 4.58638C103.89 4.57902 103.992 4.59422 104.027 4.67077Z" fill="black"/>
<path d="M104.027 4.67077C103.944 4.62254 103.852 4.59369 103.756 4.58638C103.89 4.57902 103.992 4.59422 104.027 4.67077Z" fill="url(#paint4_linear_164_114)"/>
<path d="M134.493 3.57214L134.23 3.73417C134.233 3.65631 134.324 3.59143 134.493 3.57214Z" fill="black"/>
<path d="M134.493 3.57214L134.23 3.73417C134.233 3.65631 134.324 3.59143 134.493 3.57214Z" fill="url(#paint5_linear_164_114)"/>
<path d="M137.764 0.478447C137.777 0.476179 137.791 0.475711 137.804 0.477057C137.804 0.484519 137.787 0.48264 137.764 0.478447Z" fill="black"/>
<path d="M137.764 0.478447C137.777 0.476179 137.791 0.475711 137.804 0.477057C137.804 0.484519 137.787 0.48264 137.764 0.478447Z" fill="url(#paint6_linear_164_114)"/>
<path d="M139.26 2.72433C139.218 2.7915 139.174 2.85656 139.126 2.91929C139.115 2.93323 139.105 2.94706 139.094 2.96077C139.107 2.93447 139.12 2.90609 139.132 2.87843C139.143 2.85197 139.155 2.82617 139.167 2.80345C139.192 2.75369 139.221 2.71876 139.26 2.72433Z" fill="black"/>
<path d="M139.26 2.72433C139.218 2.7915 139.174 2.85656 139.126 2.91929C139.115 2.93323 139.105 2.94706 139.094 2.96077C139.107 2.93447 139.12 2.90609 139.132 2.87843C139.143 2.85197 139.155 2.82617 139.167 2.80345C139.192 2.75369 139.221 2.71876 139.26 2.72433Z" fill="url(#paint7_linear_164_114)"/>
<path d="M139.008 3.0301L139.093 2.92609C139.087 2.93571 139.083 2.94509 139.078 2.95403C139.051 3.00559 139.032 3.04289 139.008 3.0301Z" fill="black"/>
<path d="M139.008 3.0301L139.093 2.92609C139.087 2.93571 139.083 2.94509 139.078 2.95403C139.051 3.00559 139.032 3.04289 139.008 3.0301Z" fill="url(#paint8_linear_164_114)"/>
<path d="M1.56115 5.72011C1.39993 5.71583 1.24032 5.69131 1.08598 5.64743C0.985813 5.61894 0.887865 5.58231 0.793148 5.53775L0.93688 5.57188L1.56115 5.72011Z" fill="black"/>
<path d="M1.56115 5.72011C1.39993 5.71583 1.24032 5.69131 1.08598 5.64743C0.985813 5.61894 0.887865 5.58231 0.793148 5.53775L0.93688 5.57188L1.56115 5.72011Z" fill="url(#paint9_linear_164_114)"/>
<path d="M67.5301 4.95067L67.5849 5.01155C67.534 4.99072 67.5257 4.97091 67.5301 4.95067Z" fill="black"/>
<path d="M67.5301 4.95067L67.5849 5.01155C67.534 4.99072 67.5257 4.97091 67.5301 4.95067Z" fill="url(#paint10_linear_164_114)"/>
<path d="M1.16681 4.66913L1.0043 4.70396L0.9741 4.71043C0.982243 4.70701 0.990461 4.7038 0.998747 4.70079C1.05264 4.68126 1.10939 4.67054 1.16681 4.66913Z" fill="black"/>
<path d="M1.16681 4.66913L1.0043 4.70396L0.9741 4.71043C0.982243 4.70701 0.990461 4.7038 0.998747 4.70079C1.05264 4.68126 1.10939 4.67054 1.16681 4.66913Z" fill="url(#paint11_linear_164_114)"/>
<path d="M129.486 3.27772C129.438 3.2489 129.381 3.23007 129.32 3.21782C129.032 3.16005 128.648 3.24853 128.655 3.12439C128.871 3.15269 129.155 3.10318 129.339 3.16519C129.402 3.18668 129.454 3.22157 129.486 3.27772Z" fill="black"/>
<path d="M129.486 3.27772C129.438 3.2489 129.381 3.23007 129.32 3.21782C129.032 3.16005 128.648 3.24853 128.655 3.12439C128.871 3.15269 129.155 3.10318 129.339 3.16519C129.402 3.18668 129.454 3.22157 129.486 3.27772Z" fill="url(#paint12_linear_164_114)"/>
<path d="M62.8855 0.808441L62.7044 0.801467C62.7648 0.798228 62.8254 0.800563 62.8855 0.808441Z" fill="black"/>
<path d="M62.8855 0.808441L62.7044 0.801467C62.7648 0.798228 62.8254 0.800563 62.8855 0.808441Z" fill="url(#paint13_linear_164_114)"/>
<path d="M1.16922 4.67438L1.39281 4.62634C1.37399 4.65581 1.35251 4.68349 1.32865 4.70904C1.27813 4.68764 1.22406 4.67588 1.16922 4.67438Z" fill="black"/>
<path d="M1.16922 4.67438L1.39281 4.62634C1.37399 4.65581 1.35251 4.68349 1.32865 4.70904C1.27813 4.68764 1.22406 4.67588 1.16922 4.67438Z" fill="url(#paint14_linear_164_114)"/>
<path d="M43.3396 5.33396L43.6979 5.38045C43.5766 5.40358 43.4511 5.38729 43.3396 5.33396Z" fill="black"/>
<path d="M43.3396 5.33396L43.6979 5.38045C43.5766 5.40358 43.4511 5.38729 43.3396 5.33396Z" fill="url(#paint15_linear_164_114)"/>
<path d="M0.79393 5.5833L0.3558 5.47792C0.506066 5.49231 0.653557 5.52778 0.79393 5.5833Z" fill="black"/>
<path d="M0.79393 5.5833L0.3558 5.47792C0.506066 5.49231 0.653557 5.52778 0.79393 5.5833Z" fill="url(#paint16_linear_164_114)"/>
<path d="M30.2334 5.42186C30.2891 5.41991 30.3449 5.41796 30.3988 5.43736C30.3432 5.44259 30.287 5.43733 30.2334 5.42186Z" fill="black"/>
<path d="M30.2334 5.42186C30.2891 5.41991 30.3449 5.41796 30.3988 5.43736C30.3432 5.44259 30.287 5.43733 30.2334 5.42186Z" fill="url(#paint17_linear_164_114)"/>
<path d="M104.902 4.62414C104.931 4.62313 104.965 4.61463 104.999 4.60625C105.016 4.60223 105.032 4.59825 105.047 4.59513C105.064 4.63176 105.055 4.65604 104.902 4.62414Z" fill="black"/>
<path d="M104.902 4.62414C104.931 4.62313 104.965 4.61463 104.999 4.60625C105.016 4.60223 105.032 4.59825 105.047 4.59513C105.064 4.63176 105.055 4.65604 104.902 4.62414Z" fill="url(#paint18_linear_164_114)"/>
<path d="M96.4597 1.88267C96.2731 1.88967 96.0889 1.84675 95.9258 1.75967C95.88 1.73524 95.8359 1.70734 95.7938 1.67608C96.0317 1.67596 96.264 1.74753 96.4597 1.88267Z" fill="black"/>
<path d="M96.4597 1.88267C96.2731 1.88967 96.0889 1.84675 95.9258 1.75967C95.88 1.73524 95.8359 1.70734 95.7938 1.67608C96.0317 1.67596 96.264 1.74753 96.4597 1.88267Z" fill="url(#paint19_linear_164_114)"/>
<path d="M94.8597 1.73562L94.9389 1.71956C94.9135 1.72892 94.8868 1.73434 94.8597 1.73562Z" fill="black"/>
<path d="M94.8597 1.73562L94.9389 1.71956C94.9135 1.72892 94.8868 1.73434 94.8597 1.73562Z" fill="url(#paint20_linear_164_114)"/>
<path d="M104.644 1.75569C104.645 1.76057 104.645 1.76555 104.644 1.77048L104.644 1.75569Z" fill="black"/>
<path d="M104.644 1.75569C104.645 1.76057 104.645 1.76555 104.644 1.77048L104.644 1.75569Z" fill="url(#paint21_linear_164_114)"/>
<path d="M102.721 1.67793C102.672 1.7062 102.619 1.72646 102.564 1.73799C102.555 1.73984 102.546 1.74147 102.537 1.74286C102.553 1.73353 102.568 1.72509 102.585 1.71758C102.628 1.6977 102.674 1.68431 102.721 1.67793Z" fill="black"/>
<path d="M102.721 1.67793C102.672 1.7062 102.619 1.72646 102.564 1.73799C102.555 1.73984 102.546 1.74147 102.537 1.74286C102.553 1.73353 102.568 1.72509 102.585 1.71758C102.628 1.6977 102.674 1.68431 102.721 1.67793Z" fill="url(#paint22_linear_164_114)"/>
<path d="M104.93 1.75588L104.663 1.77754L104.657 1.77803L104.582 1.78411C104.58 1.73054 104.578 1.66625 104.41 1.60509L104.93 1.75588Z" fill="black"/>
<path d="M104.93 1.75588L104.663 1.77754L104.657 1.77803L104.582 1.78411C104.58 1.73054 104.578 1.66625 104.41 1.60509L104.93 1.75588Z" fill="url(#paint23_linear_164_114)"/>
<path d="M93.0344 1.56285C92.9913 1.54403 92.9503 1.52048 92.9123 1.49264C92.9952 1.50571 93.0231 1.54197 93.0344 1.56285Z" fill="black"/>
<path d="M93.0344 1.56285C92.9913 1.54403 92.9503 1.52048 92.9123 1.49264C92.9952 1.50571 93.0231 1.54197 93.0344 1.56285Z" fill="url(#paint24_linear_164_114)"/>
<path d="M90.1338 1.15271C90.3456 1.19996 90.2428 1.24666 90.121 1.29282C90.1049 1.29892 90.0885 1.305 90.0725 1.31108C90.0549 1.31771 90.0378 1.32432 90.022 1.33093C90.0177 1.28281 90.0344 1.22323 90.1338 1.15271Z" fill="black"/>
<path d="M90.1338 1.15271C90.3456 1.19996 90.2428 1.24666 90.121 1.29282C90.1049 1.29892 90.0885 1.305 90.0725 1.31108C90.0549 1.31771 90.0378 1.32432 90.022 1.33093C90.0177 1.28281 90.0344 1.22323 90.1338 1.15271Z" fill="url(#paint25_linear_164_114)"/>
<path d="M101.009 2.82329C100.95 2.79876 100.914 2.76544 100.926 2.7145C101.004 2.75963 101.022 2.7936 101.009 2.82329Z" fill="black"/>
<path d="M101.009 2.82329C100.95 2.79876 100.914 2.76544 100.926 2.7145C101.004 2.75963 101.022 2.7936 101.009 2.82329Z" fill="url(#paint26_linear_164_114)"/>
<path d="M126.661 3.19983L126.558 3.23267C126.588 3.21226 126.624 3.20088 126.661 3.19983Z" fill="black"/>
<path d="M126.661 3.19983L126.558 3.23267C126.588 3.21226 126.624 3.20088 126.661 3.19983Z" fill="url(#paint27_linear_164_114)"/>
<path d="M125.226 3.45839C125.128 3.45433 125.031 3.43881 124.937 3.41215C125.036 3.40378 125.135 3.41966 125.226 3.45839Z" fill="black"/>
<path d="M125.226 3.45839C125.128 3.45433 125.031 3.43881 124.937 3.41215C125.036 3.40378 125.135 3.41966 125.226 3.45839Z" fill="url(#paint28_linear_164_114)"/>
<path d="M107.125 2.23244C107.029 2.2266 106.936 2.19764 106.854 2.14804C106.951 2.146 107.046 2.17562 107.125 2.23244Z" fill="black"/>
<path d="M107.125 2.23244C107.029 2.2266 106.936 2.19764 106.854 2.14804C106.951 2.146 107.046 2.17562 107.125 2.23244Z" fill="url(#paint29_linear_164_114)"/>
<path d="M124.642 3.37715L124.283 3.38969C124.281 3.3737 124.281 3.35756 124.282 3.34147L124.642 3.37715Z" fill="black"/>
<path d="M124.642 3.37715L124.283 3.38969C124.281 3.3737 124.281 3.35756 124.282 3.34147L124.642 3.37715Z" fill="url(#paint30_linear_164_114)"/>
<path d="M127.111 3.1971C126.961 3.19445 126.811 3.1997 126.661 3.21281C126.805 3.15752 126.964 3.15198 127.111 3.1971Z" fill="black"/>
<path d="M127.111 3.1971C126.961 3.19445 126.811 3.1997 126.661 3.21281C126.805 3.15752 126.964 3.15198 127.111 3.1971Z" fill="url(#paint31_linear_164_114)"/>
<path d="M110.408 3.21674L110.371 3.21804C110.098 3.09459 110.27 3.14444 110.408 3.21674Z" fill="black"/>
<path d="M110.408 3.21674L110.371 3.21804C110.098 3.09459 110.27 3.14444 110.408 3.21674Z" fill="url(#paint32_linear_164_114)"/>
<path d="M123.095 3.03381L123.047 3.03548L122.946 2.96454L123.095 3.03381Z" fill="black"/>
<path d="M123.095 3.03381L123.047 3.03548L122.946 2.96454L123.095 3.03381Z" fill="url(#paint33_linear_164_114)"/>
<path d="M128.651 3.16125C128.589 3.15768 128.53 3.14069 128.476 3.11149L128.678 3.10444C128.664 3.1208 128.655 3.14033 128.651 3.16125Z" fill="black"/>
<path d="M128.651 3.16125C128.589 3.15768 128.53 3.14069 128.476 3.11149L128.678 3.10444C128.664 3.1208 128.655 3.14033 128.651 3.16125Z" fill="url(#paint34_linear_164_114)"/>
<path d="M115.794 3.00038C115.893 3.09533 115.927 3.15531 115.929 3.20313C115.811 3.19393 115.738 3.15127 115.794 3.00038Z" fill="black"/>
<path d="M115.794 3.00038C115.893 3.09533 115.927 3.15531 115.929 3.20313C115.811 3.19393 115.738 3.15127 115.794 3.00038Z" fill="url(#paint35_linear_164_114)"/>
<path fill-rule="evenodd" clip-rule="evenodd" d="M90.068 1.29119C90.0693 1.29804 90.0709 1.30467 90.0725 1.31108L90.121 1.29282C90.1043 1.29185 90.0867 1.29129 90.068 1.29119ZM95.7938 1.67608C95.8359 1.70734 95.88 1.73524 95.9258 1.75967C95.9369 1.73473 95.9401 1.70809 95.9279 1.67924C95.8842 1.67508 95.84 1.67496 95.7938 1.67608ZM102.585 1.71758C102.568 1.72509 102.553 1.73353 102.537 1.74286C102.546 1.74147 102.555 1.73984 102.564 1.73799C102.573 1.73072 102.582 1.72381 102.593 1.71733C102.591 1.71741 102.588 1.7175 102.585 1.71758ZM104.658 1.79382C104.658 1.78858 104.657 1.78331 104.657 1.77803L104.663 1.77754C104.661 1.77297 104.659 1.76821 104.657 1.76326C104.657 1.77345 104.657 1.7837 104.658 1.79382ZM122.921 2.99895C122.921 2.99908 122.921 2.99882 122.921 2.99895ZM129.32 3.21782C129.381 3.23007 129.438 3.2489 129.486 3.27772C129.454 3.22157 129.402 3.18668 129.339 3.16519C129.336 3.17185 129.334 3.17846 129.332 3.18497C129.328 3.19632 129.324 3.20737 129.32 3.21782ZM138.723 1.86876C138.723 1.86874 138.724 1.86877 138.723 1.86876C138.739 1.87245 138.753 1.86791 138.765 1.85141C138.75 1.85678 138.736 1.86258 138.723 1.86876ZM131.97 3.33378C131.988 3.32867 132.002 3.31932 132.012 3.30476C131.996 3.31475 131.982 3.32442 131.97 3.33378ZM129.405 3.06594C129.398 3.06927 129.393 3.0736 129.39 3.07883C129.395 3.07442 129.4 3.07012 129.405 3.06594ZM98.0116 1.59354C98.0114 1.57878 98.0066 1.56109 97.9961 1.53997C97.9915 1.56075 97.9974 1.57847 98.0116 1.59354ZM96.8665 2.06214C96.8766 2.05984 96.8868 2.0577 96.8971 2.05571C96.8854 2.05604 96.875 2.05801 96.8665 2.06214ZM95.4392 1.45346C95.4389 1.44614 95.4363 1.43781 95.4311 1.42841L95.4392 1.45346ZM136.766 0.55904C136.758 0.552693 136.751 0.546165 136.743 0.53946C136.743 0.539454 136.743 0.539465 136.743 0.53946M139.126 2.91929L139.167 2.80345C139.155 2.82617 139.143 2.85197 139.132 2.87843C139.12 2.90609 139.107 2.93447 139.094 2.96077C139.105 2.94706 139.115 2.93323 139.126 2.91929ZM138.333 4.53488C138.333 4.53501 138.333 4.53475 138.333 4.53488ZM138.358 4.64663C138.111 4.70086 138.091 4.66937 138.333 4.53488L138.358 4.64663ZM1.08598 5.64743C1.24032 5.69131 1.39993 5.71583 1.56115 5.72011L0.93688 5.57188C0.990407 5.59603 1.04246 5.62078 1.08598 5.64743ZM28.4413 5.56315C28.4424 5.58138 28.4494 5.60038 28.4629 5.6201C28.4595 5.59772 28.4521 5.57887 28.4413 5.56315ZM69.3222 5.04667C69.33 5.0569 69.344 5.06682 69.3681 5.07666C69.3532 5.0653 69.3379 5.05534 69.3222 5.04667ZM0.381386 4.64076C0.379724 4.63418 0.377201 4.62699 0.373746 4.61916L0.381386 4.64076ZM1.0043 4.70396C1.00245 4.70289 1.0006 4.70184 0.998747 4.70079C0.990461 4.7038 0.982243 4.70701 0.9741 4.71043L1.0043 4.70396ZM104.027 4.67077C103.944 4.62254 103.852 4.59369 103.756 4.58638C103.89 4.57902 103.992 4.59422 104.027 4.67077ZM134.493 3.57214L134.23 3.73417C134.233 3.65631 134.324 3.59143 134.493 3.57214ZM137.764 0.478447C137.777 0.476179 137.791 0.475711 137.804 0.477057C137.804 0.484519 137.787 0.48264 137.764 0.478447ZM139.078 2.95403C139.083 2.94509 139.087 2.93571 139.093 2.92609L139.008 3.0301C139.032 3.04289 139.051 3.00559 139.078 2.95403ZM62.8855 0.808441L62.7044 0.801467C62.7648 0.798228 62.8254 0.800563 62.8855 0.808441ZM104.999 4.60625C104.965 4.61463 104.931 4.62313 104.902 4.62414C105.055 4.65604 105.064 4.63176 105.047 4.59513C105.032 4.59825 105.016 4.60223 104.999 4.60625ZM101.009 2.82329C100.95 2.79876 100.914 2.76544 100.926 2.7145C101.004 2.75963 101.022 2.7936 101.009 2.82329ZM126.661 3.19983L126.558 3.23267C126.588 3.21226 126.624 3.20088 126.661 3.19983ZM125.226 3.45839C125.128 3.45433 125.031 3.43881 124.937 3.41215C125.036 3.40378 125.135 3.41966 125.226 3.45839ZM124.642 3.37715L124.283 3.38969C124.281 3.3737 124.281 3.35756 124.282 3.34147L124.642 3.37715ZM127.111 3.1971C126.961 3.19445 126.811 3.1997 126.661 3.21281C126.805 3.15752 126.964 3.15198 127.111 3.1971ZM110.408 3.21674L110.371 3.21804C110.098 3.09459 110.27 3.14444 110.408 3.21674ZM123.095 3.03381L123.047 3.03548L122.946 2.96454L123.095 3.03381ZM115.794 3.00038C115.893 3.09533 115.927 3.15531 115.929 3.20313C115.811 3.19393 115.738 3.15127 115.794 3.00038Z" fill="black"/>
<path fill-rule="evenodd" clip-rule="evenodd" d="M90.068 1.29119C90.0693 1.29804 90.0709 1.30467 90.0725 1.31108L90.121 1.29282C90.1043 1.29185 90.0867 1.29129 90.068 1.29119ZM95.7938 1.67608C95.8359 1.70734 95.88 1.73524 95.9258 1.75967C95.9369 1.73473 95.9401 1.70809 95.9279 1.67924C95.8842 1.67508 95.84 1.67496 95.7938 1.67608ZM102.585 1.71758C102.568 1.72509 102.553 1.73353 102.537 1.74286C102.546 1.74147 102.555 1.73984 102.564 1.73799C102.573 1.73072 102.582 1.72381 102.593 1.71733C102.591 1.71741 102.588 1.7175 102.585 1.71758ZM104.658 1.79382C104.658 1.78858 104.657 1.78331 104.657 1.77803L104.663 1.77754C104.661 1.77297 104.659 1.76821 104.657 1.76326C104.657 1.77345 104.657 1.7837 104.658 1.79382ZM122.921 2.99895C122.921 2.99908 122.921 2.99882 122.921 2.99895ZM129.32 3.21782C129.381 3.23007 129.438 3.2489 129.486 3.27772C129.454 3.22157 129.402 3.18668 129.339 3.16519C129.336 3.17185 129.334 3.17846 129.332 3.18497C129.328 3.19632 129.324 3.20737 129.32 3.21782ZM138.723 1.86876C138.723 1.86874 138.724 1.86877 138.723 1.86876C138.739 1.87245 138.753 1.86791 138.765 1.85141C138.75 1.85678 138.736 1.86258 138.723 1.86876ZM131.97 3.33378C131.988 3.32867 132.002 3.31932 132.012 3.30476C131.996 3.31475 131.982 3.32442 131.97 3.33378ZM129.405 3.06594C129.398 3.06927 129.393 3.0736 129.39 3.07883C129.395 3.07442 129.4 3.07012 129.405 3.06594ZM98.0116 1.59354C98.0114 1.57878 98.0066 1.56109 97.9961 1.53997C97.9915 1.56075 97.9974 1.57847 98.0116 1.59354ZM96.8665 2.06214C96.8766 2.05984 96.8868 2.0577 96.8971 2.05571C96.8854 2.05604 96.875 2.05801 96.8665 2.06214ZM95.4392 1.45346C95.4389 1.44614 95.4363 1.43781 95.4311 1.42841L95.4392 1.45346ZM136.766 0.55904C136.758 0.552693 136.751 0.546165 136.743 0.53946C136.743 0.539454 136.743 0.539465 136.743 0.53946M139.126 2.91929L139.167 2.80345C139.155 2.82617 139.143 2.85197 139.132 2.87843C139.12 2.90609 139.107 2.93447 139.094 2.96077C139.105 2.94706 139.115 2.93323 139.126 2.91929ZM138.333 4.53488C138.333 4.53501 138.333 4.53475 138.333 4.53488ZM138.358 4.64663C138.111 4.70086 138.091 4.66937 138.333 4.53488L138.358 4.64663ZM1.08598 5.64743C1.24032 5.69131 1.39993 5.71583 1.56115 5.72011L0.93688 5.57188C0.990407 5.59603 1.04246 5.62078 1.08598 5.64743ZM28.4413 5.56315C28.4424 5.58138 28.4494 5.60038 28.4629 5.6201C28.4595 5.59772 28.4521 5.57887 28.4413 5.56315ZM69.3222 5.04667C69.33 5.0569 69.344 5.06682 69.3681 5.07666C69.3532 5.0653 69.3379 5.05534 69.3222 5.04667ZM0.381386 4.64076C0.379724 4.63418 0.377201 4.62699 0.373746 4.61916L0.381386 4.64076ZM1.0043 4.70396C1.00245 4.70289 1.0006 4.70184 0.998747 4.70079C0.990461 4.7038 0.982243 4.70701 0.9741 4.71043L1.0043 4.70396ZM104.027 4.67077C103.944 4.62254 103.852 4.59369 103.756 4.58638C103.89 4.57902 103.992 4.59422 104.027 4.67077ZM134.493 3.57214L134.23 3.73417C134.233 3.65631 134.324 3.59143 134.493 3.57214ZM137.764 0.478447C137.777 0.476179 137.791 0.475711 137.804 0.477057C137.804 0.484519 137.787 0.48264 137.764 0.478447ZM139.078 2.95403C139.083 2.94509 139.087 2.93571 139.093 2.92609L139.008 3.0301C139.032 3.04289 139.051 3.00559 139.078 2.95403ZM62.8855 0.808441L62.7044 0.801467C62.7648 0.798228 62.8254 0.800563 62.8855 0.808441ZM104.999 4.60625C104.965 4.61463 104.931 4.62313 104.902 4.62414C105.055 4.65604 105.064 4.63176 105.047 4.59513C105.032 4.59825 105.016 4.60223 104.999 4.60625ZM101.009 2.82329C100.95 2.79876 100.914 2.76544 100.926 2.7145C101.004 2.75963 101.022 2.7936 101.009 2.82329ZM126.661 3.19983L126.558 3.23267C126.588 3.21226 126.624 3.20088 126.661 3.19983ZM125.226 3.45839C125.128 3.45433 125.031 3.43881 124.937 3.41215C125.036 3.40378 125.135 3.41966 125.226 3.45839ZM124.642 3.37715L124.283 3.38969C124.281 3.3737 124.281 3.35756 124.282 3.34147L124.642 3.37715ZM127.111 3.1971C126.961 3.19445 126.811 3.1997 126.661 3.21281C126.805 3.15752 126.964 3.15198 127.111 3.1971ZM110.408 3.21674L110.371 3.21804C110.098 3.09459 110.27 3.14444 110.408 3.21674ZM123.095 3.03381L123.047 3.03548L122.946 2.96454L123.095 3.03381ZM115.794 3.00038C115.893 3.09533 115.927 3.15531 115.929 3.20313C115.811 3.19393 115.738 3.15127 115.794 3.00038Z" fill="url(#paint36_linear_164_114)"/>
<path fill-rule="evenodd" clip-rule="evenodd" d="M77.8514 0.492227C76.0377 0.544836 73.6655 0.273676 71.834 0.200863C71.1498 0.14716 71.2025 0.553592 70.7182 0.25541C70.7537 0.279945 70.7181 0.345725 70.7196 0.389959C70.0808 0.378659 69.4421 0.41441 68.8086 0.496922C68.5911 0.413335 68.9397 0.336797 68.9381 0.291262C68.7388 0.341134 68.6023 0.504124 68.2301 0.442033C68.4684 0.278167 67.6807 0.222539 67.37 0.233389C67.5879 0.330369 68.0534 0.298022 67.9739 0.480477C67.8325 0.524616 67.6831 0.536939 67.5363 0.516564C67.3896 0.496189 67.2491 0.443621 67.1251 0.362622L67.3021 0.517347C66.4382 0.351746 66.5553 0.78747 65.6406 0.551232C65.5722 0.435622 66.0015 0.519855 65.9332 0.406924C65.023 0.221485 64.2426 0.605416 63.2281 0.428982C63.2851 0.448446 63.3939 0.492918 63.3464 0.516029L62.8495 0.493156C63.0248 0.521897 62.7579 0.635806 62.8571 0.710116C62.8208 0.824017 62.6006 0.737845 62.3943 0.745048C62.0542 0.526293 62.9183 0.391525 62.1741 0.275379C62.4263 0.585705 61.4049 0.363923 61.5344 0.54176C60.444 0.522374 59.3555 0.444907 58.2733 0.30969C58.2413 0.469033 57.9919 0.544788 57.9626 0.704037L57.6906 0.595536L57.6922 0.64107C57.2882 0.743679 56.9997 0.547254 57.2993 0.448293C57.4949 0.444144 57.5781 0.599464 57.762 0.413362C57.4695 0.560349 56.9091 0.255422 56.6276 0.49052C56.674 0.513037 56.6292 0.536055 56.6308 0.58159L56.2657 0.570204L56.2881 0.365608C54.8906 0.435862 53.3203 0.394154 52.2224 0.362768C51.6595 0.449467 50.7748 0.456228 50.6437 0.619031C49.9414 0.649096 49.2378 0.6117 48.5426 0.507358C48.2448 0.657211 47.1596 0.375974 47.2082 0.693409L46.7654 0.529195L46.7685 0.620265C46.3896 0.520862 46.5693 0.675493 46.2015 0.664201L46.1764 0.482716C45.8226 0.564798 45.0717 0.41134 44.4547 0.48116L44.4563 0.526695C44.1957 0.51434 44.1248 0.40418 43.878 0.479842L43.8488 0.641769C42.1636 0.491468 40.469 0.47621 38.7813 0.596142C37.7926 1.00344 37.0673 0.355636 36.1116 0.941459C35.7659 1.02594 35.5531 0.692782 36.0225 0.695163C32.9401 0.663352 29.5466 1.02053 26.4081 0.996043C24.1703 1.07875 21.9391 1.29098 19.7258 1.63166C19.6646 1.56944 19.8638 1.51153 19.9612 1.45985C19.4824 1.42025 19.7258 1.63166 19.6881 1.70271C19.3924 1.68145 19.1009 1.62129 18.821 1.52381L19.0132 1.42323C17.3914 1.45637 15.7754 1.62674 14.1823 1.93252L14.1588 1.79657C13.1163 1.81688 12.641 2.41275 11.4094 2.24121C11.5819 2.34246 11.9898 2.2719 11.7572 2.44629C10.2269 2.57472 8.71615 2.87579 7.25359 3.34373C7.32998 3.32898 7.40905 3.33799 7.48016 3.36955C7.55127 3.40111 7.611 3.45371 7.6513 3.52025L6.96668 3.49857C6.66638 3.65387 7.28397 3.52235 7.20312 3.66463C6.55165 3.82415 6.94326 3.3653 6.24165 3.54803C6.27915 3.77735 5.5875 3.70764 5.50238 3.80448C5.39801 3.8108 5.26327 3.63851 5.0711 3.74176C4.91787 3.73102 5.28679 3.77446 5.18937 3.82613L4.14742 3.86252C4.2209 3.96991 3.75882 4.02359 4.18742 4.08639C3.93098 4.42253 3.3776 3.93499 3.28252 4.28426L2.6857 4.16565C2.50011 4.30354 2.78998 4.15665 2.81082 4.29269L2.34208 4.30906C2.35865 4.39966 2.44396 4.53882 2.17611 4.54817C1.7625 4.53043 2.46143 4.3478 1.90461 4.45306C1.63629 4.44902 2.14799 4.66447 2.44443 4.55221L2.05325 4.71605L2.15771 4.7124C2.06297 4.76398 2.25443 4.9477 1.78301 4.96417L1.9416 4.97472C1.41031 5.15833 1.22742 4.83301 1.0043 4.70396L0.9741 4.71043C0.982243 4.70701 0.990461 4.7038 0.998747 4.70079C0.984415 4.69274 0.969904 4.68552 0.955113 4.67931C0.825233 4.8068 0.655942 4.88646 0.474917 4.90526L0.381386 4.64076C0.421762 4.8007 -0.0451053 4.60595 0.0228929 4.70918L0.342853 4.73287C-0.143074 4.94829 0.534168 5.21964 0.0317619 5.34714C0.114864 5.49978 0.268526 5.21551 0.642806 5.25875C0.515291 5.39953 0.736462 5.48146 0.93688 5.57188L1.56115 5.72011C1.39993 5.71583 1.24032 5.69131 1.08598 5.64743C1.1039 5.65839 1.12038 5.66968 1.13492 5.68138C6.16778 6.38295 11.2604 6.55387 16.329 6.19133C19.3057 6.11152 22.1223 5.9783 24.1915 5.86849L27.5884 5.68819C27.5884 5.68819 28.3011 5.35786 28.4413 5.56315C28.433 5.42165 28.7787 5.32749 29.1442 5.31473C29.4994 5.41196 29.8699 5.44089 30.2359 5.39996C30.2253 5.3969 30.2157 5.39088 30.2083 5.38259C30.2009 5.37431 30.1959 5.36411 30.1941 5.35315C30.5355 5.22323 30.9377 5.45323 31.3095 5.50192L31.6941 5.30077C32.0528 5.2745 32.4132 5.31839 32.7552 5.42999C34.3834 5.27825 36.0224 5.28208 37.6499 5.44142C37.9252 5.10999 39.0231 5.21647 39.5374 5.19851L39.5666 5.03658L39.9593 5.224C39.8911 5.11375 40.3509 5.07088 40.5459 4.97289L40.6238 5.12839C40.539 4.92754 41.2228 5.31129 41.1129 4.92895C41.8531 5.10678 42.6038 5.23732 43.3605 5.31978C43.2976 5.28443 43.2715 5.22902 43.2006 5.19395C44.02 5.4657 43.721 4.73865 44.5816 5.11355C45.8553 5.21015 47.1362 5.1456 48.3937 4.92142C48.5916 4.93044 48.7879 4.96136 48.9789 5.01362L48.274 5.17769L49.2465 5.07401L49.1378 5.03221C50.1007 5.02478 51.063 5.08076 52.0185 5.19979C53.8954 4.88216 56.1639 5.10331 57.8784 4.74307L58.0832 5.07919C58.1738 4.98753 58.1013 4.82915 58.3982 4.73029C58.4942 4.72941 58.5876 4.76205 58.6621 4.8226C58.7367 4.88314 58.7878 4.96779 58.8067 5.06197L59.1942 4.87144C59.2918 5.20862 60.3079 4.66092 60.5713 5.06203C60.7169 4.97679 60.8793 4.9241 61.0472 4.90759C61.2152 4.89108 61.3847 4.91114 61.5441 4.96638C61.6987 4.93952 61.4033 4.69775 61.88 4.75352C61.8145 5.02934 62.057 4.90824 62.386 5.03621C62.7646 5.0498 62.9211 4.77079 63.2933 4.83021L63.1301 4.76618C63.4649 4.71132 63.8082 4.74176 64.1282 4.85469C64.2438 4.94183 63.8381 4.99622 64.0556 5.08249C64.1964 4.96494 64.4933 4.86607 64.167 4.73801C64.414 4.67039 64.8946 4.76356 64.8653 4.92281L64.6159 4.99856L66.223 4.94244C65.9052 4.90259 66.3136 4.8481 66.3568 4.77954C66.5382 4.98239 67.1194 5.03718 67.2282 5.08166L67.4596 4.87244L67.5 4.95417C67.5044 4.92719 67.5492 4.90418 67.5781 4.88708L68.0185 5.05942C68.1335 4.97299 68.2688 4.91758 68.4114 4.89852C68.5539 4.87945 68.699 4.89736 68.8327 4.95054L68.5874 5.06905C68.783 5.06473 69.0935 4.9202 69.3222 5.04667C69.2946 5.01066 69.3433 4.97092 69.2955 4.91828C70.2336 4.85154 71.1759 4.87792 72.1088 4.99704L72.0544 4.9748C72.5069 4.96215 72.9577 5.03749 73.3815 5.19664C74.3684 5.19436 75.9682 5.15994 77.2049 5.0953L77.4337 5.27236L77.4657 5.11301C78.6133 5.18557 79.8122 4.8058 80.8539 4.83915L80.8193 4.99859C81.2667 4.83278 81.3073 5.1505 81.4257 4.85405L81.5454 4.86769C82.227 4.94533 82.7801 5.00835 83.4816 5.13089C83.459 4.94663 83.9334 5.0132 84.183 4.9428C84.6476 5.34494 84.798 4.89183 85.3923 5.09098L85.2835 5.04651C85.6489 5.06593 85.8041 5.13292 86.0729 5.15303L86.0698 5.06196C86.6304 4.98875 86.7033 5.15783 87.1158 5.14343C87.47 5.07206 87.0389 4.93694 87.6108 4.95719C87.6738 5.07031 88.0504 5.18052 88.2707 5.26937C88.0296 5.43065 88.7572 4.99225 89.1423 5.19334L89.0266 5.10352L89.5634 5.11696C89.5393 5.11044 89.518 5.09609 89.503 5.07616C90.0754 5.18758 90.0514 4.96046 90.8453 5.11778L90.7365 5.07331C91.4648 5.1176 92.3519 5.17781 92.9197 5.15798L92.9165 5.06691L93.7719 5.29181L93.6491 5.15664L94.1629 5.15724C94.0673 5.15617 94.0617 5.11227 94.1107 5.08957C94.7681 5.4072 95.3256 4.85942 96.1654 4.94809L96.0539 4.90371C96.1931 4.74331 96.6174 4.83576 96.9172 4.74216C96.9218 4.87609 97.1508 5.0585 97.4662 5.1038L97.2372 4.92139L97.6027 4.94349L97.5483 4.92126C97.5285 4.73958 97.862 4.92103 98.0029 4.80883C98.5275 4.85488 97.7617 4.96476 98.1774 4.96633C98.1006 4.76252 99.0218 5.10848 99.1972 4.83417L100.357 5.01895L100.291 4.90592C100.497 5.03668 100.741 5.09342 100.983 5.0668C101.088 5.06583 100.722 5.04105 100.664 4.97337C101.16 4.83802 101.829 5.2518 102.005 4.97749C102.292 4.97763 102.321 5.09985 102.286 5.17101C102.392 5.00921 103.059 5.15521 103.413 5.14286L103.239 4.98268C103.412 5.04029 103.597 5.05139 103.776 5.01487L103.759 5.01202C103.648 4.99301 103.536 4.97371 103.533 4.89462C104.019 4.87685 104.505 4.89392 104.988 4.94571C104.954 4.95496 104.99 4.98857 104.991 5.01267C105.671 4.96995 106.354 5.021 107.021 5.16437C106.863 5.0948 106.395 5.06822 106.745 4.95676C107.426 5.02953 107.081 5.18642 107.664 5.3055C107.757 5.21642 107.29 5.18984 107.586 5.05615L108.13 5.28654L108.11 5.10487C109.431 5.36716 110.855 4.6872 111.945 5.18549L111.865 5.4109C112.304 5.16224 112.748 5.43637 113.074 5.10048L113.187 5.1904L113.374 5.00956L113.612 5.28553L113.605 5.10339L113.901 5.20302C113.875 5.16368 113.949 5.11017 113.909 5.06327C114.558 5.34368 114.407 4.87961 115.054 5.1252C114.997 5.10306 114.891 5.05582 114.938 5.0327C115.635 5.24705 115.759 4.9531 116.494 5.05613L116.374 4.91819C116.62 4.90216 116.866 4.92156 117.106 4.97578L116.962 5.08807L117.358 4.91065L117.631 5.02986L117.627 4.93879C118.422 5.10415 117.992 4.92072 118.783 5.09152C118.677 5.04428 118.614 4.92848 118.816 4.88655C118.974 4.95489 119.522 4.89805 119.892 4.96808C119.772 4.9407 119.894 4.88447 119.946 4.86039L119.952 4.8576C120.159 4.86112 120.378 5.00095 120.285 5.09003L119.974 5.08481C120.404 5.26289 120.265 4.90836 120.737 4.98306C120.705 5.1424 120.705 5.1424 121.068 5.16995L120.797 5.09627C120.882 4.91631 121.787 5.17435 121.296 4.92334C121.598 4.83767 121.762 4.99822 122.031 5.02637L121.783 5.13427L123.028 5.16051C123.017 5.06972 122.911 5.02247 122.954 4.95392L123.225 5.0276L123.116 4.98045C123.763 4.69772 124.18 5.27583 124.82 4.94775L124.783 5.1046L124.826 5.03872C125.018 5.15807 125.26 5.01018 125.34 5.14684C125.363 4.97975 126.026 5.14433 126.383 5.07019C126.506 5.20803 126.56 5.23295 126.926 5.26308C127.435 5.17022 127.481 5.11764 127.667 4.89395C128.232 5.05346 128.814 5.14918 129.401 5.17933C129.405 5.22477 129.49 5.04481 129.177 4.99406C129.732 4.83254 130.239 5.28953 130.995 5.05662L130.958 5.21347C131.478 5.22479 130.873 4.87315 131.511 5.01982L131.422 5.15434C131.676 5.19539 131.934 5.216 132.191 5.21598C132.052 5.06798 132.656 5.16756 132.343 5.03368L132.661 5.08425L132.66 5.03871C132.921 5.06178 133.134 5.11064 133.041 5.19972L133.289 5.08915L133.363 5.29306C133.724 5.27239 133.45 5.15863 133.802 5.0444L134.132 5.1804L134.13 5.13487L134.484 5.23671C134.18 5.14371 134.065 4.92818 134.356 4.83736C134.676 4.8798 134.76 5.12628 135.167 5.02893C134.474 4.92976 135.875 4.87549 135.221 4.665C136.081 4.78783 136.29 4.71348 137.076 4.8684C136.95 4.64216 137.181 4.65823 137.487 4.66096C137.775 4.69406 138.067 4.65057 138.333 4.53488L138.305 4.41787C138.448 4.34383 138.585 4.25739 138.714 4.15953C138.813 4.0783 138.91 4.00252 138.974 3.93321L139.072 3.8118C138.724 4.13773 139.049 3.60612 138.898 3.59529C139.096 3.46941 139.271 3.31198 139.418 3.12926C139.279 3.21401 139.132 3.28304 138.978 3.33506C138.915 3.23533 139.022 3.13775 139.122 3.01089C139.103 3.00887 139.103 3.00351 139.102 2.98744L139.126 2.91929C139.115 2.93323 139.105 2.94706 139.094 2.96077C139.107 2.93447 139.12 2.90609 139.132 2.87843C139.143 2.85197 139.155 2.82617 139.167 2.80345L139.197 2.71594L139.254 2.427C139.17 2.32802 138.968 2.90631 138.955 2.55007C138.986 2.39816 139.042 2.25241 139.121 2.11867C139.093 2.16449 139.046 2.16727 139.022 2.21522C139.134 1.97499 139.227 1.72601 139.299 1.47073C139.328 1.31537 139.311 1.15478 139.25 1.00905C139.188 0.863323 139.085 0.738928 138.954 0.651425C139.179 1.196 138.93 0.974064 138.845 1.22912C138.77 0.845563 138.673 1.15466 138.553 1.02207L138.702 0.906922L138.843 0.786695C138.519 0.414516 138.554 0.882603 138.373 0.837978C138.365 0.688074 138.026 0.506819 138.201 0.45511C138.112 0.431412 137.882 0.299985 137.995 0.532048C137.622 0.381472 137.772 0.236764 137.736 0.109317C136.911 0.140805 137.222 -0.0255869 136.391 0.00340928C136.517 0.157233 136.917 0.553578 137.254 0.372859C137.32 0.550072 136.968 0.736857 136.743 0.53946C136.751 0.546165 136.758 0.552693 136.766 0.55904C136.869 0.645122 136.997 0.697936 137.132 0.709672C137.196 0.616264 137.257 0.380801 137.61 0.569624C137.706 0.727155 137.583 0.80655 137.517 0.897373C137.45 0.988197 137.441 1.03678 137.637 1.19621L137.709 1.19369C137.677 1.11704 137.598 1.08761 137.627 0.979345C137.782 0.73525 137.761 1.2053 137.895 0.969991C137.963 1.00831 138.015 1.06952 138.042 1.14273C138.069 1.21594 138.069 1.29639 138.043 1.36977C138.018 1.51276 137.945 1.64137 137.949 1.7619C138.103 1.86648 138.164 1.78656 138.19 1.68642C138.216 1.58629 138.22 1.4628 138.349 1.5334C138.361 1.63021 138.364 1.72793 138.359 1.82536C138.386 1.58843 138.456 1.61011 138.539 1.69034C138.603 1.752 138.672 1.85627 138.723 1.86876C138.736 1.86258 138.75 1.85678 138.765 1.85141C138.753 1.86791 138.739 1.87245 138.723 1.86876C138.458 1.99948 138.729 2.29657 138.374 2.11177C138.309 2.39617 138.176 2.66091 137.988 2.8842C137.825 3.1125 137.65 3.2527 137.659 3.50448C137.404 3.43827 137.766 3.35055 137.434 3.36215C137.366 3.56298 136.958 3.55041 136.723 3.58543C136.835 3.71562 136.764 3.76635 136.536 3.75556C136.466 3.69093 136.54 3.5784 136.071 3.57334C136.087 3.66394 135.935 3.69338 135.895 3.76184C135.737 3.76736 135.673 3.71326 135.671 3.65701L135.485 3.77615L135.053 3.6062L135.054 3.65174C134.434 3.6171 134.978 3.4506 135.17 3.35538L134.862 3.36614C135.19 3.15624 134.384 3.12537 134.115 3.10258C134.428 3.1453 134.298 3.35096 134.473 3.50846C134.484 3.59925 134.117 3.53429 134.019 3.58061C133.652 3.51298 134.106 3.4435 134.04 3.33048L133.641 3.42219L133.747 3.46675C133.571 3.58287 133.364 3.64507 133.153 3.64574C132.938 3.55402 133.442 3.4667 133.281 3.39722C133.359 3.55808 132.597 3.61956 133.027 3.80567C132.988 3.91699 132.625 3.88944 132.566 3.82176C132.908 3.61995 131.572 3.63567 131.97 3.33378C131.82 3.37588 131.418 3.12973 131.327 3.1329C131.357 3.04874 131.393 3.01261 131.524 2.99463C131.496 2.97977 131.474 2.95723 131.46 2.92982L131.803 2.77838C131.346 2.83455 131.199 2.9014 131.22 3.1286C130.7 3.07166 131.052 3.0111 130.528 2.90871C130.744 3.02453 130.673 3.04581 130.533 3.05067C130.754 3.17059 130.991 3.25805 131.237 3.31037C130.573 3.26919 130.858 3.75804 131.128 3.78619C130.871 3.80588 130.731 3.95825 130.416 3.90759L130.183 3.62875L130.053 3.87468C129.845 3.91412 129.528 3.81792 129.569 3.70383C130.101 3.60881 129.34 3.17875 129.39 3.07883C129.363 3.10542 129.349 3.13576 129.339 3.16519C129.402 3.18668 129.454 3.22157 129.486 3.27772C129.438 3.2489 129.381 3.23007 129.32 3.21782C129.301 3.26487 129.271 3.2999 129.169 3.29677C129.248 3.33959 129.272 3.40849 129.174 3.44945C128.767 3.3108 128.49 3.50286 128.48 3.22161L128.273 3.22881C128.474 3.14135 128.159 3.08801 128.1 3.02033L127.954 3.13003L127.582 2.85606C127.146 2.87722 126.714 2.94173 126.291 3.04865L126.123 2.93114C126.027 3.02031 126.055 3.29287 125.689 3.26273C125.614 3.01061 124.852 3.15254 124.771 2.85766C124.549 3.2382 123.931 2.74756 124.027 3.18135C123.552 3.10406 122.929 3.09094 122.899 2.77285L122.921 2.99895C122.919 2.9865 122.916 2.97579 122.911 2.96661C122.855 2.86665 122.585 2.94847 122.43 2.93673C122.437 3.13762 121.554 2.87079 121.548 3.23573C121.125 3.17274 121.365 2.98199 121.461 2.89282C121.305 2.97871 121.132 3.02998 120.954 3.04312C120.776 3.05627 120.598 3.03099 120.431 2.96901C120.325 2.92176 119.8 2.86768 119.737 2.75456L119.928 2.62184L119.443 2.93111C119.315 2.66201 118.901 3.01974 118.434 2.92074C118.502 2.95322 118.56 2.99412 118.52 3.00891L117.998 2.95474C117.874 2.77136 118.383 2.68921 118.32 2.57341C117.531 2.49368 116.846 2.84745 116.972 3.07637C116.762 2.938 116.524 2.84914 116.274 2.81648L116.474 2.77465C115.698 2.83124 115.651 2.3287 114.604 2.22313C114.587 2.04136 115.218 2.14269 114.992 1.9575C114.566 1.85534 114.121 1.87089 113.703 2.00249C114.043 2.27759 113.257 2.20044 113.49 2.43097C113.075 2.4294 113.257 2.20312 112.985 2.08658C113.091 2.13383 113.024 2.44993 112.983 2.56401L112.258 2.55713C112.189 2.48982 112.395 2.40217 112.184 2.35322C112.103 2.40756 112.01 2.44264 111.913 2.45578C111.816 2.46893 111.717 2.45981 111.624 2.42911C111.589 2.5081 111.173 2.51188 111.014 2.54696C110.844 2.52071 110.606 2.24741 110.474 2.45049C110.632 2.4289 110.64 2.52514 110.745 2.52149L110.29 2.63123C110.632 2.43158 109.437 2.3982 109.892 2.28846C109.8 2.22639 109.696 2.18555 109.587 2.16894C109.478 2.15234 109.367 2.16038 109.261 2.19249C109.572 2.19503 109.378 2.33052 109.437 2.3982C109.142 2.4115 108.847 2.40119 108.554 2.36737C108.18 2.25439 108.436 2.23469 108.526 2.10017L107.799 2.09338C107.476 2.00005 108.21 1.95835 107.67 1.86455C107.854 1.97882 107.453 2.25563 107.119 2.21633C107.202 2.27781 107.157 2.38128 107.402 2.2708C107.464 2.34106 107.418 2.40703 107.27 2.47387C106.726 2.2408 106.581 1.87574 105.594 1.84588C105.185 1.74699 104.768 2.01767 104.663 1.77754L104.657 1.77803C104.657 1.78331 104.658 1.78858 104.658 1.79382C104.658 1.79435 104.658 1.79487 104.659 1.7954L103.978 1.72531C104.045 1.88387 104.495 1.72601 104.461 1.88545C103.842 1.92313 103.827 1.78689 103.427 1.92155C103.696 1.94434 104.054 1.92377 103.969 2.10373C103.484 2.0846 103.004 1.99942 102.542 1.85054C102.51 1.81404 102.523 1.7723 102.564 1.73799C102.555 1.73984 102.546 1.74147 102.537 1.74286C102.553 1.73353 102.568 1.72509 102.585 1.71758C102.147 1.7298 101.708 1.71198 101.272 1.66424L101.096 1.46121C101.742 1.21071 101.734 1.59717 102.286 1.44111C102.105 1.23559 101.448 1.39262 101.128 1.30187C101.1 1.50665 100.798 1.59499 100.65 1.66452C100.305 1.6283 99.9569 1.65776 99.6232 1.75133C99.2993 1.61246 100.043 1.7045 99.5015 1.56785C98.6669 1.47364 99.5496 2.40825 98.7064 1.83698L98.7886 1.65711C98.57 1.6764 98.106 1.69412 98.0116 1.59354C98.0132 1.76855 97.3563 1.53302 97.7618 1.74392L97.7602 1.69839C97.9123 1.67698 97.9236 1.76777 97.9822 1.83545C97.8615 2.12206 97.3 1.97791 96.8971 2.05571C96.948 2.05428 97.0237 2.08374 97.0714 2.10236L97.0799 2.10564C96.5053 2.16325 96.8514 2.01439 96.2683 1.90335C96.2026 1.79032 96.3968 2.12949 95.9727 2.03971C95.6646 1.94956 95.8756 1.87179 95.9258 1.75967C95.88 1.73524 95.8359 1.70734 95.7938 1.67608C95.7746 1.67655 95.7551 1.67723 95.7351 1.67792C95.6671 1.6803 95.5941 1.68285 95.5122 1.67766L95.4392 1.45346C95.4423 1.53425 95.1589 1.49313 94.9109 1.43048C95.3419 1.56293 95.3717 1.80325 95.6088 2.06315C95.8068 1.9731 95.9823 2.08497 95.9855 2.17604C95.2742 2.31351 95.0506 1.74742 94.6142 1.99865C94.6467 1.8527 94.5565 1.8049 94.8861 1.72098C94.7604 1.73073 94.6348 1.58762 94.4021 1.5287L94.5109 1.57318C93.9344 1.57454 93.4227 1.74526 93.0346 1.53623C93.0466 1.57068 93.0318 1.60874 93.0644 1.62101C92.4385 1.667 92.7043 1.59872 92.1632 1.46475L92.4369 1.62147C92.2501 1.8023 91.9733 1.55452 91.7059 1.57727C91.5314 1.41977 91.8927 1.39643 91.9359 1.32787C91.7837 1.34928 91.5869 1.0102 91.3025 1.23736C91.4546 1.21595 91.6717 1.21373 91.6749 1.3048C91.3262 1.32966 90.9759 1.31581 90.6303 1.26351L90.904 1.42291C90.4236 1.50874 90.4651 1.31292 90.121 1.29282L90.0725 1.31108L90.0733 1.3144C90.0889 1.37594 90.099 1.41615 89.7644 1.42784L89.6918 1.26946C89.2333 1.34716 89.6489 1.34605 89.3101 1.55097C88.9737 1.50312 88.6543 1.37338 88.3798 1.17315C88.0436 1.3753 87.4036 1.25015 86.9561 1.41327C86.6952 1.39288 86.5181 1.23548 86.2183 1.32908C86.2433 1.12439 85.7887 1.23681 85.7579 0.969709C86.1511 0.787025 86.214 1.28364 86.3799 0.96408C86.3756 0.918638 85.9601 0.922422 85.7424 0.833478L85.8512 0.87795C84.5684 1.0032 84.3587 0.144307 82.9824 0.35864C82.9461 0.472541 83.2027 0.44749 83.1094 0.539249C82.6502 0.600872 82.8257 0.326566 82.4105 0.341064L80.5324 0.315469C81.3399 0.555448 80.1394 0.50351 80.1004 0.617505L79.9191 0.417338C79.572 0.536732 80.1394 0.50351 79.9416 0.598917L79.4605 0.492354L79.3992 0.810945C78.8667 0.813615 78.3395 0.705058 77.8514 0.492227ZM104.027 4.67077C103.944 4.62254 103.852 4.59369 103.756 4.58638C103.89 4.57902 103.992 4.59422 104.027 4.67077ZM134.493 3.57214L134.23 3.73417C134.233 3.65631 134.324 3.59143 134.493 3.57214ZM137.764 0.478447C137.777 0.476179 137.791 0.475711 137.804 0.477057C137.804 0.484519 137.787 0.48264 137.764 0.478447ZM139.093 2.92609L139.008 3.0301C139.032 3.04289 139.051 3.00559 139.078 2.95403L139.093 2.92609ZM62.8855 0.808441L62.7044 0.801467C62.7648 0.798228 62.8254 0.800563 62.8855 0.808441ZM104.902 4.62414C105.055 4.65604 105.064 4.63176 105.047 4.59513C105.032 4.59825 105.016 4.60223 104.999 4.60625C104.965 4.61463 104.931 4.62313 104.902 4.62414ZM101.009 2.82329C100.95 2.79876 100.914 2.76544 100.926 2.7145C101.004 2.75963 101.022 2.7936 101.009 2.82329ZM126.661 3.19983L126.558 3.23267C126.588 3.21226 126.624 3.20088 126.661 3.19983ZM125.226 3.45839C125.128 3.45433 125.031 3.43881 124.937 3.41215C125.036 3.40378 125.135 3.41966 125.226 3.45839ZM124.283 3.38969L124.642 3.37715L124.282 3.34147C124.281 3.35756 124.281 3.3737 124.283 3.38969ZM127.111 3.1971C126.961 3.19445 126.811 3.1997 126.661 3.21281C126.805 3.15752 126.964 3.15198 127.111 3.1971ZM110.408 3.21674L110.371 3.21804C110.098 3.09459 110.27 3.14444 110.408 3.21674ZM123.047 3.03548L123.095 3.03381L122.946 2.96454L123.047 3.03548ZM115.794 3.00038C115.893 3.09533 115.927 3.15531 115.929 3.20313C115.811 3.19393 115.738 3.15127 115.794 3.00038Z" fill="black"/>
<path fill-rule="evenodd" clip-rule="evenodd" d="M77.8514 0.492227C76.0377 0.544836 73.6655 0.273676 71.834 0.200863C71.1498 0.14716 71.2025 0.553592 70.7182 0.25541C70.7537 0.279945 70.7181 0.345725 70.7196 0.389959C70.0808 0.378659 69.4421 0.41441 68.8086 0.496922C68.5911 0.413335 68.9397 0.336797 68.9381 0.291262C68.7388 0.341134 68.6023 0.504124 68.2301 0.442033C68.4684 0.278167 67.6807 0.222539 67.37 0.233389C67.5879 0.330369 68.0534 0.298022 67.9739 0.480477C67.8325 0.524616 67.6831 0.536939 67.5363 0.516564C67.3896 0.496189 67.2491 0.443621 67.1251 0.362622L67.3021 0.517347C66.4382 0.351746 66.5553 0.78747 65.6406 0.551232C65.5722 0.435622 66.0015 0.519855 65.9332 0.406924C65.023 0.221485 64.2426 0.605416 63.2281 0.428982C63.2851 0.448446 63.3939 0.492918 63.3464 0.516029L62.8495 0.493156C63.0248 0.521897 62.7579 0.635806 62.8571 0.710116C62.8208 0.824017 62.6006 0.737845 62.3943 0.745048C62.0542 0.526293 62.9183 0.391525 62.1741 0.275379C62.4263 0.585705 61.4049 0.363923 61.5344 0.54176C60.444 0.522374 59.3555 0.444907 58.2733 0.30969C58.2413 0.469033 57.9919 0.544788 57.9626 0.704037L57.6906 0.595536L57.6922 0.64107C57.2882 0.743679 56.9997 0.547254 57.2993 0.448293C57.4949 0.444144 57.5781 0.599464 57.762 0.413362C57.4695 0.560349 56.9091 0.255422 56.6276 0.49052C56.674 0.513037 56.6292 0.536055 56.6308 0.58159L56.2657 0.570204L56.2881 0.365608C54.8906 0.435862 53.3203 0.394154 52.2224 0.362768C51.6595 0.449467 50.7748 0.456228 50.6437 0.619031C49.9414 0.649096 49.2378 0.6117 48.5426 0.507358C48.2448 0.657211 47.1596 0.375974 47.2082 0.693409L46.7654 0.529195L46.7685 0.620265C46.3896 0.520862 46.5693 0.675493 46.2015 0.664201L46.1764 0.482716C45.8226 0.564798 45.0717 0.41134 44.4547 0.48116L44.4563 0.526695C44.1957 0.51434 44.1248 0.40418 43.878 0.479842L43.8488 0.641769C42.1636 0.491468 40.469 0.47621 38.7813 0.596142C37.7926 1.00344 37.0673 0.355636 36.1116 0.941459C35.7659 1.02594 35.5531 0.692782 36.0225 0.695163C32.9401 0.663352 29.5466 1.02053 26.4081 0.996043C24.1703 1.07875 21.9391 1.29098 19.7258 1.63166C19.6646 1.56944 19.8638 1.51153 19.9612 1.45985C19.4824 1.42025 19.7258 1.63166 19.6881 1.70271C19.3924 1.68145 19.1009 1.62129 18.821 1.52381L19.0132 1.42323C17.3914 1.45637 15.7754 1.62674 14.1823 1.93252L14.1588 1.79657C13.1163 1.81688 12.641 2.41275 11.4094 2.24121C11.5819 2.34246 11.9898 2.2719 11.7572 2.44629C10.2269 2.57472 8.71615 2.87579 7.25359 3.34373C7.32998 3.32898 7.40905 3.33799 7.48016 3.36955C7.55127 3.40111 7.611 3.45371 7.6513 3.52025L6.96668 3.49857C6.66638 3.65387 7.28397 3.52235 7.20312 3.66463C6.55165 3.82415 6.94326 3.3653 6.24165 3.54803C6.27915 3.77735 5.5875 3.70764 5.50238 3.80448C5.39801 3.8108 5.26327 3.63851 5.0711 3.74176C4.91787 3.73102 5.28679 3.77446 5.18937 3.82613L4.14742 3.86252C4.2209 3.96991 3.75882 4.02359 4.18742 4.08639C3.93098 4.42253 3.3776 3.93499 3.28252 4.28426L2.6857 4.16565C2.50011 4.30354 2.78998 4.15665 2.81082 4.29269L2.34208 4.30906C2.35865 4.39966 2.44396 4.53882 2.17611 4.54817C1.7625 4.53043 2.46143 4.3478 1.90461 4.45306C1.63629 4.44902 2.14799 4.66447 2.44443 4.55221L2.05325 4.71605L2.15771 4.7124C2.06297 4.76398 2.25443 4.9477 1.78301 4.96417L1.9416 4.97472C1.41031 5.15833 1.22742 4.83301 1.0043 4.70396L0.9741 4.71043C0.982243 4.70701 0.990461 4.7038 0.998747 4.70079C0.984415 4.69274 0.969904 4.68552 0.955113 4.67931C0.825233 4.8068 0.655942 4.88646 0.474917 4.90526L0.381386 4.64076C0.421762 4.8007 -0.0451053 4.60595 0.0228929 4.70918L0.342853 4.73287C-0.143074 4.94829 0.534168 5.21964 0.0317619 5.34714C0.114864 5.49978 0.268526 5.21551 0.642806 5.25875C0.515291 5.39953 0.736462 5.48146 0.93688 5.57188L1.56115 5.72011C1.39993 5.71583 1.24032 5.69131 1.08598 5.64743C1.1039 5.65839 1.12038 5.66968 1.13492 5.68138C6.16778 6.38295 11.2604 6.55387 16.329 6.19133C19.3057 6.11152 22.1223 5.9783 24.1915 5.86849L27.5884 5.68819C27.5884 5.68819 28.3011 5.35786 28.4413 5.56315C28.433 5.42165 28.7787 5.32749 29.1442 5.31473C29.4994 5.41196 29.8699 5.44089 30.2359 5.39996C30.2253 5.3969 30.2157 5.39088 30.2083 5.38259C30.2009 5.37431 30.1959 5.36411 30.1941 5.35315C30.5355 5.22323 30.9377 5.45323 31.3095 5.50192L31.6941 5.30077C32.0528 5.2745 32.4132 5.31839 32.7552 5.42999C34.3834 5.27825 36.0224 5.28208 37.6499 5.44142C37.9252 5.10999 39.0231 5.21647 39.5374 5.19851L39.5666 5.03658L39.9593 5.224C39.8911 5.11375 40.3509 5.07088 40.5459 4.97289L40.6238 5.12839C40.539 4.92754 41.2228 5.31129 41.1129 4.92895C41.8531 5.10678 42.6038 5.23732 43.3605 5.31978C43.2976 5.28443 43.2715 5.22902 43.2006 5.19395C44.02 5.4657 43.721 4.73865 44.5816 5.11355C45.8553 5.21015 47.1362 5.1456 48.3937 4.92142C48.5916 4.93044 48.7879 4.96136 48.9789 5.01362L48.274 5.17769L49.2465 5.07401L49.1378 5.03221C50.1007 5.02478 51.063 5.08076 52.0185 5.19979C53.8954 4.88216 56.1639 5.10331 57.8784 4.74307L58.0832 5.07919C58.1738 4.98753 58.1013 4.82915 58.3982 4.73029C58.4942 4.72941 58.5876 4.76205 58.6621 4.8226C58.7367 4.88314 58.7878 4.96779 58.8067 5.06197L59.1942 4.87144C59.2918 5.20862 60.3079 4.66092 60.5713 5.06203C60.7169 4.97679 60.8793 4.9241 61.0472 4.90759C61.2152 4.89108 61.3847 4.91114 61.5441 4.96638C61.6987 4.93952 61.4033 4.69775 61.88 4.75352C61.8145 5.02934 62.057 4.90824 62.386 5.03621C62.7646 5.0498 62.9211 4.77079 63.2933 4.83021L63.1301 4.76618C63.4649 4.71132 63.8082 4.74176 64.1282 4.85469C64.2438 4.94183 63.8381 4.99622 64.0556 5.08249C64.1964 4.96494 64.4933 4.86607 64.167 4.73801C64.414 4.67039 64.8946 4.76356 64.8653 4.92281L64.6159 4.99856L66.223 4.94244C65.9052 4.90259 66.3136 4.8481 66.3568 4.77954C66.5382 4.98239 67.1194 5.03718 67.2282 5.08166L67.4596 4.87244L67.5 4.95417C67.5044 4.92719 67.5492 4.90418 67.5781 4.88708L68.0185 5.05942C68.1335 4.97299 68.2688 4.91758 68.4114 4.89852C68.5539 4.87945 68.699 4.89736 68.8327 4.95054L68.5874 5.06905C68.783 5.06473 69.0935 4.9202 69.3222 5.04667C69.2946 5.01066 69.3433 4.97092 69.2955 4.91828C70.2336 4.85154 71.1759 4.87792 72.1088 4.99704L72.0544 4.9748C72.5069 4.96215 72.9577 5.03749 73.3815 5.19664C74.3684 5.19436 75.9682 5.15994 77.2049 5.0953L77.4337 5.27236L77.4657 5.11301C78.6133 5.18557 79.8122 4.8058 80.8539 4.83915L80.8193 4.99859C81.2667 4.83278 81.3073 5.1505 81.4257 4.85405L81.5454 4.86769C82.227 4.94533 82.7801 5.00835 83.4816 5.13089C83.459 4.94663 83.9334 5.0132 84.183 4.9428C84.6476 5.34494 84.798 4.89183 85.3923 5.09098L85.2835 5.04651C85.6489 5.06593 85.8041 5.13292 86.0729 5.15303L86.0698 5.06196C86.6304 4.98875 86.7033 5.15783 87.1158 5.14343C87.47 5.07206 87.0389 4.93694 87.6108 4.95719C87.6738 5.07031 88.0504 5.18052 88.2707 5.26937C88.0296 5.43065 88.7572 4.99225 89.1423 5.19334L89.0266 5.10352L89.5634 5.11696C89.5393 5.11044 89.518 5.09609 89.503 5.07616C90.0754 5.18758 90.0514 4.96046 90.8453 5.11778L90.7365 5.07331C91.4648 5.1176 92.3519 5.17781 92.9197 5.15798L92.9165 5.06691L93.7719 5.29181L93.6491 5.15664L94.1629 5.15724C94.0673 5.15617 94.0617 5.11227 94.1107 5.08957C94.7681 5.4072 95.3256 4.85942 96.1654 4.94809L96.0539 4.90371C96.1931 4.74331 96.6174 4.83576 96.9172 4.74216C96.9218 4.87609 97.1508 5.0585 97.4662 5.1038L97.2372 4.92139L97.6027 4.94349L97.5483 4.92126C97.5285 4.73958 97.862 4.92103 98.0029 4.80883C98.5275 4.85488 97.7617 4.96476 98.1774 4.96633C98.1006 4.76252 99.0218 5.10848 99.1972 4.83417L100.357 5.01895L100.291 4.90592C100.497 5.03668 100.741 5.09342 100.983 5.0668C101.088 5.06583 100.722 5.04105 100.664 4.97337C101.16 4.83802 101.829 5.2518 102.005 4.97749C102.292 4.97763 102.321 5.09985 102.286 5.17101C102.392 5.00921 103.059 5.15521 103.413 5.14286L103.239 4.98268C103.412 5.04029 103.597 5.05139 103.776 5.01487L103.759 5.01202C103.648 4.99301 103.536 4.97371 103.533 4.89462C104.019 4.87685 104.505 4.89392 104.988 4.94571C104.954 4.95496 104.99 4.98857 104.991 5.01267C105.671 4.96995 106.354 5.021 107.021 5.16437C106.863 5.0948 106.395 5.06822 106.745 4.95676C107.426 5.02953 107.081 5.18642 107.664 5.3055C107.757 5.21642 107.29 5.18984 107.586 5.05615L108.13 5.28654L108.11 5.10487C109.431 5.36716 110.855 4.6872 111.945 5.18549L111.865 5.4109C112.304 5.16224 112.748 5.43637 113.074 5.10048L113.187 5.1904L113.374 5.00956L113.612 5.28553L113.605 5.10339L113.901 5.20302C113.875 5.16368 113.949 5.11017 113.909 5.06327C114.558 5.34368 114.407 4.87961 115.054 5.1252C114.997 5.10306 114.891 5.05582 114.938 5.0327C115.635 5.24705 115.759 4.9531 116.494 5.05613L116.374 4.91819C116.62 4.90216 116.866 4.92156 117.106 4.97578L116.962 5.08807L117.358 4.91065L117.631 5.02986L117.627 4.93879C118.422 5.10415 117.992 4.92072 118.783 5.09152C118.677 5.04428 118.614 4.92848 118.816 4.88655C118.974 4.95489 119.522 4.89805 119.892 4.96808C119.772 4.9407 119.894 4.88447 119.946 4.86039L119.952 4.8576C120.159 4.86112 120.378 5.00095 120.285 5.09003L119.974 5.08481C120.404 5.26289 120.265 4.90836 120.737 4.98306C120.705 5.1424 120.705 5.1424 121.068 5.16995L120.797 5.09627C120.882 4.91631 121.787 5.17435 121.296 4.92334C121.598 4.83767 121.762 4.99822 122.031 5.02637L121.783 5.13427L123.028 5.16051C123.017 5.06972 122.911 5.02247 122.954 4.95392L123.225 5.0276L123.116 4.98045C123.763 4.69772 124.18 5.27583 124.82 4.94775L124.783 5.1046L124.826 5.03872C125.018 5.15807 125.26 5.01018 125.34 5.14684C125.363 4.97975 126.026 5.14433 126.383 5.07019C126.506 5.20803 126.56 5.23295 126.926 5.26308C127.435 5.17022 127.481 5.11764 127.667 4.89395C128.232 5.05346 128.814 5.14918 129.401 5.17933C129.405 5.22477 129.49 5.04481 129.177 4.99406C129.732 4.83254 130.239 5.28953 130.995 5.05662L130.958 5.21347C131.478 5.22479 130.873 4.87315 131.511 5.01982L131.422 5.15434C131.676 5.19539 131.934 5.216 132.191 5.21598C132.052 5.06798 132.656 5.16756 132.343 5.03368L132.661 5.08425L132.66 5.03871C132.921 5.06178 133.134 5.11064 133.041 5.19972L133.289 5.08915L133.363 5.29306C133.724 5.27239 133.45 5.15863 133.802 5.0444L134.132 5.1804L134.13 5.13487L134.484 5.23671C134.18 5.14371 134.065 4.92818 134.356 4.83736C134.676 4.8798 134.76 5.12628 135.167 5.02893C134.474 4.92976 135.875 4.87549 135.221 4.665C136.081 4.78783 136.29 4.71348 137.076 4.8684C136.95 4.64216 137.181 4.65823 137.487 4.66096C137.775 4.69406 138.067 4.65057 138.333 4.53488L138.305 4.41787C138.448 4.34383 138.585 4.25739 138.714 4.15953C138.813 4.0783 138.91 4.00252 138.974 3.93321L139.072 3.8118C138.724 4.13773 139.049 3.60612 138.898 3.59529C139.096 3.46941 139.271 3.31198 139.418 3.12926C139.279 3.21401 139.132 3.28304 138.978 3.33506C138.915 3.23533 139.022 3.13775 139.122 3.01089C139.103 3.00887 139.103 3.00351 139.102 2.98744L139.126 2.91929C139.115 2.93323 139.105 2.94706 139.094 2.96077C139.107 2.93447 139.12 2.90609 139.132 2.87843C139.143 2.85197 139.155 2.82617 139.167 2.80345L139.197 2.71594L139.254 2.427C139.17 2.32802 138.968 2.90631 138.955 2.55007C138.986 2.39816 139.042 2.25241 139.121 2.11867C139.093 2.16449 139.046 2.16727 139.022 2.21522C139.134 1.97499 139.227 1.72601 139.299 1.47073C139.328 1.31537 139.311 1.15478 139.25 1.00905C139.188 0.863323 139.085 0.738928 138.954 0.651425C139.179 1.196 138.93 0.974064 138.845 1.22912C138.77 0.845563 138.673 1.15466 138.553 1.02207L138.702 0.906922L138.843 0.786695C138.519 0.414516 138.554 0.882603 138.373 0.837978C138.365 0.688074 138.026 0.506819 138.201 0.45511C138.112 0.431412 137.882 0.299985 137.995 0.532048C137.622 0.381472 137.772 0.236764 137.736 0.109317C136.911 0.140805 137.222 -0.0255869 136.391 0.00340928C136.517 0.157233 136.917 0.553578 137.254 0.372859C137.32 0.550072 136.968 0.736857 136.743 0.53946C136.751 0.546165 136.758 0.552693 136.766 0.55904C136.869 0.645122 136.997 0.697936 137.132 0.709672C137.196 0.616264 137.257 0.380801 137.61 0.569624C137.706 0.727155 137.583 0.80655 137.517 0.897373C137.45 0.988197 137.441 1.03678 137.637 1.19621L137.709 1.19369C137.677 1.11704 137.598 1.08761 137.627 0.979345C137.782 0.73525 137.761 1.2053 137.895 0.969991C137.963 1.00831 138.015 1.06952 138.042 1.14273C138.069 1.21594 138.069 1.29639 138.043 1.36977C138.018 1.51276 137.945 1.64137 137.949 1.7619C138.103 1.86648 138.164 1.78656 138.19 1.68642C138.216 1.58629 138.22 1.4628 138.349 1.5334C138.361 1.63021 138.364 1.72793 138.359 1.82536C138.386 1.58843 138.456 1.61011 138.539 1.69034C138.603 1.752 138.672 1.85627 138.723 1.86876C138.736 1.86258 138.75 1.85678 138.765 1.85141C138.753 1.86791 138.739 1.87245 138.723 1.86876C138.458 1.99948 138.729 2.29657 138.374 2.11177C138.309 2.39617 138.176 2.66091 137.988 2.8842C137.825 3.1125 137.65 3.2527 137.659 3.50448C137.404 3.43827 137.766 3.35055 137.434 3.36215C137.366 3.56298 136.958 3.55041 136.723 3.58543C136.835 3.71562 136.764 3.76635 136.536 3.75556C136.466 3.69093 136.54 3.5784 136.071 3.57334C136.087 3.66394 135.935 3.69338 135.895 3.76184C135.737 3.76736 135.673 3.71326 135.671 3.65701L135.485 3.77615L135.053 3.6062L135.054 3.65174C134.434 3.6171 134.978 3.4506 135.17 3.35538L134.862 3.36614C135.19 3.15624 134.384 3.12537 134.115 3.10258C134.428 3.1453 134.298 3.35096 134.473 3.50846C134.484 3.59925 134.117 3.53429 134.019 3.58061C133.652 3.51298 134.106 3.4435 134.04 3.33048L133.641 3.42219L133.747 3.46675C133.571 3.58287 133.364 3.64507 133.153 3.64574C132.938 3.55402 133.442 3.4667 133.281 3.39722C133.359 3.55808 132.597 3.61956 133.027 3.80567C132.988 3.91699 132.625 3.88944 132.566 3.82176C132.908 3.61995 131.572 3.63567 131.97 3.33378C131.82 3.37588 131.418 3.12973 131.327 3.1329C131.357 3.04874 131.393 3.01261 131.524 2.99463C131.496 2.97977 131.474 2.95723 131.46 2.92982L131.803 2.77838C131.346 2.83455 131.199 2.9014 131.22 3.1286C130.7 3.07166 131.052 3.0111 130.528 2.90871C130.744 3.02453 130.673 3.04581 130.533 3.05067C130.754 3.17059 130.991 3.25805 131.237 3.31037C130.573 3.26919 130.858 3.75804 131.128 3.78619C130.871 3.80588 130.731 3.95825 130.416 3.90759L130.183 3.62875L130.053 3.87468C129.845 3.91412 129.528 3.81792 129.569 3.70383C130.101 3.60881 129.34 3.17875 129.39 3.07883C129.363 3.10542 129.349 3.13576 129.339 3.16519C129.402 3.18668 129.454 3.22157 129.486 3.27772C129.438 3.2489 129.381 3.23007 129.32 3.21782C129.301 3.26487 129.271 3.2999 129.169 3.29677C129.248 3.33959 129.272 3.40849 129.174 3.44945C128.767 3.3108 128.49 3.50286 128.48 3.22161L128.273 3.22881C128.474 3.14135 128.159 3.08801 128.1 3.02033L127.954 3.13003L127.582 2.85606C127.146 2.87722 126.714 2.94173 126.291 3.04865L126.123 2.93114C126.027 3.02031 126.055 3.29287 125.689 3.26273C125.614 3.01061 124.852 3.15254 124.771 2.85766C124.549 3.2382 123.931 2.74756 124.027 3.18135C123.552 3.10406 122.929 3.09094 122.899 2.77285L122.921 2.99895C122.919 2.9865 122.916 2.97579 122.911 2.96661C122.855 2.86665 122.585 2.94847 122.43 2.93673C122.437 3.13762 121.554 2.87079 121.548 3.23573C121.125 3.17274 121.365 2.98199 121.461 2.89282C121.305 2.97871 121.132 3.02998 120.954 3.04312C120.776 3.05627 120.598 3.03099 120.431 2.96901C120.325 2.92176 119.8 2.86768 119.737 2.75456L119.928 2.62184L119.443 2.93111C119.315 2.66201 118.901 3.01974 118.434 2.92074C118.502 2.95322 118.56 2.99412 118.52 3.00891L117.998 2.95474C117.874 2.77136 118.383 2.68921 118.32 2.57341C117.531 2.49368 116.846 2.84745 116.972 3.07637C116.762 2.938 116.524 2.84914 116.274 2.81648L116.474 2.77465C115.698 2.83124 115.651 2.3287 114.604 2.22313C114.587 2.04136 115.218 2.14269 114.992 1.9575C114.566 1.85534 114.121 1.87089 113.703 2.00249C114.043 2.27759 113.257 2.20044 113.49 2.43097C113.075 2.4294 113.257 2.20312 112.985 2.08658C113.091 2.13383 113.024 2.44993 112.983 2.56401L112.258 2.55713C112.189 2.48982 112.395 2.40217 112.184 2.35322C112.103 2.40756 112.01 2.44264 111.913 2.45578C111.816 2.46893 111.717 2.45981 111.624 2.42911C111.589 2.5081 111.173 2.51188 111.014 2.54696C110.844 2.52071 110.606 2.24741 110.474 2.45049C110.632 2.4289 110.64 2.52514 110.745 2.52149L110.29 2.63123C110.632 2.43158 109.437 2.3982 109.892 2.28846C109.8 2.22639 109.696 2.18555 109.587 2.16894C109.478 2.15234 109.367 2.16038 109.261 2.19249C109.572 2.19503 109.378 2.33052 109.437 2.3982C109.142 2.4115 108.847 2.40119 108.554 2.36737C108.18 2.25439 108.436 2.23469 108.526 2.10017L107.799 2.09338C107.476 2.00005 108.21 1.95835 107.67 1.86455C107.854 1.97882 107.453 2.25563 107.119 2.21633C107.202 2.27781 107.157 2.38128 107.402 2.2708C107.464 2.34106 107.418 2.40703 107.27 2.47387C106.726 2.2408 106.581 1.87574 105.594 1.84588C105.185 1.74699 104.768 2.01767 104.663 1.77754L104.657 1.77803C104.657 1.78331 104.658 1.78858 104.658 1.79382C104.658 1.79435 104.658 1.79487 104.659 1.7954L103.978 1.72531C104.045 1.88387 104.495 1.72601 104.461 1.88545C103.842 1.92313 103.827 1.78689 103.427 1.92155C103.696 1.94434 104.054 1.92377 103.969 2.10373C103.484 2.0846 103.004 1.99942 102.542 1.85054C102.51 1.81404 102.523 1.7723 102.564 1.73799C102.555 1.73984 102.546 1.74147 102.537 1.74286C102.553 1.73353 102.568 1.72509 102.585 1.71758C102.147 1.7298 101.708 1.71198 101.272 1.66424L101.096 1.46121C101.742 1.21071 101.734 1.59717 102.286 1.44111C102.105 1.23559 101.448 1.39262 101.128 1.30187C101.1 1.50665 100.798 1.59499 100.65 1.66452C100.305 1.6283 99.9569 1.65776 99.6232 1.75133C99.2993 1.61246 100.043 1.7045 99.5015 1.56785C98.6669 1.47364 99.5496 2.40825 98.7064 1.83698L98.7886 1.65711C98.57 1.6764 98.106 1.69412 98.0116 1.59354C98.0132 1.76855 97.3563 1.53302 97.7618 1.74392L97.7602 1.69839C97.9123 1.67698 97.9236 1.76777 97.9822 1.83545C97.8615 2.12206 97.3 1.97791 96.8971 2.05571C96.948 2.05428 97.0237 2.08374 97.0714 2.10236L97.0799 2.10564C96.5053 2.16325 96.8514 2.01439 96.2683 1.90335C96.2026 1.79032 96.3968 2.12949 95.9727 2.03971C95.6646 1.94956 95.8756 1.87179 95.9258 1.75967C95.88 1.73524 95.8359 1.70734 95.7938 1.67608C95.7746 1.67655 95.7551 1.67723 95.7351 1.67792C95.6671 1.6803 95.5941 1.68285 95.5122 1.67766L95.4392 1.45346C95.4423 1.53425 95.1589 1.49313 94.9109 1.43048C95.3419 1.56293 95.3717 1.80325 95.6088 2.06315C95.8068 1.9731 95.9823 2.08497 95.9855 2.17604C95.2742 2.31351 95.0506 1.74742 94.6142 1.99865C94.6467 1.8527 94.5565 1.8049 94.8861 1.72098C94.7604 1.73073 94.6348 1.58762 94.4021 1.5287L94.5109 1.57318C93.9344 1.57454 93.4227 1.74526 93.0346 1.53623C93.0466 1.57068 93.0318 1.60874 93.0644 1.62101C92.4385 1.667 92.7043 1.59872 92.1632 1.46475L92.4369 1.62147C92.2501 1.8023 91.9733 1.55452 91.7059 1.57727C91.5314 1.41977 91.8927 1.39643 91.9359 1.32787C91.7837 1.34928 91.5869 1.0102 91.3025 1.23736C91.4546 1.21595 91.6717 1.21373 91.6749 1.3048C91.3262 1.32966 90.9759 1.31581 90.6303 1.26351L90.904 1.42291C90.4236 1.50874 90.4651 1.31292 90.121 1.29282L90.0725 1.31108L90.0733 1.3144C90.0889 1.37594 90.099 1.41615 89.7644 1.42784L89.6918 1.26946C89.2333 1.34716 89.6489 1.34605 89.3101 1.55097C88.9737 1.50312 88.6543 1.37338 88.3798 1.17315C88.0436 1.3753 87.4036 1.25015 86.9561 1.41327C86.6952 1.39288 86.5181 1.23548 86.2183 1.32908C86.2433 1.12439 85.7887 1.23681 85.7579 0.969709C86.1511 0.787025 86.214 1.28364 86.3799 0.96408C86.3756 0.918638 85.9601 0.922422 85.7424 0.833478L85.8512 0.87795C84.5684 1.0032 84.3587 0.144307 82.9824 0.35864C82.9461 0.472541 83.2027 0.44749 83.1094 0.539249C82.6502 0.600872 82.8257 0.326566 82.4105 0.341064L80.5324 0.315469C81.3399 0.555448 80.1394 0.50351 80.1004 0.617505L79.9191 0.417338C79.572 0.536732 80.1394 0.50351 79.9416 0.598917L79.4605 0.492354L79.3992 0.810945C78.8667 0.813615 78.3395 0.705058 77.8514 0.492227ZM104.027 4.67077C103.944 4.62254 103.852 4.59369 103.756 4.58638C103.89 4.57902 103.992 4.59422 104.027 4.67077ZM134.493 3.57214L134.23 3.73417C134.233 3.65631 134.324 3.59143 134.493 3.57214ZM137.764 0.478447C137.777 0.476179 137.791 0.475711 137.804 0.477057C137.804 0.484519 137.787 0.48264 137.764 0.478447ZM139.093 2.92609L139.008 3.0301C139.032 3.04289 139.051 3.00559 139.078 2.95403L139.093 2.92609ZM62.8855 0.808441L62.7044 0.801467C62.7648 0.798228 62.8254 0.800563 62.8855 0.808441ZM104.902 4.62414C105.055 4.65604 105.064 4.63176 105.047 4.59513C105.032 4.59825 105.016 4.60223 104.999 4.60625C104.965 4.61463 104.931 4.62313 104.902 4.62414ZM101.009 2.82329C100.95 2.79876 100.914 2.76544 100.926 2.7145C101.004 2.75963 101.022 2.7936 101.009 2.82329ZM126.661 3.19983L126.558 3.23267C126.588 3.21226 126.624 3.20088 126.661 3.19983ZM125.226 3.45839C125.128 3.45433 125.031 3.43881 124.937 3.41215C125.036 3.40378 125.135 3.41966 125.226 3.45839ZM124.283 3.38969L124.642 3.37715L124.282 3.34147C124.281 3.35756 124.281 3.3737 124.283 3.38969ZM127.111 3.1971C126.961 3.19445 126.811 3.1997 126.661 3.21281C126.805 3.15752 126.964 3.15198 127.111 3.1971ZM110.408 3.21674L110.371 3.21804C110.098 3.09459 110.27 3.14444 110.408 3.21674ZM123.047 3.03548L123.095 3.03381L122.946 2.96454L123.047 3.03548ZM115.794 3.00038C115.893 3.09533 115.927 3.15531 115.929 3.20313C115.811 3.19393 115.738 3.15127 115.794 3.00038Z" fill="url(#paint37_linear_164_114)"/>
<defs>
<linearGradient id="paint0_linear_164_114" x1="13.4352" y1="4.05814" x2="13.5441" y2="8.34664" gradientUnits="userSpaceOnUse">
<stop offset="0.106062" stop-color="#9F4222"/>
<stop offset="0.672496" stop-color="#D9B152"/>
</linearGradient>
<linearGradient id="paint1_linear_164_114" x1="13.4352" y1="4.05814" x2="13.5441" y2="8.34664" gradientUnits="userSpaceOnUse">
<stop offset="0.106062" stop-color="#9F4222"/>
<stop offset="0.672496" stop-color="#D9B152"/>
</linearGradient>
<linearGradient id="paint2_linear_164_114" x1="13.4352" y1="4.05814" x2="13.5441" y2="8.34664" gradientUnits="userSpaceOnUse">
<stop offset="0.106062" stop-color="#9F4222"/>
<stop offset="0.672496" stop-color="#D9B152"/>
</linearGradient>
<linearGradient id="paint3_linear_164_114" x1="13.4352" y1="4.05814" x2="13.5441" y2="8.34664" gradientUnits="userSpaceOnUse">
<stop offset="0.106062" stop-color="#9F4222"/>
<stop offset="0.672496" stop-color="#D9B152"/>
</linearGradient>
<linearGradient id="paint4_linear_164_114" x1="13.4352" y1="4.05814" x2="13.5441" y2="8.34664" gradientUnits="userSpaceOnUse">
<stop offset="0.106062" stop-color="#9F4222"/>
<stop offset="0.672496" stop-color="#D9B152"/>
</linearGradient>
<linearGradient id="paint5_linear_164_114" x1="13.4352" y1="4.05814" x2="13.5441" y2="8.34664" gradientUnits="userSpaceOnUse">
<stop offset="0.106062" stop-color="#9F4222"/>
<stop offset="0.672496" stop-color="#D9B152"/>
</linearGradient>
<linearGradient id="paint6_linear_164_114" x1="13.4352" y1="4.05814" x2="13.5441" y2="8.34664" gradientUnits="userSpaceOnUse">
<stop offset="0.106062" stop-color="#9F4222"/>
<stop offset="0.672496" stop-color="#D9B152"/>
</linearGradient>
<linearGradient id="paint7_linear_164_114" x1="13.4352" y1="4.05814" x2="13.5441" y2="8.34664" gradientUnits="userSpaceOnUse">
<stop offset="0.106062" stop-color="#9F4222"/>
<stop offset="0.672496" stop-color="#D9B152"/>
</linearGradient>
<linearGradient id="paint8_linear_164_114" x1="13.4352" y1="4.05814" x2="13.5441" y2="8.34664" gradientUnits="userSpaceOnUse">
<stop offset="0.106062" stop-color="#9F4222"/>
<stop offset="0.672496" stop-color="#D9B152"/>
</linearGradient>
<linearGradient id="paint9_linear_164_114" x1="13.4352" y1="4.05814" x2="13.5441" y2="8.34664" gradientUnits="userSpaceOnUse">
<stop offset="0.106062" stop-color="#9F4222"/>
<stop offset="0.672496" stop-color="#D9B152"/>
</linearGradient>
<linearGradient id="paint10_linear_164_114" x1="13.4352" y1="4.05814" x2="13.5441" y2="8.34664" gradientUnits="userSpaceOnUse">
<stop offset="0.106062" stop-color="#9F4222"/>
<stop offset="0.672496" stop-color="#D9B152"/>
</linearGradient>
<linearGradient id="paint11_linear_164_114" x1="13.4352" y1="4.05814" x2="13.5441" y2="8.34664" gradientUnits="userSpaceOnUse">
<stop offset="0.106062" stop-color="#9F4222"/>
<stop offset="0.672496" stop-color="#D9B152"/>
</linearGradient>
<linearGradient id="paint12_linear_164_114" x1="13.4352" y1="4.05814" x2="13.5441" y2="8.34664" gradientUnits="userSpaceOnUse">
<stop offset="0.106062" stop-color="#9F4222"/>
<stop offset="0.672496" stop-color="#D9B152"/>
</linearGradient>
<linearGradient id="paint13_linear_164_114" x1="13.4352" y1="4.05814" x2="13.5441" y2="8.34664" gradientUnits="userSpaceOnUse">
<stop offset="0.106062" stop-color="#9F4222"/>
<stop offset="0.672496" stop-color="#D9B152"/>
</linearGradient>
<linearGradient id="paint14_linear_164_114" x1="13.4352" y1="4.05814" x2="13.5441" y2="8.34664" gradientUnits="userSpaceOnUse">
<stop offset="0.106062" stop-color="#9F4222"/>
<stop offset="0.672496" stop-color="#D9B152"/>
</linearGradient>
<linearGradient id="paint15_linear_164_114" x1="13.4352" y1="4.05814" x2="13.5441" y2="8.34664" gradientUnits="userSpaceOnUse">
<stop offset="0.106062" stop-color="#9F4222"/>
<stop offset="0.672496" stop-color="#D9B152"/>
</linearGradient>
<linearGradient id="paint16_linear_164_114" x1="13.4352" y1="4.05814" x2="13.5441" y2="8.34664" gradientUnits="userSpaceOnUse">
<stop offset="0.106062" stop-color="#9F4222"/>
<stop offset="0.672496" stop-color="#D9B152"/>
</linearGradient>
<linearGradient id="paint17_linear_164_114" x1="13.4352" y1="4.05814" x2="13.5441" y2="8.34664" gradientUnits="userSpaceOnUse">
<stop offset="0.106062" stop-color="#9F4222"/>
<stop offset="0.672496" stop-color="#D9B152"/>
</linearGradient>
<linearGradient id="paint18_linear_164_114" x1="13.4352" y1="4.05814" x2="13.5441" y2="8.34664" gradientUnits="userSpaceOnUse">
<stop offset="0.106062" stop-color="#9F4222"/>
<stop offset="0.672496" stop-color="#D9B152"/>
</linearGradient>
<linearGradient id="paint19_linear_164_114" x1="13.4352" y1="4.05814" x2="13.5441" y2="8.34664" gradientUnits="userSpaceOnUse">
<stop offset="0.106062" stop-color="#9F4222"/>
<stop offset="0.672496" stop-color="#D9B152"/>
</linearGradient>
<linearGradient id="paint20_linear_164_114" x1="13.4352" y1="4.05814" x2="13.5441" y2="8.34664" gradientUnits="userSpaceOnUse">
<stop offset="0.106062" stop-color="#9F4222"/>
<stop offset="0.672496" stop-color="#D9B152"/>
</linearGradient>
<linearGradient id="paint21_linear_164_114" x1="13.4352" y1="4.05814" x2="13.5441" y2="8.34664" gradientUnits="userSpaceOnUse">
<stop offset="0.106062" stop-color="#9F4222"/>
<stop offset="0.672496" stop-color="#D9B152"/>
</linearGradient>
<linearGradient id="paint22_linear_164_114" x1="13.4352" y1="4.05814" x2="13.5441" y2="8.34664" gradientUnits="userSpaceOnUse">
<stop offset="0.106062" stop-color="#9F4222"/>
<stop offset="0.672496" stop-color="#D9B152"/>
</linearGradient>
<linearGradient id="paint23_linear_164_114" x1="13.4352" y1="4.05814" x2="13.5441" y2="8.34664" gradientUnits="userSpaceOnUse">
<stop offset="0.106062" stop-color="#9F4222"/>
<stop offset="0.672496" stop-color="#D9B152"/>
</linearGradient>
<linearGradient id="paint24_linear_164_114" x1="13.4352" y1="4.05814" x2="13.5441" y2="8.34664" gradientUnits="userSpaceOnUse">
<stop offset="0.106062" stop-color="#9F4222"/>
<stop offset="0.672496" stop-color="#D9B152"/>
</linearGradient>
<linearGradient id="paint25_linear_164_114" x1="13.4352" y1="4.05814" x2="13.5441" y2="8.34664" gradientUnits="userSpaceOnUse">
<stop offset="0.106062" stop-color="#9F4222"/>
<stop offset="0.672496" stop-color="#D9B152"/>
</linearGradient>
<linearGradient id="paint26_linear_164_114" x1="13.4352" y1="4.05814" x2="13.5441" y2="8.34664" gradientUnits="userSpaceOnUse">
<stop offset="0.106062" stop-color="#9F4222"/>
<stop offset="0.672496" stop-color="#D9B152"/>
</linearGradient>
<linearGradient id="paint27_linear_164_114" x1="13.4352" y1="4.05814" x2="13.5441" y2="8.34664" gradientUnits="userSpaceOnUse">
<stop offset="0.106062" stop-color="#9F4222"/>
<stop offset="0.672496" stop-color="#D9B152"/>
</linearGradient>
<linearGradient id="paint28_linear_164_114" x1="13.4352" y1="4.05814" x2="13.5441" y2="8.34664" gradientUnits="userSpaceOnUse">
<stop offset="0.106062" stop-color="#9F4222"/>
<stop offset="0.672496" stop-color="#D9B152"/>
</linearGradient>
<linearGradient id="paint29_linear_164_114" x1="13.4352" y1="4.05814" x2="13.5441" y2="8.34664" gradientUnits="userSpaceOnUse">
<stop offset="0.106062" stop-color="#9F4222"/>
<stop offset="0.672496" stop-color="#D9B152"/>
</linearGradient>
<linearGradient id="paint30_linear_164_114" x1="13.4352" y1="4.05814" x2="13.5441" y2="8.34664" gradientUnits="userSpaceOnUse">
<stop offset="0.106062" stop-color="#9F4222"/>
<stop offset="0.672496" stop-color="#D9B152"/>
</linearGradient>
<linearGradient id="paint31_linear_164_114" x1="13.4352" y1="4.05814" x2="13.5441" y2="8.34664" gradientUnits="userSpaceOnUse">
<stop offset="0.106062" stop-color="#9F4222"/>
<stop offset="0.672496" stop-color="#D9B152"/>
</linearGradient>
<linearGradient id="paint32_linear_164_114" x1="13.4352" y1="4.05814" x2="13.5441" y2="8.34664" gradientUnits="userSpaceOnUse">
<stop offset="0.106062" stop-color="#9F4222"/>
<stop offset="0.672496" stop-color="#D9B152"/>
</linearGradient>
<linearGradient id="paint33_linear_164_114" x1="13.4352" y1="4.05814" x2="13.5441" y2="8.34664" gradientUnits="userSpaceOnUse">
<stop offset="0.106062" stop-color="#9F4222"/>
<stop offset="0.672496" stop-color="#D9B152"/>
</linearGradient>
<linearGradient id="paint34_linear_164_114" x1="13.4352" y1="4.05814" x2="13.5441" y2="8.34664" gradientUnits="userSpaceOnUse">
<stop offset="0.106062" stop-color="#9F4222"/>
<stop offset="0.672496" stop-color="#D9B152"/>
</linearGradient>
<linearGradient id="paint35_linear_164_114" x1="13.4352" y1="4.05814" x2="13.5441" y2="8.34664" gradientUnits="userSpaceOnUse">
<stop offset="0.106062" stop-color="#9F4222"/>
<stop offset="0.672496" stop-color="#D9B152"/>
</linearGradient>
<linearGradient id="paint36_linear_164_114" x1="13.4352" y1="4.05814" x2="13.5441" y2="8.34664" gradientUnits="userSpaceOnUse">
<stop offset="0.106062" stop-color="#9F4222"/>
<stop offset="0.672496" stop-color="#D9B152"/>
</linearGradient>
<linearGradient id="paint37_linear_164_114" x1="13.4352" y1="4.05814" x2="13.5441" y2="8.34664" gradientUnits="userSpaceOnUse">
<stop offset="0.106062" stop-color="#9F4222"/>
<stop offset="0.672496" stop-color="#D9B152"/>
</linearGradient>
</defs>
</svg>
