<svg width="210" height="261" viewBox="0 0 210 261" fill="none" xmlns="http://www.w3.org/2000/svg">
<path d="M151.474 12.6129C151.546 12.6005 151.619 12.5887 151.691 12.5776C152.279 12.4874 153.516 12.2985 154.997 12.347C156.401 12.3929 157.579 12.6411 158.066 12.7437L158.12 12.7552C161.988 13.5668 165.208 16.2305 166.73 19.8775C168.171 23.3301 168.962 26.8382 169.499 29.6992C169.761 31.0946 169.987 32.479 170.185 33.6909L170.209 33.837C170.422 35.1378 170.603 36.2339 170.799 37.2574L170.814 37.335C172.123 44.4012 173.586 51.4426 175.203 58.4593C175.939 61.654 175.336 65.0107 173.534 67.7494C171.732 70.4882 168.888 72.3705 165.663 72.9589C160.554 73.8911 155.285 74.9153 149.936 75.9551C144.28 77.0545 138.534 78.1714 132.793 79.2154C133.409 82.5662 134.085 85.9378 134.781 89.4061C135.53 93.1395 136.301 96.9848 137.044 101.037C141.371 123.648 145.48 146.289 149.371 168.962C159.653 167.672 169.966 166.595 180.309 165.73C186.71 165.195 192.397 169.795 193.212 176.167C194.777 188.413 196.115 200.679 197.224 212.965C197.73 218.566 194.278 223.767 188.92 225.476C182.635 227.481 175.865 228.727 169.644 229.713C167.177 230.103 164.866 230.444 162.652 230.771C158.929 231.321 155.482 231.829 152.035 232.465C120.639 238.251 89.2774 243.625 57.811 248.838C52.4475 249.726 47.1567 246.898 44.9163 241.944C44.2018 240.365 43.4753 238.161 43.1984 237.321C43.1965 237.315 43.1947 237.309 43.1929 237.304C42.2914 235.214 41.3413 233.056 40.3675 230.844C36.5079 222.077 32.278 212.47 29.2399 202.923C28.2501 199.813 28.5699 196.434 30.1258 193.564C31.6816 190.695 34.3392 188.583 37.4858 187.716C46.0584 185.352 54.7803 183.718 62.9936 182.208C63.4361 182.127 63.877 182.046 64.3164 181.965C68.4904 181.199 72.5281 180.458 76.4693 179.657C75.4596 173.449 74.0945 167.029 72.6918 160.432C71.7317 155.916 70.754 151.318 69.8605 146.648L151.474 12.6129ZM151.474 12.6129L21.9939 34.9082C18.8516 35.4493 16.0538 37.2188 14.2182 39.826C12.3826 42.4332 11.6601 45.6638 12.2102 48.8046C13.1269 54.0379 14.0864 58.9355 15.0193 63.6971C16.4893 71.2003 17.8932 78.366 18.9592 85.9758C19.4167 89.2418 21.1981 92.1756 23.8849 94.0878M151.474 12.6129L23.8849 94.0878M23.8849 94.0878C26.5718 96.0001 29.9272 96.7223 33.1628 96.0848M23.8849 94.0878L33.1628 96.0848M33.1628 96.0848C41.9772 94.3481 50.816 92.7183 59.6794 91.1952M33.1628 96.0848L59.6794 91.1952M59.6794 91.1952C61.2694 99.6331 62.7722 107.968 64.284 116.353C66.0764 126.294 67.8816 136.307 69.8604 146.647L59.6794 91.1952Z" fill="#FAF6C9" stroke="#CC5A2B" stroke-width="24" stroke-linejoin="round"/>
</svg>
