<svg width="695" height="311" viewBox="0 0 695 311" fill="none" xmlns="http://www.w3.org/2000/svg">
<mask id="path-1-outside-1_110_645" maskUnits="userSpaceOnUse" x="-1" y="0" width="696" height="312" fill="black">
<rect fill="white" x="-1" width="696" height="312"/>
<path d="M550.489 118.037L552.223 117.979C553.815 119.782 551.711 135.626 551.683 138.713C551.657 141.734 551.899 144.62 552.372 147.602C555.76 145.048 558.743 141.934 561.966 139.185C569.128 133.076 577.891 127.356 586.846 124.132C598.611 119.898 611.292 119.451 622.783 124.764C638.094 131.842 647.394 147.499 652.777 162.573C659.125 180.353 657.377 196.429 653.659 214.488C649.758 233.422 644.947 247.61 636.41 265.1C624.067 259.999 612.155 253.241 599.504 248.971C603.744 235.084 607.189 221.443 610.204 207.234C610.771 203.959 611.32 200.681 611.851 197.401C613.301 188.367 616.134 172.332 609.932 164.488C607.865 161.874 605.028 160.606 601.7 160.362C590.057 159.511 576.237 166.746 567.652 173.887C562.617 178.075 556.728 183.841 554.037 189.842C551.572 195.335 548.629 241.004 547.792 250.59C532.474 251.517 517.085 251.407 501.749 252.027C503.575 208.012 508.124 164.069 510.228 120.046C523.651 119.523 537.074 118.727 550.489 118.037Z"/>
<path d="M418.629 112.055C420.127 112.066 421.624 112.102 423.121 112.164C448.025 113.246 469.404 122.647 489.181 137.07C493.819 140.453 498.881 143.954 502.713 148.209C504.193 149.853 506.085 152.255 505.682 154.606C505.07 158.187 501.149 161.609 498.439 163.876C474.453 183.943 436.591 209.306 403.848 205.825C398.326 205.238 395.401 203.218 392.031 199.013C398.884 194.296 406.273 190.399 413.383 186.075C428.217 177.052 441.185 166.913 453.033 154.286C452.303 153.808 451.582 153.357 450.825 152.923C450.027 152.468 449.219 152.033 448.399 151.618C447.58 151.203 446.751 150.808 445.911 150.434C445.071 150.06 444.223 149.706 443.365 149.374C442.507 149.042 441.642 148.731 440.768 148.441C439.895 148.151 439.014 147.883 438.127 147.637C437.24 147.391 436.347 147.167 435.448 146.964C434.549 146.762 433.646 146.583 432.738 146.425C431.831 146.267 430.92 146.132 430.004 146.019C429.09 145.906 428.173 145.816 427.254 145.75C426.334 145.682 425.414 145.637 424.492 145.615C423.571 145.593 422.649 145.594 421.728 145.617C420.806 145.641 419.886 145.687 418.966 145.756C418.048 145.825 417.131 145.916 416.215 146.029C415.301 146.144 414.39 146.28 413.482 146.439C412.575 146.598 411.672 146.78 410.774 146.984C409.875 147.187 408.983 147.412 408.096 147.66C398.808 150.201 390.917 155.847 386.152 164.177C385.853 164.706 385.568 165.242 385.296 165.784C385.024 166.326 384.765 166.874 384.52 167.429C384.276 167.984 384.045 168.545 383.828 169.111C383.611 169.677 383.408 170.247 383.22 170.823C383.031 171.399 382.857 171.978 382.698 172.562C382.538 173.147 382.393 173.734 382.263 174.325C382.132 174.917 382.017 175.51 381.916 176.107C381.815 176.704 381.73 177.302 381.659 177.903C381.587 178.504 381.531 179.106 381.491 179.709C381.449 180.313 381.424 180.917 381.413 181.521C381.402 182.126 381.406 182.731 381.426 183.335C381.445 183.94 381.48 184.543 381.529 185.146C381.578 185.749 381.643 186.35 381.722 186.95C381.801 187.549 381.895 188.147 382.004 188.743C382.114 189.337 382.238 189.93 382.376 190.519C382.514 191.108 382.667 191.694 382.835 192.276C386.212 204.115 394.698 210.213 405.038 215.904C409.989 218.546 415.624 220.376 421.229 220.984C442.692 223.313 459.135 209.024 474.739 196.765C483.528 204.653 493.07 211.972 502.662 218.879C484.189 238.589 454.198 256.402 426.828 258.043C402.81 259.482 378.526 250.17 360.657 234.546C347.287 222.856 338.497 206.235 337.551 188.528C336.591 170.547 343.743 154.502 355.986 141.413C372.496 123.761 394.289 113.151 418.629 112.055Z"/>
<path d="M300.949 102.18C316.671 117.071 331.291 137.568 345.195 154.461C336.059 164.163 324.721 172.847 314.403 181.33C307.459 174.138 302.631 165.187 295.813 158.101C287.736 175.262 280.153 192.743 272.45 210.078C275.261 222.33 275.722 238.399 277.437 251.327C266.381 253.355 255.383 256.065 244.346 258.258L234.819 260.163C230.137 213.969 223.343 167.893 217.989 121.756C231.601 120.57 245.298 118.117 258.806 116.076C259.821 130.537 261.934 145.47 264.764 159.693C268.662 155.611 271.788 150.234 275.027 145.587C284.868 131.472 294.492 118.242 300.949 102.18Z"/>
<path d="M167.494 38.1105C168.473 37.9447 168.721 37.9643 169.64 38.1774C171.558 43.2544 172.067 49.4159 172.999 54.7771C174.34 62.774 175.838 70.7424 177.494 78.6823C162.691 81.6668 147.948 85.1784 133.074 87.7797C134.503 100.265 137.171 112.785 139.23 125.197C144.271 154.302 149.015 183.453 153.463 212.649C167.35 210.483 181.295 208.753 195.296 207.459C196.843 220.829 198.164 234.22 199.261 247.633C188.497 251.427 175.141 252.648 163.844 254.948C132.54 261.323 101.252 267.247 69.8231 273C69.2456 271.589 68.8448 270.037 68.3788 268.583C63.626 256.369 58.2683 243.898 54.6464 231.323C70.6489 226.449 87.5951 224.464 103.716 219.904C102.507 204.194 98.3378 186.346 95.6226 170.665C91.3548 146.023 87.6203 121.31 83.2252 96.6763C70.3708 98.9639 57.567 101.496 44.8136 104.272C43.0526 90.3821 40.1934 76.5835 38 62.7479L167.494 38.1105Z"/>
</mask>
<path d="M550.489 118.037L552.223 117.979C553.815 119.782 551.711 135.626 551.683 138.713C551.657 141.734 551.899 144.62 552.372 147.602C555.76 145.048 558.743 141.934 561.966 139.185C569.128 133.076 577.891 127.356 586.846 124.132C598.611 119.898 611.292 119.451 622.783 124.764C638.094 131.842 647.394 147.499 652.777 162.573C659.125 180.353 657.377 196.429 653.659 214.488C649.758 233.422 644.947 247.61 636.41 265.1C624.067 259.999 612.155 253.241 599.504 248.971C603.744 235.084 607.189 221.443 610.204 207.234C610.771 203.959 611.32 200.681 611.851 197.401C613.301 188.367 616.134 172.332 609.932 164.488C607.865 161.874 605.028 160.606 601.7 160.362C590.057 159.511 576.237 166.746 567.652 173.887C562.617 178.075 556.728 183.841 554.037 189.842C551.572 195.335 548.629 241.004 547.792 250.59C532.474 251.517 517.085 251.407 501.749 252.027C503.575 208.012 508.124 164.069 510.228 120.046C523.651 119.523 537.074 118.727 550.489 118.037Z" fill="#FAF6C9"/>
<path d="M418.629 112.055C420.127 112.066 421.624 112.102 423.121 112.164C448.025 113.246 469.404 122.647 489.181 137.07C493.819 140.453 498.881 143.954 502.713 148.209C504.193 149.853 506.085 152.255 505.682 154.606C505.07 158.187 501.149 161.609 498.439 163.876C474.453 183.943 436.591 209.306 403.848 205.825C398.326 205.238 395.401 203.218 392.031 199.013C398.884 194.296 406.273 190.399 413.383 186.075C428.217 177.052 441.185 166.913 453.033 154.286C452.303 153.808 451.582 153.357 450.825 152.923C450.027 152.468 449.219 152.033 448.399 151.618C447.58 151.203 446.751 150.808 445.911 150.434C445.071 150.06 444.223 149.706 443.365 149.374C442.507 149.042 441.642 148.731 440.768 148.441C439.895 148.151 439.014 147.883 438.127 147.637C437.24 147.391 436.347 147.167 435.448 146.964C434.549 146.762 433.646 146.583 432.738 146.425C431.831 146.267 430.92 146.132 430.004 146.019C429.09 145.906 428.173 145.816 427.254 145.75C426.334 145.682 425.414 145.637 424.492 145.615C423.571 145.593 422.649 145.594 421.728 145.617C420.806 145.641 419.886 145.687 418.966 145.756C418.048 145.825 417.131 145.916 416.215 146.029C415.301 146.144 414.39 146.28 413.482 146.439C412.575 146.598 411.672 146.78 410.774 146.984C409.875 147.187 408.983 147.412 408.096 147.66C398.808 150.201 390.917 155.847 386.152 164.177C385.853 164.706 385.568 165.242 385.296 165.784C385.024 166.326 384.765 166.874 384.52 167.429C384.276 167.984 384.045 168.545 383.828 169.111C383.611 169.677 383.408 170.247 383.22 170.823C383.031 171.399 382.857 171.978 382.698 172.562C382.538 173.147 382.393 173.734 382.263 174.325C382.132 174.917 382.017 175.51 381.916 176.107C381.815 176.704 381.73 177.302 381.659 177.903C381.587 178.504 381.531 179.106 381.491 179.709C381.449 180.313 381.424 180.917 381.413 181.521C381.402 182.126 381.406 182.731 381.426 183.335C381.445 183.94 381.48 184.543 381.529 185.146C381.578 185.749 381.643 186.35 381.722 186.95C381.801 187.549 381.895 188.147 382.004 188.743C382.114 189.337 382.238 189.93 382.376 190.519C382.514 191.108 382.667 191.694 382.835 192.276C386.212 204.115 394.698 210.213 405.038 215.904C409.989 218.546 415.624 220.376 421.229 220.984C442.692 223.313 459.135 209.024 474.739 196.765C483.528 204.653 493.07 211.972 502.662 218.879C484.189 238.589 454.198 256.402 426.828 258.043C402.81 259.482 378.526 250.17 360.657 234.546C347.287 222.856 338.497 206.235 337.551 188.528C336.591 170.547 343.743 154.502 355.986 141.413C372.496 123.761 394.289 113.151 418.629 112.055Z" fill="#FAF6C9"/>
<path d="M300.949 102.18C316.671 117.071 331.291 137.568 345.195 154.461C336.059 164.163 324.721 172.847 314.403 181.33C307.459 174.138 302.631 165.187 295.813 158.101C287.736 175.262 280.153 192.743 272.45 210.078C275.261 222.33 275.722 238.399 277.437 251.327C266.381 253.355 255.383 256.065 244.346 258.258L234.819 260.163C230.137 213.969 223.343 167.893 217.989 121.756C231.601 120.57 245.298 118.117 258.806 116.076C259.821 130.537 261.934 145.47 264.764 159.693C268.662 155.611 271.788 150.234 275.027 145.587C284.868 131.472 294.492 118.242 300.949 102.18Z" fill="#FAF6C9"/>
<path d="M167.494 38.1105C168.473 37.9447 168.721 37.9643 169.64 38.1774C171.558 43.2544 172.067 49.4159 172.999 54.7771C174.34 62.774 175.838 70.7424 177.494 78.6823C162.691 81.6668 147.948 85.1784 133.074 87.7797C134.503 100.265 137.171 112.785 139.23 125.197C144.271 154.302 149.015 183.453 153.463 212.649C167.35 210.483 181.295 208.753 195.296 207.459C196.843 220.829 198.164 234.22 199.261 247.633C188.497 251.427 175.141 252.648 163.844 254.948C132.54 261.323 101.252 267.247 69.8231 273C69.2456 271.589 68.8448 270.037 68.3788 268.583C63.626 256.369 58.2683 243.898 54.6464 231.323C70.6489 226.449 87.5951 224.464 103.716 219.904C102.507 204.194 98.3378 186.346 95.6226 170.665C91.3548 146.023 87.6203 121.31 83.2252 96.6763C70.3708 98.9639 57.567 101.496 44.8136 104.272C43.0526 90.3821 40.1934 76.5835 38 62.7479L167.494 38.1105Z" fill="#FAF6C9"/>
<path d="M550.489 118.037L552.223 117.979C553.815 119.782 551.711 135.626 551.683 138.713C551.657 141.734 551.899 144.62 552.372 147.602C555.76 145.048 558.743 141.934 561.966 139.185C569.128 133.076 577.891 127.356 586.846 124.132C598.611 119.898 611.292 119.451 622.783 124.764C638.094 131.842 647.394 147.499 652.777 162.573C659.125 180.353 657.377 196.429 653.659 214.488C649.758 233.422 644.947 247.61 636.41 265.1C624.067 259.999 612.155 253.241 599.504 248.971C603.744 235.084 607.189 221.443 610.204 207.234C610.771 203.959 611.32 200.681 611.851 197.401C613.301 188.367 616.134 172.332 609.932 164.488C607.865 161.874 605.028 160.606 601.7 160.362C590.057 159.511 576.237 166.746 567.652 173.887C562.617 178.075 556.728 183.841 554.037 189.842C551.572 195.335 548.629 241.004 547.792 250.59C532.474 251.517 517.085 251.407 501.749 252.027C503.575 208.012 508.124 164.069 510.228 120.046C523.651 119.523 537.074 118.727 550.489 118.037Z" stroke="#1D111F" stroke-width="76" stroke-linejoin="round" mask="url(#path-1-outside-1_110_645)"/>
<path d="M418.629 112.055C420.127 112.066 421.624 112.102 423.121 112.164C448.025 113.246 469.404 122.647 489.181 137.07C493.819 140.453 498.881 143.954 502.713 148.209C504.193 149.853 506.085 152.255 505.682 154.606C505.07 158.187 501.149 161.609 498.439 163.876C474.453 183.943 436.591 209.306 403.848 205.825C398.326 205.238 395.401 203.218 392.031 199.013C398.884 194.296 406.273 190.399 413.383 186.075C428.217 177.052 441.185 166.913 453.033 154.286C452.303 153.808 451.582 153.357 450.825 152.923C450.027 152.468 449.219 152.033 448.399 151.618C447.58 151.203 446.751 150.808 445.911 150.434C445.071 150.06 444.223 149.706 443.365 149.374C442.507 149.042 441.642 148.731 440.768 148.441C439.895 148.151 439.014 147.883 438.127 147.637C437.24 147.391 436.347 147.167 435.448 146.964C434.549 146.762 433.646 146.583 432.738 146.425C431.831 146.267 430.92 146.132 430.004 146.019C429.09 145.906 428.173 145.816 427.254 145.75C426.334 145.682 425.414 145.637 424.492 145.615C423.571 145.593 422.649 145.594 421.728 145.617C420.806 145.641 419.886 145.687 418.966 145.756C418.048 145.825 417.131 145.916 416.215 146.029C415.301 146.144 414.39 146.28 413.482 146.439C412.575 146.598 411.672 146.78 410.774 146.984C409.875 147.187 408.983 147.412 408.096 147.66C398.808 150.201 390.917 155.847 386.152 164.177C385.853 164.706 385.568 165.242 385.296 165.784C385.024 166.326 384.765 166.874 384.52 167.429C384.276 167.984 384.045 168.545 383.828 169.111C383.611 169.677 383.408 170.247 383.22 170.823C383.031 171.399 382.857 171.978 382.698 172.562C382.538 173.147 382.393 173.734 382.263 174.325C382.132 174.917 382.017 175.51 381.916 176.107C381.815 176.704 381.73 177.302 381.659 177.903C381.587 178.504 381.531 179.106 381.491 179.709C381.449 180.313 381.424 180.917 381.413 181.521C381.402 182.126 381.406 182.731 381.426 183.335C381.445 183.94 381.48 184.543 381.529 185.146C381.578 185.749 381.643 186.35 381.722 186.95C381.801 187.549 381.895 188.147 382.004 188.743C382.114 189.337 382.238 189.93 382.376 190.519C382.514 191.108 382.667 191.694 382.835 192.276C386.212 204.115 394.698 210.213 405.038 215.904C409.989 218.546 415.624 220.376 421.229 220.984C442.692 223.313 459.135 209.024 474.739 196.765C483.528 204.653 493.07 211.972 502.662 218.879C484.189 238.589 454.198 256.402 426.828 258.043C402.81 259.482 378.526 250.17 360.657 234.546C347.287 222.856 338.497 206.235 337.551 188.528C336.591 170.547 343.743 154.502 355.986 141.413C372.496 123.761 394.289 113.151 418.629 112.055Z" stroke="#1D111F" stroke-width="76" stroke-linejoin="round" mask="url(#path-1-outside-1_110_645)"/>
<path d="M300.949 102.18C316.671 117.071 331.291 137.568 345.195 154.461C336.059 164.163 324.721 172.847 314.403 181.33C307.459 174.138 302.631 165.187 295.813 158.101C287.736 175.262 280.153 192.743 272.45 210.078C275.261 222.33 275.722 238.399 277.437 251.327C266.381 253.355 255.383 256.065 244.346 258.258L234.819 260.163C230.137 213.969 223.343 167.893 217.989 121.756C231.601 120.57 245.298 118.117 258.806 116.076C259.821 130.537 261.934 145.47 264.764 159.693C268.662 155.611 271.788 150.234 275.027 145.587C284.868 131.472 294.492 118.242 300.949 102.18Z" stroke="#1D111F" stroke-width="76" stroke-linejoin="round" mask="url(#path-1-outside-1_110_645)"/>
<path d="M167.494 38.1105C168.473 37.9447 168.721 37.9643 169.64 38.1774C171.558 43.2544 172.067 49.4159 172.999 54.7771C174.34 62.774 175.838 70.7424 177.494 78.6823C162.691 81.6668 147.948 85.1784 133.074 87.7797C134.503 100.265 137.171 112.785 139.23 125.197C144.271 154.302 149.015 183.453 153.463 212.649C167.35 210.483 181.295 208.753 195.296 207.459C196.843 220.829 198.164 234.22 199.261 247.633C188.497 251.427 175.141 252.648 163.844 254.948C132.54 261.323 101.252 267.247 69.8231 273C69.2456 271.589 68.8448 270.037 68.3788 268.583C63.626 256.369 58.2683 243.898 54.6464 231.323C70.6489 226.449 87.5951 224.464 103.716 219.904C102.507 204.194 98.3378 186.346 95.6226 170.665C91.3548 146.023 87.6203 121.31 83.2252 96.6763C70.3708 98.9639 57.567 101.496 44.8136 104.272C43.0526 90.3821 40.1934 76.5835 38 62.7479L167.494 38.1105Z" stroke="#1D111F" stroke-width="76" stroke-linejoin="round" mask="url(#path-1-outside-1_110_645)"/>
<mask id="path-2-outside-2_110_645" maskUnits="userSpaceOnUse" x="13.0303" y="36.3389" width="668" height="261" fill="black">
<rect fill="white" x="13.0303" y="36.3389" width="668" height="261"/>
<path d="M550.463 132.767L552.197 132.714C553.789 134.347 551.685 148.684 551.657 151.477C551.631 154.211 551.873 156.823 552.345 159.522C555.733 157.21 558.716 154.393 561.939 151.905C569.1 146.376 577.862 141.2 586.817 138.283C598.58 134.451 611.259 134.047 622.749 138.854C638.058 145.26 647.358 159.429 652.74 173.069C659.088 189.16 657.34 203.707 653.621 220.049C649.721 237.183 644.91 250.022 636.375 265.85C624.033 261.234 612.122 255.119 599.473 251.254C603.712 238.687 607.157 226.343 610.171 213.484C610.738 210.521 611.287 207.555 611.818 204.586C613.268 196.412 616.101 181.901 609.899 174.802C607.833 172.437 604.996 171.29 601.668 171.069C590.027 170.299 576.208 176.846 567.625 183.308C562.59 187.098 556.701 192.315 554.01 197.746C551.546 202.717 548.603 244.044 547.767 252.719C532.45 253.558 517.062 253.458 501.729 254.02C503.554 214.189 508.102 174.423 510.206 134.585C523.628 134.112 537.049 133.391 550.463 132.767Z"/>
<path d="M418.618 127.354C420.115 127.363 421.613 127.397 423.11 127.453C448.011 128.432 469.387 136.939 489.162 149.991C493.799 153.052 498.861 156.22 502.692 160.071C504.172 161.559 506.064 163.732 505.661 165.86C505.049 169.101 501.129 172.197 498.419 174.248C474.436 192.408 436.578 215.36 403.838 212.209C398.317 211.679 395.392 209.851 392.022 206.046C398.874 201.777 406.263 198.25 413.372 194.337C428.204 186.172 441.172 176.997 453.018 165.571C452.288 165.138 451.567 164.73 450.81 164.337C450.012 163.925 449.204 163.531 448.385 163.156C447.565 162.78 446.736 162.423 445.897 162.085C445.057 161.746 444.208 161.426 443.351 161.125C442.493 160.825 441.628 160.543 440.755 160.281C439.881 160.019 439 159.776 438.113 159.554C437.226 159.331 436.333 159.128 435.435 158.944C434.536 158.762 433.633 158.599 432.725 158.457C431.818 158.314 430.907 158.192 429.992 158.089C429.077 157.987 428.16 157.906 427.241 157.845C426.322 157.784 425.401 157.744 424.48 157.724C423.559 157.704 422.637 157.705 421.716 157.726C420.794 157.747 419.874 157.789 418.955 157.851C418.036 157.913 417.119 157.996 416.204 158.099C415.29 158.202 414.379 158.326 413.471 158.47C412.564 158.614 411.661 158.778 410.763 158.962C409.865 159.146 408.972 159.35 408.086 159.574C398.799 161.873 390.908 166.983 386.144 174.521C385.845 175 385.56 175.484 385.288 175.975C385.016 176.466 384.757 176.962 384.512 177.464C384.268 177.966 384.037 178.474 383.82 178.986C383.603 179.498 383.4 180.014 383.212 180.535C383.024 181.056 382.85 181.581 382.69 182.109C382.53 182.638 382.385 183.17 382.255 183.705C382.125 184.24 382.01 184.777 381.909 185.317C381.808 185.857 381.722 186.399 381.651 186.942C381.58 187.486 381.524 188.031 381.483 188.576C381.442 189.123 381.416 189.67 381.406 190.217C381.394 190.764 381.399 191.311 381.418 191.858C381.438 192.405 381.472 192.951 381.521 193.497C381.571 194.042 381.635 194.586 381.714 195.129C381.794 195.672 381.888 196.212 381.997 196.751C382.106 197.29 382.23 197.826 382.369 198.359C382.507 198.892 382.66 199.422 382.828 199.949C386.204 210.663 394.689 216.181 405.028 221.331C409.978 223.722 415.613 225.378 421.217 225.928C442.678 228.036 459.119 215.105 474.721 204.011C483.51 211.15 493.05 217.772 502.641 224.023C484.17 241.859 454.183 257.979 426.816 259.464C402.8 260.766 378.519 252.34 360.652 238.2C347.283 227.622 338.494 212.58 337.549 196.557C336.589 180.286 343.74 165.766 355.981 153.921C372.489 137.947 394.281 128.346 418.618 127.354Z"/>
<path d="M300.951 118.418C316.671 131.893 331.289 150.441 345.192 165.728C336.057 174.508 324.72 182.367 314.403 190.043C307.459 183.535 302.632 175.435 295.815 169.023C287.739 184.553 280.157 200.372 272.454 216.058C275.265 227.146 275.726 241.688 277.441 253.386C266.387 255.221 255.389 257.674 244.354 259.658L234.827 261.383C230.146 219.58 223.353 177.884 218 136.133C231.61 135.059 245.306 132.84 258.812 130.992C259.827 144.079 261.94 157.592 264.77 170.464C268.667 166.769 271.793 161.903 275.032 157.698C284.871 144.925 294.495 132.953 300.951 118.418Z"/>
<path d="M167.51 60.4389C168.489 60.2888 168.737 60.3065 169.656 60.4994C171.574 65.0938 172.083 70.6695 173.015 75.5211C174.355 82.7578 175.854 89.9687 177.509 97.1538C162.708 99.8545 147.966 103.032 133.094 105.386C134.523 116.685 137.191 128.014 139.249 139.247C144.29 165.585 149.033 191.964 153.481 218.386C167.367 216.425 181.309 214.859 195.309 213.689C196.856 225.788 198.177 237.906 199.273 250.044C188.511 253.477 175.156 254.581 163.86 256.663C132.56 262.432 101.275 267.793 69.8499 272.999C69.2724 271.722 68.8717 270.318 68.4057 269.002C63.6534 257.949 58.2963 246.664 54.6748 235.284C70.6756 230.873 87.6199 229.077 103.74 224.95C102.53 210.734 98.3614 194.582 95.6466 180.392C91.3792 158.093 87.6451 135.729 83.2505 113.437C70.3976 115.507 57.5951 117.799 44.8431 120.311C43.0823 107.741 40.2234 95.2545 38.0303 82.7342L167.51 60.4389Z"/>
</mask>
<path d="M550.463 132.767L552.197 132.714C553.789 134.347 551.685 148.684 551.657 151.477C551.631 154.211 551.873 156.823 552.345 159.522C555.733 157.21 558.716 154.393 561.939 151.905C569.1 146.376 577.862 141.2 586.817 138.283C598.58 134.451 611.259 134.047 622.749 138.854C638.058 145.26 647.358 159.429 652.74 173.069C659.088 189.16 657.34 203.707 653.621 220.049C649.721 237.183 644.91 250.022 636.375 265.85C624.033 261.234 612.122 255.119 599.473 251.254C603.712 238.687 607.157 226.343 610.171 213.484C610.738 210.521 611.287 207.555 611.818 204.586C613.268 196.412 616.101 181.901 609.899 174.802C607.833 172.437 604.996 171.29 601.668 171.069C590.027 170.299 576.208 176.846 567.625 183.308C562.59 187.098 556.701 192.315 554.01 197.746C551.546 202.717 548.603 244.044 547.767 252.719C532.45 253.558 517.062 253.458 501.729 254.02C503.554 214.189 508.102 174.423 510.206 134.585C523.628 134.112 537.049 133.391 550.463 132.767Z" fill="#FAF6C9"/>
<path d="M418.618 127.354C420.115 127.363 421.613 127.397 423.11 127.453C448.011 128.432 469.387 136.939 489.162 149.991C493.799 153.052 498.861 156.22 502.692 160.071C504.172 161.559 506.064 163.732 505.661 165.86C505.049 169.101 501.129 172.197 498.419 174.248C474.436 192.408 436.578 215.36 403.838 212.209C398.317 211.679 395.392 209.851 392.022 206.046C398.874 201.777 406.263 198.25 413.372 194.337C428.204 186.172 441.172 176.997 453.018 165.571C452.288 165.138 451.567 164.73 450.81 164.337C450.012 163.925 449.204 163.531 448.385 163.156C447.565 162.78 446.736 162.423 445.897 162.085C445.057 161.746 444.208 161.426 443.351 161.125C442.493 160.825 441.628 160.543 440.755 160.281C439.881 160.019 439 159.776 438.113 159.554C437.226 159.331 436.333 159.128 435.435 158.944C434.536 158.762 433.633 158.599 432.725 158.457C431.818 158.314 430.907 158.192 429.992 158.089C429.077 157.987 428.16 157.906 427.241 157.845C426.322 157.784 425.401 157.744 424.48 157.724C423.559 157.704 422.637 157.705 421.716 157.726C420.794 157.747 419.874 157.789 418.955 157.851C418.036 157.913 417.119 157.996 416.204 158.099C415.29 158.202 414.379 158.326 413.471 158.47C412.564 158.614 411.661 158.778 410.763 158.962C409.865 159.146 408.972 159.35 408.086 159.574C398.799 161.873 390.908 166.983 386.144 174.521C385.845 175 385.56 175.484 385.288 175.975C385.016 176.466 384.757 176.962 384.512 177.464C384.268 177.966 384.037 178.474 383.82 178.986C383.603 179.498 383.4 180.014 383.212 180.535C383.024 181.056 382.85 181.581 382.69 182.109C382.53 182.638 382.385 183.17 382.255 183.705C382.125 184.24 382.01 184.777 381.909 185.317C381.808 185.857 381.722 186.399 381.651 186.942C381.58 187.486 381.524 188.031 381.483 188.576C381.442 189.123 381.416 189.67 381.406 190.217C381.394 190.764 381.399 191.311 381.418 191.858C381.438 192.405 381.472 192.951 381.521 193.497C381.571 194.042 381.635 194.586 381.714 195.129C381.794 195.672 381.888 196.212 381.997 196.751C382.106 197.29 382.23 197.826 382.369 198.359C382.507 198.892 382.66 199.422 382.828 199.949C386.204 210.663 394.689 216.181 405.028 221.331C409.978 223.722 415.613 225.378 421.217 225.928C442.678 228.036 459.119 215.105 474.721 204.011C483.51 211.15 493.05 217.772 502.641 224.023C484.17 241.859 454.183 257.979 426.816 259.464C402.8 260.766 378.519 252.34 360.652 238.2C347.283 227.622 338.494 212.58 337.549 196.557C336.589 180.286 343.74 165.766 355.981 153.921C372.489 137.947 394.281 128.346 418.618 127.354Z" fill="#FAF6C9"/>
<path d="M300.951 118.418C316.671 131.893 331.289 150.441 345.192 165.728C336.057 174.508 324.72 182.367 314.403 190.043C307.459 183.535 302.632 175.435 295.815 169.023C287.739 184.553 280.157 200.372 272.454 216.058C275.265 227.146 275.726 241.688 277.441 253.386C266.387 255.221 255.389 257.674 244.354 259.658L234.827 261.383C230.146 219.58 223.353 177.884 218 136.133C231.61 135.059 245.306 132.84 258.812 130.992C259.827 144.079 261.94 157.592 264.77 170.464C268.667 166.769 271.793 161.903 275.032 157.698C284.871 144.925 294.495 132.953 300.951 118.418Z" fill="#FAF6C9"/>
<path d="M167.51 60.4389C168.489 60.2888 168.737 60.3065 169.656 60.4994C171.574 65.0938 172.083 70.6695 173.015 75.5211C174.355 82.7578 175.854 89.9687 177.509 97.1538C162.708 99.8545 147.966 103.032 133.094 105.386C134.523 116.685 137.191 128.014 139.249 139.247C144.29 165.585 149.033 191.964 153.481 218.386C167.367 216.425 181.309 214.859 195.309 213.689C196.856 225.788 198.177 237.906 199.273 250.044C188.511 253.477 175.156 254.581 163.86 256.663C132.56 262.432 101.275 267.793 69.8499 272.999C69.2724 271.722 68.8717 270.318 68.4057 269.002C63.6534 257.949 58.2963 246.664 54.6748 235.284C70.6756 230.873 87.6199 229.077 103.74 224.95C102.53 210.734 98.3614 194.582 95.6466 180.392C91.3792 158.093 87.6451 135.729 83.2505 113.437C70.3976 115.507 57.5951 117.799 44.8431 120.311C43.0823 107.741 40.2234 95.2545 38.0303 82.7342L167.51 60.4389Z" fill="#FAF6C9"/>
<path d="M550.463 132.767L552.197 132.714C553.789 134.347 551.685 148.684 551.657 151.477C551.631 154.211 551.873 156.823 552.345 159.522C555.733 157.21 558.716 154.393 561.939 151.905C569.1 146.376 577.862 141.2 586.817 138.283C598.58 134.451 611.259 134.047 622.749 138.854C638.058 145.26 647.358 159.429 652.74 173.069C659.088 189.16 657.34 203.707 653.621 220.049C649.721 237.183 644.91 250.022 636.375 265.85C624.033 261.234 612.122 255.119 599.473 251.254C603.712 238.687 607.157 226.343 610.171 213.484C610.738 210.521 611.287 207.555 611.818 204.586C613.268 196.412 616.101 181.901 609.899 174.802C607.833 172.437 604.996 171.29 601.668 171.069C590.027 170.299 576.208 176.846 567.625 183.308C562.59 187.098 556.701 192.315 554.01 197.746C551.546 202.717 548.603 244.044 547.767 252.719C532.45 253.558 517.062 253.458 501.729 254.02C503.554 214.189 508.102 174.423 510.206 134.585C523.628 134.112 537.049 133.391 550.463 132.767Z" stroke="#CC5A2B" stroke-width="48" stroke-linejoin="round" mask="url(#path-2-outside-2_110_645)"/>
<path d="M418.618 127.354C420.115 127.363 421.613 127.397 423.11 127.453C448.011 128.432 469.387 136.939 489.162 149.991C493.799 153.052 498.861 156.22 502.692 160.071C504.172 161.559 506.064 163.732 505.661 165.86C505.049 169.101 501.129 172.197 498.419 174.248C474.436 192.408 436.578 215.36 403.838 212.209C398.317 211.679 395.392 209.851 392.022 206.046C398.874 201.777 406.263 198.25 413.372 194.337C428.204 186.172 441.172 176.997 453.018 165.571C452.288 165.138 451.567 164.73 450.81 164.337C450.012 163.925 449.204 163.531 448.385 163.156C447.565 162.78 446.736 162.423 445.897 162.085C445.057 161.746 444.208 161.426 443.351 161.125C442.493 160.825 441.628 160.543 440.755 160.281C439.881 160.019 439 159.776 438.113 159.554C437.226 159.331 436.333 159.128 435.435 158.944C434.536 158.762 433.633 158.599 432.725 158.457C431.818 158.314 430.907 158.192 429.992 158.089C429.077 157.987 428.16 157.906 427.241 157.845C426.322 157.784 425.401 157.744 424.48 157.724C423.559 157.704 422.637 157.705 421.716 157.726C420.794 157.747 419.874 157.789 418.955 157.851C418.036 157.913 417.119 157.996 416.204 158.099C415.29 158.202 414.379 158.326 413.471 158.47C412.564 158.614 411.661 158.778 410.763 158.962C409.865 159.146 408.972 159.35 408.086 159.574C398.799 161.873 390.908 166.983 386.144 174.521C385.845 175 385.56 175.484 385.288 175.975C385.016 176.466 384.757 176.962 384.512 177.464C384.268 177.966 384.037 178.474 383.82 178.986C383.603 179.498 383.4 180.014 383.212 180.535C383.024 181.056 382.85 181.581 382.69 182.109C382.53 182.638 382.385 183.17 382.255 183.705C382.125 184.24 382.01 184.777 381.909 185.317C381.808 185.857 381.722 186.399 381.651 186.942C381.58 187.486 381.524 188.031 381.483 188.576C381.442 189.123 381.416 189.67 381.406 190.217C381.394 190.764 381.399 191.311 381.418 191.858C381.438 192.405 381.472 192.951 381.521 193.497C381.571 194.042 381.635 194.586 381.714 195.129C381.794 195.672 381.888 196.212 381.997 196.751C382.106 197.29 382.23 197.826 382.369 198.359C382.507 198.892 382.66 199.422 382.828 199.949C386.204 210.663 394.689 216.181 405.028 221.331C409.978 223.722 415.613 225.378 421.217 225.928C442.678 228.036 459.119 215.105 474.721 204.011C483.51 211.15 493.05 217.772 502.641 224.023C484.17 241.859 454.183 257.979 426.816 259.464C402.8 260.766 378.519 252.34 360.652 238.2C347.283 227.622 338.494 212.58 337.549 196.557C336.589 180.286 343.74 165.766 355.981 153.921C372.489 137.947 394.281 128.346 418.618 127.354Z" stroke="#CC5A2B" stroke-width="48" stroke-linejoin="round" mask="url(#path-2-outside-2_110_645)"/>
<path d="M300.951 118.418C316.671 131.893 331.289 150.441 345.192 165.728C336.057 174.508 324.72 182.367 314.403 190.043C307.459 183.535 302.632 175.435 295.815 169.023C287.739 184.553 280.157 200.372 272.454 216.058C275.265 227.146 275.726 241.688 277.441 253.386C266.387 255.221 255.389 257.674 244.354 259.658L234.827 261.383C230.146 219.58 223.353 177.884 218 136.133C231.61 135.059 245.306 132.84 258.812 130.992C259.827 144.079 261.94 157.592 264.77 170.464C268.667 166.769 271.793 161.903 275.032 157.698C284.871 144.925 294.495 132.953 300.951 118.418Z" stroke="#CC5A2B" stroke-width="48" stroke-linejoin="round" mask="url(#path-2-outside-2_110_645)"/>
<path d="M167.51 60.4389C168.489 60.2888 168.737 60.3065 169.656 60.4994C171.574 65.0938 172.083 70.6695 173.015 75.5211C174.355 82.7578 175.854 89.9687 177.509 97.1538C162.708 99.8545 147.966 103.032 133.094 105.386C134.523 116.685 137.191 128.014 139.249 139.247C144.29 165.585 149.033 191.964 153.481 218.386C167.367 216.425 181.309 214.859 195.309 213.689C196.856 225.788 198.177 237.906 199.273 250.044C188.511 253.477 175.156 254.581 163.86 256.663C132.56 262.432 101.275 267.793 69.8499 272.999C69.2724 271.722 68.8717 270.318 68.4057 269.002C63.6534 257.949 58.2963 246.664 54.6748 235.284C70.6756 230.873 87.6199 229.077 103.74 224.95C102.53 210.734 98.3614 194.582 95.6466 180.392C91.3792 158.093 87.6451 135.729 83.2505 113.437C70.3976 115.507 57.5951 117.799 44.8431 120.311C43.0823 107.741 40.2234 95.2545 38.0303 82.7342L167.51 60.4389Z" stroke="#CC5A2B" stroke-width="48" stroke-linejoin="round" mask="url(#path-2-outside-2_110_645)"/>
</svg>
