<svg width="619" height="213" viewBox="0 0 619 213" fill="none" xmlns="http://www.w3.org/2000/svg">
<path d="M512.463 72.4286L514.197 72.3755C515.789 74.0078 513.685 88.345 513.657 91.1385C513.631 93.8724 513.873 96.4842 514.345 99.1828C517.733 96.8716 520.716 94.0539 523.939 91.5658C531.1 86.0375 539.862 80.8612 548.817 77.9439C560.58 74.1121 573.259 73.708 584.749 78.5156C600.058 84.9211 609.358 99.0897 614.74 112.73C621.088 128.821 619.34 143.368 615.621 159.71C611.721 176.845 606.91 189.684 598.375 205.511C586.033 200.895 574.122 194.78 561.473 190.915C565.712 178.348 569.157 166.004 572.171 153.146C572.738 150.182 573.287 147.216 573.818 144.247C575.268 136.073 578.101 121.562 571.899 114.463C569.833 112.098 566.996 110.951 563.668 110.73C552.027 109.96 538.208 116.507 529.625 122.969C524.59 126.759 518.701 131.976 516.01 137.407C513.546 142.378 510.603 183.705 509.767 192.38C494.45 193.219 479.062 193.119 463.729 193.681C465.554 153.85 470.102 114.084 472.206 74.2462C485.628 73.7732 499.049 73.0525 512.463 72.4286Z" fill="white"/>
<path d="M380.618 67.0146C382.115 67.0246 383.613 67.0577 385.11 67.1137C410.011 68.0932 431.387 76.5998 451.162 89.6523C455.799 92.713 460.861 95.8813 464.692 99.7318C466.172 101.22 468.064 103.394 467.661 105.521C467.049 108.762 463.129 111.858 460.419 113.909C436.436 132.069 398.578 155.021 365.838 151.871C360.317 151.34 357.392 149.512 354.022 145.707C360.874 141.438 368.263 137.912 375.372 133.998C390.204 125.833 403.172 116.658 415.018 105.232C414.288 104.799 413.567 104.391 412.81 103.998C412.012 103.586 411.204 103.193 410.385 102.817C409.565 102.441 408.736 102.084 407.897 101.746C407.057 101.407 406.208 101.087 405.351 100.786C404.493 100.486 403.628 100.204 402.755 99.942C401.881 99.6797 401 99.4374 400.113 99.215C399.226 98.9919 398.333 98.7888 397.435 98.6056C396.536 98.423 395.633 98.2604 394.725 98.1178C393.818 97.9751 392.907 97.8526 391.992 97.7505C391.077 97.6483 390.16 97.567 389.241 97.5065C388.322 97.4455 387.401 97.405 386.48 97.385C385.559 97.3651 384.637 97.3657 383.716 97.3869C382.794 97.4081 381.874 97.4498 380.955 97.5121C380.036 97.5744 379.119 97.657 378.204 97.7598C377.29 97.8632 376.379 97.9869 375.471 98.1308C374.564 98.2747 373.661 98.4389 372.763 98.6234C371.865 98.8072 370.972 99.0112 370.086 99.2355C360.799 101.535 352.908 106.644 348.144 114.182C347.845 114.661 347.56 115.146 347.288 115.637C347.016 116.127 346.757 116.623 346.512 117.125C346.268 117.628 346.037 118.135 345.82 118.647C345.603 119.159 345.4 119.676 345.212 120.196C345.024 120.717 344.85 121.242 344.69 121.77C344.53 122.299 344.385 122.831 344.255 123.366C344.125 123.901 344.01 124.438 343.909 124.978C343.808 125.518 343.722 126.06 343.651 126.603C343.58 127.147 343.524 127.692 343.483 128.238C343.442 128.784 343.416 129.331 343.406 129.878C343.394 130.425 343.399 130.972 343.418 131.519C343.438 132.066 343.472 132.612 343.521 133.158C343.571 133.703 343.635 134.247 343.714 134.79C343.794 135.333 343.888 135.874 343.997 136.412C344.106 136.951 344.23 137.487 344.369 138.02C344.507 138.553 344.66 139.083 344.828 139.61C348.204 150.324 356.689 155.842 367.028 160.992C371.978 163.383 377.613 165.039 383.217 165.589C404.678 167.697 421.119 154.766 436.721 143.672C445.51 150.811 455.05 157.433 464.641 163.684C446.17 181.52 416.183 197.64 388.816 199.125C364.8 200.427 340.519 192.001 322.652 177.861C309.283 167.283 300.494 152.242 299.549 136.218C298.589 119.947 305.74 105.427 317.981 93.5822C334.489 77.6082 356.281 68.0072 380.618 67.0146Z" fill="white"/>
<path d="M262.951 58.0791C278.671 71.5542 293.289 90.1026 307.192 105.39C298.057 114.17 286.72 122.028 276.403 129.704C269.459 123.197 264.632 115.097 257.815 108.684C249.739 124.214 242.157 140.033 234.454 155.719C237.265 166.807 237.726 181.349 239.441 193.047C228.387 194.883 217.389 197.335 206.354 199.32L196.827 201.044C192.146 159.241 185.353 117.545 180 75.7938C193.61 74.7206 207.306 72.5007 220.812 70.6534C221.827 83.74 223.94 97.2533 226.77 110.125C230.667 106.43 233.793 101.565 237.032 97.3595C246.871 84.5859 256.495 72.6143 262.951 58.0791Z" fill="white"/>
<path d="M129.51 0.0999933C130.489 -0.050046 130.737 -0.0323372 131.656 0.160571C133.574 4.75494 134.083 10.3306 135.015 15.1822C136.355 22.4189 137.854 29.6298 139.509 36.8149C124.708 39.5156 109.966 42.6935 95.0936 45.0475C96.5231 56.3461 99.1906 67.6755 101.249 78.9079C106.29 105.246 111.033 131.625 115.481 158.047C129.367 156.086 143.309 154.52 157.309 153.35C158.856 165.449 160.177 177.567 161.273 189.705C150.511 193.138 137.156 194.243 125.86 196.324C94.5604 202.093 63.2751 207.454 31.8499 212.66C31.2724 211.383 30.8717 209.979 30.4057 208.663C25.6534 197.61 20.2963 186.325 16.6748 174.945C32.6756 170.534 49.6199 168.738 65.7396 164.611C64.5299 150.395 60.3614 134.244 57.6466 120.053C53.3792 97.7542 49.6451 75.3899 45.2505 53.0984C32.3976 55.1685 19.5951 57.4598 6.84313 59.9722C5.08233 47.4025 2.22339 34.9157 0.0302734 22.3953L129.51 0.0999933Z" fill="white"/>
</svg>
