<svg width="204" height="182" viewBox="0 0 204 182" fill="none" xmlns="http://www.w3.org/2000/svg">
<path d="M72.9056 12.7804C72.969 12.7774 73.0325 12.775 73.096 12.7731L74.8302 12.72C78.1917 12.6171 81.4421 13.9295 83.7897 16.3376C85.5329 18.1256 86.3467 20.0184 86.7134 21.0136C87.1235 22.1261 87.3379 23.1356 87.4603 23.8514C87.6804 25.1376 87.7549 26.402 87.7801 27.4267C93.4421 24.0001 99.6545 20.9727 106.099 18.873L106.1 18.8728C119.962 14.3574 135.682 13.634 150.381 19.7845C170.002 27.9941 180.99 45.6801 186.902 60.6647L186.903 60.6655C194.609 80.2006 192.194 97.6973 188.322 114.712L188.322 114.712C184.179 132.914 178.983 146.772 169.937 163.546C167.091 168.824 160.786 171.19 155.17 169.09C149.995 167.154 144.843 164.948 139.992 162.871C138.758 162.342 137.543 161.822 136.352 161.317C130.314 158.755 124.656 156.469 118.967 154.731C115.866 153.783 113.28 151.621 111.798 148.737C110.317 145.852 110.066 142.491 111.102 139.419C115.18 127.33 118.507 115.431 121.432 102.985C121.973 100.153 122.497 97.318 123.004 94.4812C123.04 94.2831 123.075 94.0842 123.11 93.8847C123.852 89.7099 124.644 85.2563 124.73 81.0433C124.775 78.8928 124.616 77.234 124.337 76.0445C124.23 75.5908 124.122 75.2713 124.034 75.0558C123.986 75.0511 123.934 75.0466 123.876 75.0428L72.9056 12.7804ZM72.9056 12.7804C69.0919 12.9578 65.2996 13.1418 61.5211 13.3252C51.8951 13.7923 42.3583 14.2551 32.7837 14.5925C26.5688 14.8116 21.551 19.7422 21.223 25.9522C20.2369 44.6232 18.7074 63.2969 17.1613 82.1719C17.0752 83.2228 16.9891 84.2744 16.903 85.3267C15.276 105.211 13.6651 125.312 12.7411 145.47C12.5875 148.821 13.8434 152.083 16.2043 154.466C18.5652 156.849 21.8156 158.135 25.1676 158.012C30.9955 157.798 37.1967 157.679 43.5232 157.558C52.8149 157.38 62.3768 157.197 71.423 156.701C77.3454 156.377 82.1423 151.774 82.7113 145.87C82.8803 144.117 83.1288 141.123 83.4288 137.51C83.5172 136.444 83.6101 135.325 83.7068 134.168C84.1379 129.007 84.6565 122.929 85.2237 116.983C85.7934 111.012 86.401 105.293 87.0049 100.818C87.3085 98.5683 87.5923 96.7761 87.8449 95.4869C87.929 95.0575 87.9972 94.7522 88.045 94.5507C89.5849 91.9028 93.2304 88.3666 97.8415 84.8955L97.842 84.8952M72.9056 12.7804L97.842 84.8952M97.842 84.8952C101.303 82.2896 105.956 79.5813 110.884 77.6468M97.842 84.8952L110.884 77.6468M110.884 77.6468C115.908 75.6749 120.43 74.8153 123.874 75.0427L110.884 77.6468ZM87.7619 95.0752L87.7624 95.0742L87.7619 95.0752Z" fill="#FAF6C9" stroke="#CC5A2B" stroke-width="24" stroke-linejoin="round"/>
</svg>
