<svg width="180" height="180" viewBox="0 0 180 180" fill="none" xmlns="http://www.w3.org/2000/svg">
<g clip-path="url(#clip0_524_51)">
<path d="M7.5 9.75H172.5V170.25H7.5V9.75Z" fill="url(#paint0_radial_524_51)"/>
<path d="M7.49991 9.74991H172.5V170.25H7.49991V9.74991ZM0 177.751H180V2.25H0V177.751ZM121.35 74.2501C115.425 74.2501 113.4 77.25 113.4 79.725C113.4 82.4249 114.75 84.3 122.7 88.4251C134.475 94.1252 138.15 99.6001 138.15 107.625C138.15 119.625 129 126.075 116.625 126.075C110.1 126.075 104.475 124.725 101.25 122.85C100.725 122.625 100.65 122.25 100.65 121.65V110.625C100.65 109.875 101.025 109.65 101.55 110.025C106.275 113.1 111.675 114.45 116.625 114.45C122.55 114.45 125.025 111.975 125.025 108.6C125.025 105.9 123.3 103.5 115.725 99.6001C105.075 94.5002 100.65 89.3252 100.65 80.7002C100.65 71.0249 108.225 63.0001 121.35 63.0001C127.8 63.0001 132.3 63.9753 134.775 65.1001C135.375 65.4751 135.525 66.075 135.525 66.5999V76.8748C135.525 77.4747 135.15 77.8499 134.4 77.6247C131.1 75.5253 126.225 74.2501 121.35 74.2501ZM56.85 83.1751C58.5751 83.3251 59.9252 83.3251 62.9251 83.3251C71.7005 83.3251 79.9503 80.2502 79.9503 68.3253C79.9503 58.8004 74.0252 54.0001 64.0503 54.0001C61.0504 54.0001 58.2001 54.1501 56.85 54.2251V83.1751ZM43.5003 43.35C43.5003 42.8251 44.5504 42.4498 45.1501 42.4498C49.9503 42.2248 57.0753 42.0749 64.5002 42.0749C85.2752 42.0749 93.375 53.4749 93.375 68.025C93.375 87.0749 79.575 95.2501 62.6252 95.2501C59.7752 95.2501 58.8004 95.1001 56.775 95.1001V123.9C56.775 124.5 56.5501 124.8 55.8751 124.8H44.4002C43.8002 124.8 43.5 124.575 43.5 123.9V43.35H43.5003Z" fill="#31C5F0"/>
</g>
<defs>
<radialGradient id="paint0_radial_524_51" cx="0" cy="0" r="1" gradientUnits="userSpaceOnUse" gradientTransform="translate(61.8431 45.7183) scale(125.4 121.41)">
<stop stop-color="#34364E" stop-opacity="0.98"/>
<stop offset="1" stop-color="#0C0824"/>
</radialGradient>
<clipPath id="clip0_524_51">
<rect width="180" height="180" fill="white"/>
</clipPath>
</defs>
</svg>
