<svg width="176" height="192" viewBox="0 0 176 192" fill="none" xmlns="http://www.w3.org/2000/svg">
<path d="M114.761 15.3071C111.882 12.8395 108.006 11.8776 104.308 12.7126C100.61 13.5477 97.5233 16.0816 95.9841 19.5466C91.5053 29.6298 85.3072 38.3746 77.9941 47.9687C77.4907 43.9737 77.0812 39.9947 76.7765 36.0647C76.5211 32.77 74.9183 29.7266 72.3462 27.6519C69.7741 25.5773 66.4603 24.6551 63.1863 25.1029C59.8709 25.5564 56.6032 26.0226 53.3706 26.4839C43.0434 27.9574 33.0748 29.3798 23.0567 30.1698C19.7826 30.4279 16.7574 32.0168 14.6864 34.5658C12.6155 37.1148 11.6798 40.4012 12.0974 43.6588C14.3148 60.9523 16.7362 77.963 19.1443 94.8797C22.6486 119.498 26.1246 143.917 28.902 168.718C29.2719 172.021 30.9948 175.022 33.6602 177.007C36.3255 178.992 39.6947 179.783 42.9649 179.191L52.4773 177.469C52.4812 177.468 52.485 177.468 52.4889 177.467C52.4896 177.467 52.4904 177.467 52.4911 177.467C57.799 176.512 62.6253 175.551 67.3311 174.614C73.3041 173.425 79.0829 172.274 85.4062 171.224C91.8566 170.153 96.2623 164.115 95.3141 157.646C94.7351 153.695 94.3197 149.497 93.8664 144.915C93.6856 143.087 93.4987 141.198 93.293 139.24C92.7618 134.182 92.1101 128.749 91.0833 123.558C92.216 121.244 93.3438 118.935 94.4692 116.63C97.7882 109.834 101.087 103.081 104.43 96.3698C106.689 99.1055 109.262 102.048 112.197 104.799C116.435 108.77 122.907 109.137 127.566 105.671C129.304 104.378 131.12 103.046 132.985 101.678C141.654 95.3203 151.404 88.169 159.507 80.38C164.192 75.8768 164.442 68.4624 160.069 63.6548C156.587 59.8259 152.908 55.6009 149.072 51.1957C138.543 39.1038 126.831 25.6537 114.761 15.3071Z" fill="#FAF6C9" stroke="#CC5A2B" stroke-width="24" stroke-linejoin="round"/>
</svg>
