<svg width="180" height="180" viewBox="0 0 180 180" fill="none" xmlns="http://www.w3.org/2000/svg">
<g clip-path="url(#clip0_524_33)">
<path d="M149.237 143.994L117.017 90L149.237 36.0056L165.004 90L149.237 143.994ZM77.985 138.752L37.5019 98.9944H102.015L134.235 152.989L77.985 138.752ZM77.985 40.4831L134.235 26.2462L102.015 80.2406H36.7369C36.7369 81.0056 77.985 40.4831 77.985 40.4831ZM160.487 0L87.0188 18.7481L75.7688 37.4962H53.9944L0 89.9944L53.9944 142.493H75.7688L86.2537 161.241L159.761 179.989L179.241 108.737L168.756 89.9888L180.006 71.2406L160.487 0Z" fill="black"/>
</g>
<defs>
<clipPath id="clip0_524_33">
<rect width="180" height="180" fill="white"/>
</clipPath>
</defs>
</svg>
